<svg xmlns="http://www.w3.org/2000/svg" version="1.1" xmlns:xlink="http://www.w3.org/1999/xlink" width="600" height="600"><svg width="600" height="600" viewBox="0 0 600 600" fill="none" xmlns="http://www.w3.org/2000/svg">
<rect width="600" height="600" fill="white"></rect>
<path d="M600 367.667C589.336 338.843 576.137 310.56 560.402 282.819C560.246 282.548 560.199 282.228 560.271 281.923C560.344 281.618 560.529 281.351 560.791 281.179L583.313 266.095C583.518 265.958 583.691 265.78 583.821 265.571C583.951 265.363 584.035 265.128 584.067 264.885C584.1 264.641 584.08 264.393 584.009 264.158C583.938 263.923 583.818 263.706 583.656 263.521C553.276 229.274 513.736 206.192 471.181 188.807C471.049 188.756 470.93 188.678 470.831 188.578C470.732 188.478 470.655 188.358 470.605 188.225C470.556 188.092 470.535 187.949 470.544 187.806C470.553 187.663 470.59 187.522 470.655 187.394C477.987 173.768 476.708 158.616 478.673 144.284C478.726 143.901 478.626 143.513 478.396 143.202C478.165 142.891 477.822 142.683 477.439 142.621L460.377 139.863C459.885 139.779 459.422 139.575 459.031 139.269C458.64 138.962 458.333 138.564 458.138 138.109L444.433 105.822C444.32 105.569 444.148 105.347 443.934 105.177C443.719 105.006 443.466 104.891 443.199 104.842C408.205 99.2518 372.731 93.8974 336.777 88.7783C323.955 86.9403 314.514 86.0516 308.453 86.1123C282.253 86.3402 263.911 90.9661 228.939 97.2549C226.485 97.6907 223.963 97.605 221.538 97.0039L122.7 72.0312C122.573 71.9983 122.44 71.993 122.31 72.0146C122.179 72.0363 122.055 72.0846 121.943 72.1572C121.832 72.2299 121.736 72.325 121.662 72.4365C121.588 72.5481 121.536 72.6737 121.512 72.8057C119.228 85.778 120.461 98.0521 125.212 109.627C125.384 110.037 125.385 110.5 125.214 110.914C125.043 111.328 124.714 111.66 124.299 111.838L108.629 118.445C107.277 119.017 106.078 119.898 105.13 121.019C104.182 122.139 103.511 123.466 103.17 124.894C101.647 131.258 100.612 138.656 100.063 147.087C98.9062 164.677 98.3045 183.574 98.2588 203.776C98.2582 204.149 98.3574 204.517 98.5459 204.841C98.7343 205.165 99.0054 205.434 99.332 205.622L112.421 213.188C112.709 213.348 112.94 213.591 113.083 213.885C113.226 214.178 113.274 214.508 113.221 214.828L110.753 229.98C110.672 230.489 110.737 231.011 110.94 231.484C111.144 231.958 111.477 232.364 111.902 232.657C112.327 232.95 112.827 233.117 113.343 233.14C113.859 233.162 114.371 233.038 114.819 232.782L132.294 222.712C133.152 222.219 134.108 221.919 135.094 221.832C136.08 221.746 137.073 221.874 138.004 222.21C148.1 225.871 154.253 232.57 156.461 242.307C160.367 259.441 148.603 268.123 132.339 268.123C121.489 268.1 112.147 251.626 106.733 243.036C106.631 242.871 106.491 242.731 106.326 242.628C106.161 242.525 105.974 242.459 105.779 242.438C105.584 242.416 105.386 242.438 105.199 242.502C105.013 242.566 104.842 242.671 104.7 242.809C81.7895 265.321 82.5204 298.359 94.2842 326.271C94.3633 326.463 94.4845 326.635 94.6387 326.773C94.7929 326.912 94.9766 327.015 95.1758 327.074C95.3751 327.133 95.5857 327.147 95.791 327.114C95.9961 327.082 96.1913 327.004 96.3623 326.887C116.829 312.76 138.553 307.792 156.164 329.939C156.682 330.596 156.978 331.4 157.011 332.234C157.044 333.069 156.811 333.893 156.347 334.588C111.553 400.552 104.357 488.025 119.524 565.177C119.563 565.362 119.641 565.537 119.752 565.689C119.863 565.842 120.005 565.97 120.169 566.064C120.333 566.159 120.514 566.218 120.702 566.238C120.89 566.258 121.081 566.238 121.261 566.18L153.56 555.539C153.683 555.494 153.816 555.476 153.947 555.485C154.079 555.495 154.208 555.531 154.325 555.593C154.443 555.655 154.548 555.741 154.632 555.845C154.716 555.949 154.78 556.07 154.816 556.199C158.7 571.222 163.487 585.822 169.178 600H0V0H600V367.667ZM454.17 270.08C454.352 270.108 454.52 270.197 454.644 270.333C482.861 304.45 503.137 342.874 515.472 385.604C515.567 385.925 515.534 386.269 515.381 386.566C515.228 386.863 514.966 387.091 514.649 387.2L455.899 406.567C455.722 406.626 455.558 406.719 455.419 406.843C455.279 406.966 455.167 407.118 455.088 407.286C455.009 407.455 454.965 407.637 454.959 407.823C454.953 408.009 454.986 408.194 455.055 408.367L467.823 441.885C467.877 442.019 467.902 442.163 467.897 442.308C467.893 442.452 467.859 442.594 467.797 442.725C467.735 442.855 467.645 442.971 467.536 443.065C467.427 443.16 467.299 443.231 467.161 443.274C387.612 469.312 314.203 522.823 280.338 600H270.976C280.695 548.003 306.435 503.986 348.198 467.951C368.558 450.376 390.685 436.393 414.578 426.003C415.081 425.788 415.491 425.4 415.733 424.907C415.976 424.415 416.036 423.85 415.902 423.314L407.702 390.572C407.603 390.195 407.655 389.793 407.847 389.453C408.038 389.113 408.356 388.86 408.73 388.749L466.27 371.638C466.934 371.44 467.529 371.059 467.985 370.539C468.442 370.019 468.743 369.381 468.852 368.698C469.796 362.683 470.077 355.444 469.696 346.983C468.508 321.282 463.042 295.997 453.296 271.131C453.235 270.957 453.237 270.768 453.3 270.595C453.363 270.422 453.484 270.276 453.643 270.183C453.801 270.089 453.988 270.053 454.17 270.08ZM600 460.228C589.58 450.447 581.098 438.841 575.615 425.502C573.811 421.105 574.816 417.687 579.042 415.796C585.342 412.993 592.328 410.892 600 409.493V460.228Z" fill="#2054A6"></path>
</svg><style>@media (prefers-color-scheme: light) { :root { filter: none; } }
@media (prefers-color-scheme: dark) { :root { filter: none; } }
</style></svg>