<svg width="194" height="53" viewBox="0 0 194 53" fill="none" xmlns="http://www.w3.org/2000/svg">
<path d="M53.0986 32.4795C52.1565 29.9326 50.9909 27.4335 49.6006 24.9824C49.5868 24.9586 49.5826 24.9301 49.5889 24.9033C49.5952 24.8764 49.6117 24.8522 49.6348 24.8369L51.625 23.5049C51.6428 23.4929 51.6576 23.4771 51.6689 23.459C51.6804 23.4407 51.6885 23.4198 51.6914 23.3984C51.6943 23.3769 51.6918 23.3548 51.6855 23.334C51.6793 23.3133 51.6695 23.2937 51.6553 23.2773C48.9717 20.2523 45.4787 18.2134 41.7197 16.6777C41.7081 16.6733 41.6972 16.6661 41.6885 16.6572C41.6799 16.6484 41.6733 16.6376 41.6689 16.626C41.6646 16.6143 41.6623 16.6014 41.6631 16.5889C41.6639 16.5764 41.6672 16.5639 41.6729 16.5527C42.3205 15.3492 42.2083 14.0111 42.3818 12.7451C42.3865 12.7113 42.3768 12.6769 42.3564 12.6494C42.3361 12.6221 42.3062 12.6031 42.2725 12.5977L40.7656 12.3545C40.7222 12.3471 40.681 12.3288 40.6465 12.3018C40.6119 12.2747 40.5846 12.2394 40.5674 12.1992L39.3564 9.34766C39.3465 9.3253 39.3315 9.30512 39.3125 9.29004C39.2936 9.27514 39.2715 9.26505 39.248 9.26074C36.157 8.76698 33.0234 8.29397 29.8477 7.8418C28.7153 7.67948 27.8811 7.60113 27.3457 7.60645C25.0314 7.62657 23.4104 8.03531 20.3213 8.59082C20.1046 8.62926 19.882 8.62141 19.668 8.56836L10.9375 6.3623C10.9263 6.3594 10.9138 6.35941 10.9023 6.36133C10.891 6.36327 10.8799 6.36766 10.8701 6.37402C10.8604 6.38039 10.8522 6.38871 10.8457 6.39844C10.8392 6.40819 10.8342 6.41913 10.832 6.43066C10.6303 7.57657 10.7395 8.66114 11.1592 9.68359C11.1744 9.71972 11.1742 9.7604 11.1592 9.79688C11.1441 9.83344 11.1148 9.86322 11.0781 9.87891L9.69434 10.4629C9.57493 10.5134 9.46853 10.5905 9.38477 10.6895C9.301 10.7884 9.24201 10.9061 9.21191 11.0322C9.07743 11.5943 8.98593 12.2477 8.9375 12.9922C8.83527 14.546 8.78236 16.2154 8.77832 18C8.77827 18.0329 8.78713 18.0652 8.80371 18.0938C8.82036 18.1224 8.84418 18.1465 8.87305 18.1631L10.0293 18.8311C10.0546 18.8452 10.0752 18.8667 10.0879 18.8926C10.1005 18.9185 10.1044 18.9483 10.0996 18.9766L9.88184 20.3145C9.87471 20.3593 9.88057 20.4055 9.89844 20.4473C9.91637 20.489 9.94594 20.5249 9.9834 20.5508C10.0209 20.5766 10.0648 20.5918 10.1104 20.5938C10.1559 20.5957 10.2016 20.5851 10.2412 20.5625L11.7842 19.6729C11.86 19.6293 11.9451 19.6024 12.0322 19.5947C12.1192 19.5871 12.2069 19.5993 12.2891 19.6289C13.1806 19.9523 13.7238 20.5435 13.9189 21.4033C14.2639 22.9167 13.2254 23.6834 11.7891 23.6836C10.8306 23.6816 10.0046 22.2266 9.52637 21.4678C9.51735 21.4534 9.50562 21.4407 9.49121 21.4316C9.47664 21.4225 9.45961 21.417 9.44238 21.415C9.4253 21.4131 9.40798 21.4153 9.3916 21.4209C9.3751 21.4266 9.35923 21.4361 9.34668 21.4482C7.32337 23.4367 7.3878 26.355 8.42676 28.8203C8.43375 28.8372 8.44439 28.853 8.45801 28.8652C8.47164 28.8775 8.48825 28.8864 8.50586 28.8916C8.52345 28.8968 8.54243 28.8974 8.56055 28.8945C8.5784 28.8916 8.59543 28.8852 8.61035 28.875C10.4182 27.6271 12.3379 27.1882 13.8936 29.1445C13.9392 29.2025 13.9649 29.274 13.9678 29.3477C13.9706 29.4211 13.95 29.4935 13.9092 29.5547C9.95242 35.3815 9.31649 43.1088 10.6562 49.9238C10.6597 49.9401 10.667 49.9553 10.6768 49.9688C10.6866 49.9823 10.6994 49.9936 10.7139 50.002C10.7283 50.0102 10.7442 50.0158 10.7607 50.0176C10.7772 50.0193 10.7938 50.0177 10.8096 50.0127L13.6631 49.0723C13.674 49.0683 13.6857 49.0666 13.6973 49.0674C13.7088 49.0682 13.7201 49.0717 13.7305 49.0771C13.7409 49.0826 13.7504 49.0904 13.7578 49.0996C13.7652 49.1088 13.7712 49.1195 13.7744 49.1309C14.1175 50.458 14.5412 51.7475 15.0439 53H0.0986328V0H53.0986V32.4795ZM40.2168 23.8564C40.2328 23.8589 40.2479 23.867 40.2588 23.8789C42.7513 26.8926 44.5423 30.2871 45.6318 34.0615C45.6402 34.0898 45.6375 34.1203 45.624 34.1465C45.6106 34.1726 45.5874 34.1924 45.5596 34.2021L40.3701 35.9131C40.3545 35.9182 40.3395 35.9266 40.3271 35.9375C40.3149 35.9484 40.3048 35.9617 40.2979 35.9766C40.2909 35.9914 40.2876 36.008 40.2871 36.0244C40.2866 36.0408 40.2889 36.0571 40.2949 36.0723L41.4229 39.0332C41.4276 39.045 41.4301 39.0576 41.4297 39.0703C41.4293 39.0831 41.4264 39.0959 41.4209 39.1074C41.4154 39.1189 41.4071 39.1294 41.3975 39.1377C41.3879 39.1459 41.3764 39.1525 41.3643 39.1562C34.338 41.4562 27.8569 46.1834 24.8652 53H24.0352C24.8937 48.4069 27.1673 44.5191 30.8564 41.3359C32.6549 39.7835 34.6092 38.5477 36.7197 37.6299C36.7641 37.6109 36.7999 37.5766 36.8213 37.5332C36.8427 37.4897 36.8487 37.4399 36.8369 37.3926L36.1123 34.5C36.1037 34.4668 36.1081 34.4313 36.125 34.4014C36.1419 34.3714 36.17 34.3487 36.2031 34.3389L41.2861 32.8281C41.3447 32.8107 41.3972 32.7763 41.4375 32.7305C41.4777 32.6846 41.504 32.6285 41.5137 32.5684C41.5971 32.0371 41.6225 31.3976 41.5889 30.6504C41.484 28.3802 41.0004 26.1466 40.1396 23.9502C40.1343 23.9349 40.1341 23.9176 40.1396 23.9023C40.1452 23.8872 40.1561 23.8745 40.1699 23.8662C40.1839 23.858 40.2007 23.8541 40.2168 23.8564ZM53.0986 40.6504C52.1788 39.7867 51.4284 38.7636 50.9443 37.5859C50.785 37.1976 50.874 36.8956 51.2471 36.7285C51.8036 36.481 52.421 36.2964 53.0986 36.1729V40.6504Z" fill="white"/>
<path d="M80.227 0.336242L72.8531 10.8208L80.9887 22.1002V22.253H75.1079L68.8005 13.1134H65.9667V22.253H61V0.183403H65.9667V8.92566H68.5262L74.529 0.183403H80.227V0.336242Z" fill="white"/>
<path d="M90.2991 12.8383V18.2181H101.848C101.787 19.5631 101.695 20.9081 101.634 22.253H85.3324V0.183403H85.3629C87.0388 0.183403 88.6537 0.183403 90.2991 0.183403H101.451C101.39 1.52837 101.33 2.87333 101.299 4.18772H90.2991V8.98679H100.537V12.8383H90.2991Z" fill="white"/>
<path d="M113.188 22.253V14.5195L104.809 0.336242V0.183403H110.355L113.463 5.74666C114.224 7.15275 115.078 8.83396 115.565 10.0567H115.718C116.236 8.83396 117.058 7.15275 117.82 5.74666L120.958 0.183403H126.474V0.336242L122.208 7.51956L118.125 14.5195V22.253H113.188Z" fill="white"/>
<path d="M129.944 22.253L131.346 0.183403H136.465L140.852 9.78154C141.492 11.1571 142.315 13.2968 142.894 14.764H143.077C143.656 13.2968 144.478 11.1571 145.088 9.78154L149.506 0.183403H154.595L156.027 22.253H151.212L150.786 14.3055C150.664 12.0435 150.694 9.47587 150.634 7.5807L150.451 7.55013C149.811 9.29247 148.622 12.1047 147.952 13.5719L144.753 20.1439H141.218L138.019 13.5719C137.348 12.1047 136.16 9.29247 135.52 7.55013L135.337 7.5807C135.276 9.47587 135.307 12.0435 135.185 14.3055L134.758 22.253H129.944Z" fill="white"/>
<path d="M162.853 22.253V0.183403H167.819V22.253H162.853Z" fill="white"/>
<path d="M188.942 14.4583L194 22.1002V22.253H188.393L183.853 15.1003H179.862V22.253H174.925V0.336242C177.424 0.183403 181.02 0 184.28 0C190.283 0 193.36 2.59822 193.36 7.61126C193.33 11.1265 191.837 13.4496 188.942 14.4583ZM179.862 4.27943V10.9431H184.524C187.144 10.9431 188.302 9.90381 188.302 7.61126C188.302 5.19645 186.992 4.15716 184.036 4.15716C182.269 4.15716 180.806 4.21829 179.862 4.27943Z" fill="white"/>
<path d="M65.9667 43.1879V48.5677H77.5151C77.4541 49.9127 77.3627 51.2577 77.3018 52.6026H61V30.533H61.0305C62.7064 30.533 64.3213 30.533 65.9667 30.533H77.119C77.058 31.878 76.9971 33.2229 76.9666 34.5373H65.9667V39.3364H76.2048V43.1879H65.9667Z" fill="white"/>
<path d="M81.6808 52.6026V30.533H86.6779L93.5948 40.0395C94.7831 41.7207 96.459 44.38 97.2817 45.8167L97.495 45.7861C97.3122 43.7075 97.1598 40.8036 97.1598 38.8473V30.533H102.005V52.6026H97.0075L90.2735 43.4019C89.2679 41.9652 87.4397 39.0919 86.4342 37.4412L86.2514 37.5024C86.4342 39.5809 86.5561 42.3626 86.5561 44.5023V52.6026H81.6808Z" fill="white"/>
<path d="M112.506 43.1879V48.5677H124.054C123.993 49.9127 123.902 51.2577 123.841 52.6026H107.539V30.533H107.57C109.245 30.533 110.86 30.533 112.506 30.533H123.658C123.597 31.878 123.536 33.2229 123.506 34.5373H112.506V39.3364H122.744V43.1879H112.506Z" fill="white"/>
<path d="M142.236 44.808L147.295 52.4498V52.6026H141.688L137.148 45.4499H133.156V52.6026H128.22V30.6859C130.718 30.533 134.314 30.3496 137.574 30.3496C143.577 30.3496 146.655 32.9478 146.655 37.9609C146.624 41.4761 145.131 43.7992 142.236 44.808ZM133.156 34.629V41.2927H137.818C140.439 41.2927 141.597 40.2534 141.597 37.9609C141.597 35.5461 140.286 34.5068 137.331 34.5068C135.563 34.5068 134.101 34.5679 133.156 34.629Z" fill="white"/>
<path d="M161.13 53C153.725 53 149.947 49.1179 149.947 41.629C149.977 34.0788 153.756 30.1662 161.16 30.1662C164.268 30.1662 167.346 30.6553 170.088 31.6029L168.808 35.3627C166.98 34.7513 164.268 34.3234 161.343 34.3234C156.864 34.3234 155.005 36.5242 155.005 41.5373C155.005 46.5809 156.894 48.8123 161.404 48.8123C163.049 48.8123 164.725 48.6289 166.249 48.2621V44.0438H160.368V40.4674H170.697V51.0437C167.955 52.3887 164.756 53 161.13 53Z" fill="white"/>
<path d="M180.455 52.6026V44.8691L172.075 30.6859V30.533H177.621L180.729 36.0963C181.491 37.5024 182.344 39.1836 182.832 40.4063H182.984C183.502 39.1836 184.325 37.5024 185.086 36.0963L188.225 30.533H193.74V30.6859L189.474 37.8692L185.391 44.8691V52.6026H180.455Z" fill="white"/>
</svg>
