<svg width="80" height="80" viewBox="0 0 80 80" fill="none" xmlns="http://www.w3.org/2000/svg">
<path d="M41.8703 5.45479L41.561 8.76261C41.1188 7.61104 39.9985 7.07667 38.9235 7.87354C38.4193 8.24646 38.1792 8.74907 38.2032 9.38136C38.3084 12.1595 38.3641 13.7709 38.3703 14.2157C38.3813 15.047 37.6453 15.5423 36.886 15.5032C35.7808 15.4449 35.1735 15.935 35.0641 16.9735C35.0631 16.9845 35.0645 16.9956 35.0684 17.006C35.0722 17.0163 35.0783 17.0257 35.0863 17.0334C35.0942 17.041 35.1038 17.0468 35.1143 17.0502C35.1248 17.0537 35.136 17.0547 35.1469 17.0532L38.275 16.611L38.2875 19.2189C35.9209 19.4032 33.6412 19.9532 31.4485 20.8689L31.7532 18.072L32.3875 17.8189C32.413 17.8089 32.4353 17.7922 32.452 17.7704C32.4688 17.7487 32.4795 17.7228 32.4828 17.6954C32.5594 17.0454 32.5782 16.2814 32.7735 15.7282C33.2599 14.3386 34.2506 13.4538 35.7453 13.0735C35.7704 13.0669 35.7924 13.052 35.808 13.0314C35.8236 13.0107 35.8318 12.9854 35.8313 12.9595C35.8052 11.9772 35.7756 11.2064 35.7422 10.647C35.6797 9.59282 35.7073 8.82667 35.825 8.34854C36.2011 6.82354 37.1256 5.78657 38.5985 5.23761C39.687 4.83136 40.7776 4.90375 41.8703 5.45479Z" fill="white"/>
<path d="M48.6453 18.2298L48.3266 20.7704C45.1037 19.4798 41.7573 18.9626 38.2875 19.2189L38.275 16.611C40.524 16.4631 42.636 16.5991 44.611 17.0189C44.6627 17.0301 44.7165 17.0261 44.7659 17.0073C44.8154 16.9886 44.8583 16.9559 44.8896 16.9132C44.9209 16.8706 44.9391 16.8198 44.942 16.767C44.945 16.7142 44.9326 16.6616 44.9063 16.6157L44.6282 16.1298C44.5411 15.9781 44.4216 15.8473 44.2783 15.7466C44.135 15.646 43.9712 15.5778 43.7985 15.547C43.4266 15.4548 42.9891 15.5517 42.625 15.4454C41.9396 15.2485 41.612 14.7881 41.6422 14.0642C41.7401 11.7298 41.7912 10.3491 41.7953 9.92198C41.7985 9.58761 41.7203 9.20115 41.561 8.76261L41.8703 5.45479C42.7558 5.96209 43.3917 6.68552 43.7782 7.62511C44.4953 9.36729 44.2516 10.9454 44.1907 12.9735C44.1902 12.998 44.1979 13.0219 44.2127 13.0415C44.2274 13.061 44.2483 13.0751 44.2719 13.0814C45.7011 13.4501 46.6667 14.2913 47.1688 15.6048C47.4094 16.236 47.4235 17.022 47.5063 17.7173C47.5091 17.7409 47.5183 17.7634 47.5328 17.7823C47.5474 17.8013 47.5668 17.8161 47.5891 17.8251L48.6453 18.2298Z" fill="white"/>
<path d="M57.9688 64.0314L58.1625 60.5798C58.9953 61.4751 59.8485 62.5798 60.925 63.1673C62.8953 64.2439 64.3828 61.7485 62.8078 60.2798C61.312 58.8871 60.3417 57.9881 59.8969 57.5829C59.0516 56.8126 58.6063 56.2439 59.3516 55.2829C59.5688 55.0017 59.8891 54.8157 60.0485 54.4392C60.2995 53.8444 60.1828 53.2579 59.6985 52.6798C59.8537 50.8735 59.8506 49.0215 59.6891 47.1235C60.7172 44.2965 61.1016 41.4241 60.8422 38.5064C60.6756 36.6366 60.2823 34.7668 59.6625 32.897C59.8719 31.0157 59.8698 29.1428 59.6563 27.2782C60.2969 26.5886 60.3469 25.8657 59.8063 25.1095C59.6125 24.8376 59.3266 24.7517 59.161 24.4282C58.8735 23.8636 58.9636 23.3548 59.4313 22.9017C59.9229 22.4256 60.7969 21.611 62.0532 20.4579C62.8016 19.772 63.3907 19.022 63.3813 18.1298C63.374 17.484 63.1391 17.034 62.6766 16.7798C61.8162 16.3079 61.0448 16.4204 60.3625 17.1173C60.1302 17.3548 59.8896 17.6032 59.6407 17.8626C59.725 16.7699 59.6964 15.6532 59.5547 14.5126C60.5328 14.0511 61.5016 13.9027 62.461 14.0673C63.3506 14.2194 64.1037 14.6147 64.7203 15.2532C65.8943 16.4709 66.2058 17.8985 65.6547 19.536C65.0422 21.3532 63.5047 22.5329 62.0391 23.8751C62.0281 23.8846 62.0208 23.8978 62.0186 23.9123C62.0163 23.9269 62.0191 23.9419 62.0266 23.9548C62.7901 25.2235 62.8881 26.5064 62.3203 27.8032C62.0344 28.4564 61.3844 29.0751 61.05 29.572C61.0419 29.5844 61.0369 29.5987 61.0355 29.6134C61.0342 29.6281 61.0365 29.6429 61.0422 29.6564L62.1969 32.4267C62.2031 32.4405 62.2127 32.4525 62.2247 32.4615C62.2368 32.4705 62.2509 32.4763 62.2657 32.4782C62.9172 32.5642 63.761 32.5751 64.3813 32.8157C65.7146 33.3314 66.561 34.3173 66.9203 35.7735C66.9251 35.7938 66.9367 35.8117 66.9533 35.8243C66.9698 35.8368 66.9902 35.8432 67.011 35.8423C67.1412 35.836 68.0203 35.7928 69.6485 35.7126C71.3078 35.6314 72.9297 35.8689 74.0032 37.2845C74.711 38.2189 75.0969 39.3032 74.9719 40.4595C74.6735 43.211 71.9735 44.3548 69.5297 44.2814C68.512 44.2511 67.674 44.2194 67.0157 44.186C66.9904 44.1848 66.9656 44.1923 66.9454 44.2071C66.9252 44.2219 66.9108 44.2432 66.9047 44.2673C66.5297 45.7246 65.6636 46.7001 64.3063 47.1939C63.6985 47.4157 62.9453 47.4251 62.2657 47.5126C62.2499 47.5149 62.2351 47.5212 62.2225 47.5308C62.2099 47.5403 62.2 47.5529 62.1938 47.5673L61.036 50.3407C61.0308 50.353 61.0291 50.3666 61.031 50.3801C61.0329 50.3935 61.0384 50.4064 61.0469 50.4173C61.4396 50.909 61.6537 51.1761 61.6891 51.2189C62.7813 52.5142 62.975 54.1142 62.2453 55.6532C62.1891 55.7704 62.0657 55.9048 62.0203 56.0314C62.0111 56.0562 62.0096 56.0834 62.016 56.1093C62.0224 56.1352 62.0364 56.1586 62.0563 56.1767C63.7125 57.7006 64.6438 58.5709 64.85 58.7876C66.7641 60.7954 66.1532 64.122 63.8016 65.4282C61.8141 66.5329 59.4703 65.6095 57.9688 64.0314ZM63.7938 44.6689C63.9576 44.5825 64.1004 44.4613 64.2122 44.3139C64.3239 44.1665 64.4019 43.9965 64.4407 43.8157C64.4511 43.7772 64.4703 43.5043 64.4985 42.997C64.5297 42.4251 64.7381 42.0235 65.1235 41.7923C65.3391 41.6631 65.7985 41.6183 66.5016 41.6579C67.8453 41.7308 68.9641 41.7715 69.8578 41.7798C71.0172 41.7907 72.7453 41.1892 72.4563 39.7579C72.2407 38.7038 71.5719 38.1866 70.45 38.2064C70.4032 38.2074 68.8938 38.2631 65.9219 38.3735C65.0698 38.4058 64.5943 37.9761 64.4953 37.0845C64.4688 36.8532 64.5078 36.4595 64.436 36.1564C64.3089 35.6199 63.8808 35.2517 63.1516 35.0517C63.1245 35.0442 63.096 35.0437 63.0687 35.0503C63.0414 35.0569 63.0162 35.0703 62.9957 35.0893C62.9751 35.1083 62.9599 35.1322 62.9513 35.1587C62.9428 35.1852 62.9413 35.2135 62.9469 35.2407C63.5979 38.4407 63.6011 41.561 62.9563 44.6017C62.9457 44.6528 62.9499 44.7059 62.9684 44.7547C62.9869 44.8036 63.0189 44.8461 63.0607 44.8774C63.1025 44.9087 63.1524 44.9275 63.2044 44.9315C63.2565 44.9355 63.3086 44.9246 63.3547 44.9001L63.7938 44.6689Z" fill="white"/>
<path d="M24.2969 17.761L24.2657 20.9032C23.461 21.1579 22.9391 20.6782 22.4891 20.1485C21.737 19.2663 20.9568 18.4319 20.1485 17.6454C19.7724 17.2798 19.3698 16.9871 18.9407 16.7673C17.486 16.0204 16.0375 17.572 16.6469 19.0314C16.7344 19.2407 16.9594 19.5116 17.3219 19.8439C18.0136 20.4782 19.0844 21.472 20.5344 22.8251C21.0365 23.2939 21.1323 23.8256 20.8219 24.4204C20.65 24.7517 20.2828 25.0407 20.0875 25.2782C20.0481 25.327 20.0145 25.3805 19.9875 25.4376C19.6834 26.0949 19.7688 26.6886 20.2438 27.2189C20.2513 27.2273 20.2606 27.2339 20.271 27.2383C20.2814 27.2426 20.2926 27.2446 20.3039 27.244C20.3151 27.2434 20.3261 27.2402 20.336 27.2348C20.3459 27.2294 20.3544 27.2218 20.361 27.2126L20.4907 27.0298L20.936 31.2892C19.9026 33.7538 19.2891 36.3189 19.0953 38.9845C18.7172 44.1923 20.6438 49.4657 23.936 53.4298C23.712 53.7381 23.6021 54.1131 23.6063 54.5548C23.6104 54.9933 23.5912 55.6954 23.5485 56.661C22.3537 55.4756 21.2927 54.1819 20.3657 52.7798C20.3598 52.7712 20.3521 52.764 20.3431 52.7588C20.3341 52.7536 20.324 52.7505 20.3136 52.7497C20.3033 52.7489 20.2929 52.7506 20.2832 52.7544C20.2735 52.7583 20.2649 52.7643 20.2578 52.772C19.5391 53.5517 19.6891 54.422 20.4688 55.0735C21.0922 55.5954 21.1125 56.5907 20.525 57.1298C19.3042 58.2485 18.2839 59.2043 17.4641 59.997C16.6735 60.761 16.0407 62.5751 17.3563 63.236C17.9052 63.5121 18.4334 63.5595 18.9407 63.3782C19.1844 63.2918 19.5881 62.9423 20.1516 62.3298C20.5506 61.8954 20.9537 61.4636 21.361 61.0345L21.6844 64.3407C19.6735 66.7798 15.7782 66.4673 14.4235 63.536C13.4953 61.5282 14.5297 59.2439 16.1016 57.8189C16.7912 57.1928 17.3974 56.6277 17.9203 56.1235C17.937 56.1076 17.9478 56.0865 17.951 56.0637C17.9541 56.041 17.9494 56.018 17.9375 55.9986C17.1844 54.7225 17.099 53.4392 17.6813 52.1485C17.9594 51.5329 18.5328 50.9642 18.9328 50.422C18.9424 50.4085 18.9484 50.3929 18.9503 50.3765C18.9522 50.3601 18.95 50.3435 18.9438 50.3282L17.7907 47.5626C17.7839 47.5469 17.7733 47.5333 17.7598 47.5231C17.7464 47.513 17.7306 47.5066 17.7141 47.5048C17.1495 47.4381 16.7964 47.3985 16.6547 47.386C15.0547 47.2454 13.825 46.2907 13.236 44.8017C13.1766 44.6501 13.1407 44.4079 13.0766 44.236C13.0653 44.2067 13.0448 44.1817 13.0181 44.1649C12.9914 44.148 12.9598 44.1401 12.9282 44.1423C12.4146 44.185 11.2844 44.2277 9.53753 44.2704C4.94534 44.3814 3.11097 38.3126 7.48284 36.2642C9.20159 35.4579 11.0266 35.7439 12.9703 35.797C12.9957 35.7978 13.0205 35.79 13.0407 35.775C13.0609 35.7599 13.0752 35.7384 13.0813 35.7142C13.4479 34.2923 14.2823 33.3303 15.5844 32.8282C16.2219 32.5814 17.0297 32.5595 17.7328 32.4798C17.7434 32.4784 17.7534 32.4742 17.7619 32.4676C17.7704 32.461 17.7771 32.4523 17.7813 32.4423L18.9438 29.6579C18.9504 29.6423 18.9529 29.6253 18.951 29.6086C18.9491 29.5919 18.9428 29.576 18.9328 29.5626C18.5797 29.0845 17.9703 28.4657 17.6969 27.8735C17.0917 26.5579 17.1797 25.2512 17.961 23.9532C17.9733 23.9323 17.9782 23.9078 17.9748 23.8839C17.9713 23.8601 17.9599 23.8382 17.9422 23.822C16.7443 22.7178 15.8407 21.8762 15.2313 21.297C14.8844 20.9657 14.5172 20.4032 14.3453 19.9735C13.5672 18.0251 14.1719 15.886 15.9 14.7251C17.7625 13.4751 20.0578 14.1595 21.6563 15.6095C22.0782 15.9928 22.8006 16.7569 23.8235 17.9017C23.8403 17.9209 23.8622 17.9349 23.8865 17.9421C23.9109 17.9493 23.9367 17.9493 23.961 17.9423C24.0766 17.91 24.1886 17.8496 24.2969 17.761ZM16.1922 35.3079C16.0283 35.3945 15.8854 35.516 15.7737 35.6636C15.6619 35.8113 15.5839 35.9816 15.5453 36.1626C15.5349 36.2011 15.5157 36.4746 15.4875 36.9829C15.4563 37.5548 15.2479 37.9569 14.8625 38.1892C14.6469 38.3183 14.187 38.3636 13.4828 38.3251C12.137 38.2522 11.0167 38.2116 10.1219 38.2032C8.95941 38.1939 7.22972 38.797 7.52034 40.2298C7.73597 41.286 8.40576 41.8038 9.52972 41.7829C9.57659 41.7819 11.0881 41.7251 14.0641 41.6126C14.9172 41.5803 15.3938 42.0105 15.4938 42.9032C15.5203 43.1345 15.4813 43.5298 15.5532 43.8329C15.6813 44.3704 16.1104 44.7392 16.8407 44.9392C16.8677 44.9467 16.8962 44.9471 16.9235 44.9405C16.9507 44.9338 16.9758 44.9203 16.9964 44.9011C17.0169 44.882 17.0322 44.858 17.0408 44.8312C17.0493 44.8045 17.0509 44.7761 17.0453 44.7485C16.3922 41.5444 16.3875 38.4199 17.0313 35.3751C17.0422 35.3239 17.0383 35.2705 17.0199 35.2215C17.0016 35.1724 16.9696 35.1295 16.9278 35.098C16.8859 35.0665 16.8359 35.0476 16.7836 35.0435C16.7314 35.0395 16.6791 35.0504 16.6328 35.0751L16.1922 35.3079Z" fill="white"/>
<path d="M59.5547 14.5126C59.6964 15.6532 59.725 16.7699 59.6407 17.8626C58.8292 18.7418 58.0032 19.6282 57.1625 20.522C56.6979 21.0157 56.1792 21.1272 55.6063 20.8564C55.3188 20.7204 55.1953 20.4845 55.0266 20.3189C54.4141 19.7189 53.4172 19.6157 52.7657 20.2704C52.759 20.2772 52.754 20.2854 52.7509 20.2943C52.7479 20.3033 52.7468 20.3128 52.7478 20.3222C52.7489 20.3316 52.752 20.3407 52.757 20.3488C52.762 20.3568 52.7687 20.3637 52.7766 20.3689C55.5422 22.1834 57.8354 24.4866 59.6563 27.2782C59.8698 29.1428 59.8719 31.0157 59.6625 32.897C57.6542 27.1866 53.8756 23.1444 48.3266 20.7704L48.6453 18.2298L50.3 18.9673C50.3166 18.9744 50.3346 18.977 50.3522 18.9748C50.3698 18.9726 50.3863 18.9657 50.4 18.9548C50.975 18.4985 51.5532 17.947 52.1313 17.6876C53.4511 17.0928 54.7511 17.184 56.0313 17.961C56.0496 17.9724 56.0715 17.9768 56.093 17.9733C56.1144 17.9699 56.1341 17.9589 56.1485 17.9423C57.211 16.7204 58.3464 15.5772 59.5547 14.5126Z" fill="white"/>
<path d="M31.7532 18.072L31.4485 20.8689C26.587 22.9814 23.0828 26.4548 20.936 31.2892L20.4907 27.0298C22.274 24.3642 24.5078 22.1485 27.1922 20.3829C27.2008 20.3776 27.2081 20.3705 27.2136 20.362C27.2191 20.3536 27.2227 20.344 27.2242 20.3339C27.2257 20.3238 27.225 20.3135 27.2222 20.3036C27.2193 20.2938 27.2145 20.2846 27.2078 20.2767C26.7188 19.7032 25.886 19.7189 25.2891 20.0626C24.9453 20.261 24.7219 20.6939 24.2657 20.9032L24.2969 17.761C25.4438 17.1985 26.5797 17.1538 27.7047 17.6267C28.4125 17.9251 28.9688 18.4704 29.5672 18.9376C29.5884 18.9542 29.6137 18.9647 29.6404 18.968C29.6671 18.9713 29.6942 18.9673 29.7188 18.9564L31.7532 18.072Z" fill="white"/>
<path d="M41.2532 22.661C41.0584 23.509 41.0469 24.3548 41.2188 25.1985C40.4302 25.1204 39.6443 25.1194 38.861 25.1954C38.8382 25.1974 38.817 25.2081 38.8019 25.2253C38.7868 25.2424 38.7788 25.2647 38.7797 25.2876L39.05 32.897C39.0508 32.918 39.0598 32.9379 39.0749 32.9524C39.0901 32.967 39.1103 32.9751 39.1313 32.9751L40.8875 32.9954L40.8344 35.5095C38.9167 35.247 37.4287 35.8345 36.3703 37.272C34.9469 39.2064 35.275 41.8517 37.0219 43.411C37.8125 44.1162 38.8047 44.4991 39.9985 44.5595C39.886 45.3668 39.8896 46.1939 40.0094 47.0407L39.1313 47.0048C39.1208 47.0044 39.1104 47.006 39.1005 47.0096C39.0907 47.0133 39.0817 47.0188 39.074 47.0259C39.0663 47.033 39.0601 47.0416 39.0557 47.0511C39.0513 47.0606 39.0489 47.0709 39.0485 47.0814L38.7578 54.6907C38.757 54.7134 38.765 54.7356 38.7801 54.7525C38.7953 54.7694 38.8164 54.7798 38.8391 54.7814L39.9891 54.847C40.1693 55.6501 40.2787 56.4741 40.3172 57.3189C36.5964 57.4032 33.2209 56.3928 30.1907 54.2876L30.3547 51.3251L35.6344 45.6798C35.6424 45.6713 35.6468 45.66 35.6468 45.6482C35.6468 45.6363 35.6424 45.6248 35.6344 45.6157L34.4375 44.3251C34.4246 44.3113 34.4068 44.303 34.388 44.3022C34.3693 44.3013 34.3512 44.3078 34.3375 44.3204L30.3532 48.0095L29.95 44.9767L31.4688 43.5673C31.4759 43.5607 31.4808 43.5522 31.4828 43.5427C31.4848 43.5333 31.4839 43.5235 31.4802 43.5146C31.4764 43.5057 31.47 43.4982 31.4618 43.4931C31.4536 43.488 31.444 43.4855 31.4344 43.486L30.2016 43.5314C30.1735 42.548 30.3323 41.71 30.6782 41.0173L32.9188 40.9267C32.9298 40.9261 32.9406 40.9233 32.9505 40.9184C32.9604 40.9135 32.9692 40.9066 32.9762 40.8983C32.9833 40.8899 32.9885 40.8802 32.9915 40.8697C32.9945 40.8593 32.9953 40.8483 32.9938 40.8376C32.9209 40.273 32.9219 39.709 32.9969 39.1454C32.9982 39.1342 32.9972 39.1229 32.994 39.1121C32.9908 39.1014 32.9854 39.0914 32.9782 39.0829C32.971 39.0744 32.9622 39.0675 32.9522 39.0626C32.9422 39.0578 32.9314 39.0551 32.9203 39.0548L30.2313 38.947C30.3282 38.1022 30.525 37.2777 30.8219 36.4735L31.4219 36.4782C31.4288 36.4782 31.4355 36.4761 31.4412 36.4722C31.4468 36.4684 31.4512 36.4629 31.4537 36.4565C31.4562 36.4501 31.4568 36.4431 31.4553 36.4364C31.4538 36.4297 31.4503 36.4236 31.4453 36.4189L29.5328 34.6126L29.6125 31.2689L34.35 35.6782C34.3549 35.6824 34.3611 35.6846 34.3675 35.6843C34.3739 35.684 34.38 35.6813 34.3844 35.6767L35.6282 34.4064C35.6432 34.3906 35.6517 34.3698 35.652 34.3481C35.6523 34.3263 35.6443 34.3053 35.6297 34.2892L30.45 28.7048C30.4392 28.6928 30.4241 28.6856 30.408 28.6847C30.3919 28.6838 30.3761 28.6894 30.3641 28.7001L29.5782 29.4142L29.561 26.1876C29.7328 26.0668 29.9136 25.9407 30.1032 25.8095C33.4313 23.4991 37.1479 22.4496 41.2532 22.661ZM34.325 26.2798C33.7615 26.5121 33.1625 26.81 32.5282 27.1735C32.5219 27.177 32.5165 27.1819 32.5124 27.1878C32.5084 27.1937 32.5057 27.2005 32.5046 27.2076C32.5036 27.2147 32.5042 27.2219 32.5063 27.2287C32.5085 27.2356 32.5122 27.2418 32.5172 27.247C33.2381 28.0345 34.5438 29.4454 36.4344 31.4798C36.4448 31.4902 36.4568 31.4928 36.4703 31.4876C36.4891 31.4793 36.4985 31.4678 36.4985 31.4532C36.4026 28.6782 36.3328 26.7574 36.2891 25.6907C36.2891 25.6835 36.2875 25.6764 36.2843 25.6699C36.2811 25.6634 36.2764 25.6577 36.2707 25.6533C36.2649 25.6489 36.2582 25.6459 36.2511 25.6446C36.244 25.6432 36.2367 25.6435 36.2297 25.6454C35.5235 25.836 34.8886 26.0475 34.325 26.2798ZM34.3078 53.6985C34.8693 53.9319 35.5032 54.1444 36.2094 54.336C36.2163 54.3379 36.2234 54.3383 36.2304 54.337C36.2374 54.3357 36.244 54.3328 36.2497 54.3286C36.2555 54.3244 36.2601 54.3189 36.2634 54.3126C36.2667 54.3064 36.2686 54.2994 36.2688 54.2923C36.3157 53.2256 36.3896 51.3053 36.4907 48.5314C36.4917 48.5168 36.4823 48.5053 36.4625 48.497C36.449 48.4918 36.4375 48.4944 36.4282 48.5048C34.5334 50.534 33.2245 51.9413 32.5016 52.7267C32.4966 52.7318 32.4929 52.7381 32.4907 52.7449C32.4885 52.7517 32.488 52.759 32.489 52.7661C32.4901 52.7732 32.4927 52.7799 32.4968 52.7858C32.5009 52.7917 32.5063 52.7966 32.5125 52.8001C33.1469 53.1647 33.7453 53.4642 34.3078 53.6985Z" fill="white"/>
<path d="M50.9594 26.6314C50.6594 27.4855 50.4287 28.373 50.2672 29.2939L49.6391 28.747C49.622 28.7319 49.5996 28.7242 49.5769 28.7254C49.5541 28.7265 49.5327 28.7365 49.5172 28.7532L44.3094 34.3501C44.3041 34.3559 44.3001 34.3627 44.2977 34.3702C44.2952 34.3776 44.2943 34.3854 44.295 34.3932C44.2958 34.401 44.2981 34.4086 44.3019 34.4154C44.3058 34.4223 44.311 34.4282 44.3172 34.4329C44.7724 34.7829 45.1782 35.1881 45.5344 35.6485C45.5414 35.6576 45.5503 35.6652 45.5604 35.6707C45.5705 35.6762 45.5817 35.6796 45.5933 35.6806C45.6048 35.6816 45.6165 35.6803 45.6276 35.6766C45.6387 35.673 45.649 35.6672 45.6578 35.6595L45.7969 35.5329C45.8407 38.4694 45.7834 41.3886 45.625 44.2907L44.3125 45.5564C44.3008 45.5681 44.294 45.584 44.2937 45.6006C44.2934 45.6172 44.2996 45.6333 44.311 45.6454L46.6375 48.1548L46.3657 51.5329L43.5594 48.5048C43.5535 48.499 43.546 48.495 43.5379 48.4934C43.5297 48.4918 43.5213 48.4926 43.5136 48.4958C43.5059 48.4989 43.4994 48.5043 43.4947 48.5112C43.4901 48.5181 43.4876 48.5262 43.4875 48.5345L43.6922 54.2923C43.6925 54.3006 43.6947 54.3087 43.6987 54.316C43.7027 54.3233 43.7083 54.3295 43.7152 54.3342C43.722 54.3389 43.7299 54.342 43.7381 54.3431C43.7463 54.3442 43.7547 54.3434 43.7625 54.3407L45.8219 53.636L45.8235 56.2595C44.0506 56.9043 42.2151 57.2574 40.3172 57.3189C40.2787 56.4741 40.1693 55.6501 39.9891 54.847L41.1282 54.7876C41.1503 54.7864 41.171 54.7765 41.1859 54.7602C41.2008 54.7438 41.2087 54.7222 41.2078 54.7001L40.936 47.0845C40.9358 47.0737 40.9334 47.063 40.929 47.0531C40.9247 47.0433 40.9184 47.0343 40.9105 47.0269C40.9027 47.0195 40.8934 47.0137 40.8833 47.0099C40.8732 47.0061 40.8624 47.0044 40.8516 47.0048L40.0094 47.0407C39.8896 46.1939 39.886 45.3668 39.9985 44.5595C41.2599 44.4928 42.2933 44.0678 43.0985 43.2845C45.7907 40.6642 44.4235 36.3157 40.8344 35.5095L40.8875 32.9954L41.2188 25.1985C41.0469 24.3548 41.0584 23.509 41.2532 22.661C44.8938 22.9715 48.1292 24.2949 50.9594 26.6314ZM45.6813 26.2876C45.1177 26.0543 44.4823 25.8413 43.775 25.6485C43.7682 25.6466 43.761 25.6463 43.754 25.6476C43.747 25.6489 43.7404 25.6518 43.7347 25.656C43.729 25.6602 43.7243 25.6657 43.721 25.6719C43.7177 25.6782 43.7159 25.6852 43.7157 25.6923C43.6688 26.761 43.5943 28.6845 43.4922 31.4626C43.4922 31.4772 43.5016 31.4886 43.5203 31.497C43.5339 31.5022 43.5459 31.4996 43.5563 31.4892C45.4542 29.4569 46.7651 28.0475 47.4891 27.261C47.4941 27.2559 47.4978 27.2496 47.5 27.2428C47.5022 27.236 47.5027 27.2287 47.5017 27.2216C47.5006 27.2145 47.498 27.2078 47.4939 27.2019C47.4898 27.196 47.4844 27.1911 47.4782 27.1876C46.8427 26.822 46.2438 26.522 45.6813 26.2876Z" fill="white"/>
<path d="M29.561 26.1876L29.5782 29.4142L28.7141 30.3485C28.7028 30.3611 28.6968 30.3775 28.6973 30.3942C28.6979 30.4109 28.7051 30.4265 28.7172 30.4376L29.6125 31.2689L29.5328 34.6126L27.275 32.5032C27.2685 32.4974 27.2607 32.4931 27.2523 32.4906C27.2439 32.4881 27.2351 32.4875 27.2264 32.4889C27.2177 32.4902 27.2095 32.4935 27.2022 32.4984C27.195 32.5033 27.1889 32.5097 27.1844 32.5173C26.5032 33.6756 25.9922 34.9043 25.6516 36.2032C25.6492 36.2116 25.6489 36.2204 25.6505 36.2289C25.6521 36.2375 25.6557 36.2456 25.6609 36.2526C25.6662 36.2597 25.673 36.2655 25.6808 36.2697C25.6887 36.2738 25.6974 36.2762 25.7063 36.2767L30.8219 36.4735C30.525 37.2777 30.3282 38.1022 30.2313 38.947L25.3078 38.7657C25.2943 38.7653 25.2808 38.7675 25.2681 38.7722C25.2554 38.777 25.2438 38.7841 25.234 38.7932C25.2241 38.8024 25.2162 38.8134 25.2106 38.8255C25.2051 38.8377 25.202 38.8508 25.2016 38.8642L25.1157 41.0907C25.115 41.1067 25.1177 41.1226 25.1235 41.1375C25.1293 41.1524 25.1381 41.166 25.1494 41.1773C25.1607 41.1886 25.1743 41.1974 25.1892 41.2032C25.2041 41.209 25.22 41.2117 25.236 41.211L30.6782 41.0173C30.3323 41.71 30.1735 42.548 30.2016 43.5314L25.6969 43.6923C25.6888 43.6925 25.6809 43.6946 25.6738 43.6982C25.6666 43.7019 25.6604 43.7071 25.6555 43.7134C25.6507 43.7197 25.6474 43.727 25.6459 43.7347C25.6444 43.7424 25.6448 43.7504 25.6469 43.7579C25.9865 45.0631 26.4969 46.298 27.1782 47.4626C27.1821 47.4692 27.1875 47.4749 27.194 47.4791C27.2004 47.4834 27.2077 47.4861 27.2154 47.4872C27.223 47.4882 27.2308 47.4876 27.2382 47.4852C27.2455 47.4828 27.2522 47.4789 27.2578 47.4735L29.95 44.9767L30.3532 48.0095L28.6985 49.5407C28.6932 49.5457 28.6889 49.5517 28.686 49.5584C28.683 49.565 28.6814 49.5722 28.6813 49.5795C28.6811 49.5867 28.6824 49.594 28.6851 49.6007C28.6878 49.6075 28.6918 49.6137 28.6969 49.6189L30.3547 51.3251L30.1907 54.2876C23.8547 49.8267 21.1547 41.8673 23.5766 34.5548C24.687 31.1996 26.6818 28.4105 29.561 26.1876Z" fill="white"/>
<path d="M50.9594 26.6314C55.5078 30.4189 57.9016 36.036 57.2407 41.8907C56.4969 48.4845 52.1235 54.022 45.8235 56.2595L45.8219 53.636L47.4485 52.8189C47.4571 52.8148 47.4646 52.8088 47.4703 52.8013C47.4761 52.7938 47.48 52.785 47.4817 52.7756C47.4834 52.7663 47.4828 52.7567 47.48 52.7476C47.4772 52.7386 47.4723 52.7303 47.4657 52.7235L46.3657 51.5329L46.6375 48.1548L49.5282 51.2735C49.5394 51.2854 49.5549 51.2924 49.5713 51.293C49.5876 51.2936 49.6036 51.2877 49.6157 51.2767L51.2875 49.7267C51.2987 49.7163 51.3076 49.7037 51.3137 49.6897C51.3198 49.6758 51.3229 49.6607 51.3229 49.6454C51.3229 49.6302 51.3198 49.6151 51.3137 49.6011C51.3076 49.5871 51.2987 49.5746 51.2875 49.5642L45.625 44.2907C45.7834 41.3886 45.8407 38.4694 45.7969 35.5329L51.2453 30.4735C51.261 30.459 51.2702 30.4388 51.2711 30.4175C51.272 30.3961 51.2644 30.3753 51.25 30.3595L50.2672 29.2939C50.4287 28.373 50.6594 27.4855 50.9594 26.6314ZM53.7063 34.3251C53.474 33.7616 53.1761 33.1621 52.8125 32.5267C52.809 32.5204 52.8041 32.515 52.7982 32.511C52.7924 32.5069 52.7856 32.5042 52.7785 32.5031C52.7714 32.5021 52.7642 32.5027 52.7573 32.5049C52.7505 32.507 52.7443 32.5108 52.7391 32.5157C51.9506 33.2376 50.5386 34.5444 48.5032 36.436C48.4917 36.4454 48.4891 36.4569 48.4953 36.4704C48.5026 36.4902 48.5136 36.4996 48.5282 36.4985C51.3063 36.4038 53.2292 36.3345 54.2969 36.2907C54.304 36.2905 54.311 36.2887 54.3173 36.2854C54.3235 36.2821 54.329 36.2774 54.3332 36.2717C54.3374 36.266 54.3403 36.2594 54.3416 36.2524C54.3429 36.2454 54.3426 36.2382 54.3407 36.2314C54.15 35.5241 53.9386 34.8886 53.7063 34.3251ZM54.8782 38.8267C54.8784 38.8195 54.8771 38.8124 54.8744 38.8057C54.8717 38.799 54.8677 38.793 54.8625 38.788C54.8574 38.783 54.8513 38.7792 54.8445 38.7767C54.8378 38.7742 54.8306 38.7731 54.8235 38.7735L47.1157 39.0485C47.1025 39.0489 47.09 39.0543 47.0807 39.0636C47.0714 39.0729 47.066 39.0854 47.0657 39.0985L46.9969 40.8829C46.9967 40.8897 46.9978 40.8964 47.0002 40.9028C47.0026 40.9091 47.0063 40.9149 47.0109 40.9198C47.0155 40.9248 47.0211 40.9287 47.0273 40.9315C47.0335 40.9343 47.0401 40.9358 47.0469 40.936L54.7344 41.2314C54.7412 41.2316 54.7479 41.2304 54.7543 41.228C54.7606 41.2256 54.7664 41.222 54.7713 41.2174C54.7763 41.2127 54.7802 41.2072 54.783 41.201C54.7858 41.1948 54.7873 41.1881 54.7875 41.1814L54.8782 38.8267ZM53.6985 45.6782C53.9328 45.1157 54.1459 44.4814 54.3375 43.7751C54.3395 43.7681 54.3397 43.7608 54.3384 43.7537C54.337 43.7466 54.334 43.7399 54.3296 43.7342C54.3252 43.7284 54.3196 43.7238 54.3131 43.7206C54.3066 43.7174 54.2995 43.7157 54.2922 43.7157C53.2256 43.6689 51.3042 43.5954 48.5282 43.4954C48.5136 43.4954 48.5021 43.5048 48.4938 43.5235C48.4886 43.5371 48.4912 43.5485 48.5016 43.5579C50.5328 45.4527 51.9417 46.7616 52.7282 47.4845C52.7332 47.4895 52.7394 47.4933 52.7461 47.4956C52.7529 47.4979 52.7601 47.4987 52.7672 47.4978C52.7743 47.4969 52.781 47.4944 52.787 47.4904C52.793 47.4865 52.798 47.4813 52.8016 47.4751C53.1662 46.8397 53.4651 46.2407 53.6985 45.6782Z" fill="white"/>
<path d="M59.6985 52.6798C57.8422 55.486 55.5344 57.8001 52.775 59.622C52.7658 59.6282 52.7581 59.6365 52.7524 59.646C52.7468 59.6556 52.7434 59.6663 52.7425 59.6773C52.7416 59.6883 52.7432 59.6993 52.7472 59.7095C52.7512 59.7197 52.7575 59.7287 52.7657 59.736C53.3573 60.2704 54.0063 60.3241 54.7125 59.897C54.756 59.8701 54.795 59.8363 54.8282 59.797L55.1953 59.361C55.2005 59.3538 55.2069 59.3475 55.2141 59.3423C55.8891 58.8631 56.5209 58.9131 57.1094 59.4923C57.474 59.8517 57.825 60.2142 58.1625 60.5798L57.9688 64.0314L56.1328 62.0595C56.117 62.0423 56.0955 62.0313 56.0722 62.0281C56.0488 62.025 56.025 62.03 56.0047 62.0423C54.7235 62.8069 53.4219 62.8871 52.1 62.2829C51.5422 62.0298 50.9657 61.4798 50.4235 61.0517C50.4036 61.0361 50.3799 61.0263 50.3551 61.0233C50.3303 61.0202 50.3053 61.0241 50.2828 61.0345L49.811 61.2548L49.5641 58.6251C54.3922 56.0564 57.7672 52.2225 59.6891 47.1235C59.8506 49.0215 59.8537 50.8735 59.6985 52.6798Z" fill="white"/>
<path d="M23.936 53.4298C25.8141 55.659 28.0547 57.4288 30.6578 58.7392C30.2563 59.5017 30.2578 60.4126 30.1625 61.2485L29.6891 61.0392C29.6684 61.0297 29.6454 61.0262 29.6225 61.0289C29.5997 61.0317 29.5779 61.0406 29.5594 61.0548C29.0266 61.4704 28.4813 61.9923 27.9047 62.272C26.561 62.9235 25.2407 62.7657 23.9657 62.0282C23.9416 62.0146 23.9137 62.0093 23.8865 62.0133C23.8593 62.0172 23.8344 62.0302 23.8157 62.0501L21.6844 64.3407L21.361 61.0345C21.8453 60.5011 22.3344 59.9668 22.8282 59.4314C23.2407 58.9855 23.7438 58.8725 24.3375 59.0923C24.449 59.1329 24.7172 59.3657 25.1422 59.7907C25.1775 59.826 25.2168 59.8575 25.2594 59.8845C25.974 60.3397 26.6245 60.2871 27.211 59.7267C27.2188 59.7192 27.2249 59.7099 27.2287 59.6997C27.2325 59.6895 27.2339 59.6786 27.2328 59.6678C27.2318 59.6569 27.2283 59.6465 27.2226 59.6372C27.2169 59.6279 27.2092 59.62 27.2 59.6142C25.8802 58.7402 24.6631 57.7558 23.5485 56.661C23.5912 55.6954 23.6104 54.9933 23.6063 54.5548C23.6021 54.1131 23.712 53.7381 23.936 53.4298Z" fill="white"/>
<path d="M49.5641 58.6251L49.811 61.2548L47.6 62.1517C47.5767 62.1617 47.5562 62.1774 47.5406 62.1973C47.525 62.2173 47.5148 62.2408 47.511 62.2657C47.4297 62.8532 47.4157 63.597 47.2641 64.0892C46.8058 65.5767 45.7953 66.5194 44.2328 66.9173C44.2093 66.923 44.1885 66.9368 44.1737 66.9564C44.1589 66.976 44.1511 67.0002 44.1516 67.0251C44.2188 69.9798 45.036 73.4189 41.3516 74.7376C41.5391 73.7636 41.548 72.7965 41.3782 71.836C41.6636 71.4663 41.7974 71.0235 41.7797 70.5079C41.7058 68.2704 41.6563 66.9652 41.6313 66.5923C41.5802 65.8308 41.6224 65.3491 41.7578 65.147C42.0443 64.7157 42.4599 64.4959 43.0047 64.4876C43.4808 64.4814 43.7771 64.4595 43.8938 64.422C44.2428 64.3087 44.5348 64.0653 44.7094 63.7423L44.8985 63.3892C44.9244 63.3403 44.9358 63.285 44.9315 63.2298C44.9272 63.1746 44.9073 63.1218 44.8742 63.0776C44.841 63.0335 44.796 62.9998 44.7444 62.9805C44.6927 62.9612 44.6367 62.9572 44.5828 62.9689C43.4506 63.2136 42.2094 63.3626 40.8594 63.4157C40.6052 62.6001 40.5407 61.7715 40.6657 60.9298C43.799 60.8152 46.7651 60.047 49.5641 58.6251Z" fill="white"/>
<path d="M30.6578 58.7392C33.7964 60.2933 37.1323 61.0235 40.6657 60.9298C40.5407 61.7715 40.6052 62.6001 40.8594 63.4157C38.9313 63.4918 37.0282 63.3256 35.15 62.9173C35.1396 62.9148 35.1287 62.9149 35.1182 62.9175C35.1077 62.9201 35.098 62.9252 35.0898 62.9323C35.0816 62.9395 35.0751 62.9485 35.0709 62.9586C35.0667 62.9688 35.0649 62.9798 35.0657 62.9907C35.1177 63.7699 35.5141 64.2595 36.2547 64.4595C36.3076 64.474 36.3628 64.4813 36.4188 64.4814C37.1422 64.4798 37.8407 64.4892 38.2172 65.1829C38.3308 65.3923 38.3651 65.8491 38.3203 66.5532C38.261 67.5001 38.2235 68.6616 38.2078 70.0376C38.1995 70.7803 38.4026 71.397 38.8172 71.8876C39.5657 72.772 40.6407 72.6204 41.3782 71.836C41.548 72.7965 41.5391 73.7636 41.3516 74.7376C40.3703 75.1064 39.4047 75.0959 38.4547 74.7064C36.4157 73.8689 35.6516 71.6517 35.7157 69.4907C35.725 69.1637 35.749 68.334 35.7875 67.0017C35.7879 66.9794 35.7807 66.9577 35.7671 66.9398C35.7535 66.922 35.7343 66.9091 35.7125 66.9032C34.3146 66.5449 33.3568 65.7246 32.8391 64.4423C32.5766 63.7892 32.5782 63.0532 32.4782 62.2657C32.4748 62.2415 32.4651 62.2185 32.45 62.199C32.435 62.1796 32.415 62.1643 32.3922 62.1548L30.1625 61.2485C30.2578 60.4126 30.2563 59.5017 30.6578 58.7392Z" fill="white"/>
</svg>
