<svg width="80" height="80" viewBox="0 0 80 80" fill="none" xmlns="http://www.w3.org/2000/svg">
<path d="M32.6124 8.86411L34.7718 11.1985C34.1827 11.5329 33.5515 11.8594 33.0718 11.5766C31.9426 10.9099 30.7676 10.4073 29.5468 10.0688C28.9515 9.90317 28.6437 9.73442 28.4577 9.15942C28.3983 8.97713 28.0603 7.94067 27.4437 6.05005C27.4386 6.03532 27.4291 6.02249 27.4166 6.01328C27.404 6.00407 27.3889 5.99891 27.3733 5.99849L23.9265 5.97505L22.403 4.0563C22.5999 3.88963 22.7869 3.8063 22.964 3.8063C24.6796 3.80213 26.3999 3.80005 28.1249 3.80005C28.7155 3.80005 29.1015 4.07505 29.2827 4.62505C29.6494 5.73547 30.0103 6.84224 30.3655 7.94536C30.3734 7.96839 30.3861 7.98942 30.4028 8.00696C30.4196 8.0245 30.4399 8.03814 30.4624 8.04692L32.6124 8.86411Z" fill="white"/>
<path d="M22.403 4.0563L23.9265 5.97505C23.5275 7.09067 23.1489 8.21463 22.7905 9.34692C22.6832 9.68651 22.4035 9.90786 21.9515 10.011L20.1655 8.27505L20.8437 8.04692C20.8665 8.03913 20.8873 8.02604 20.9044 8.00869C20.9214 7.99135 20.9344 7.97021 20.9421 7.94692C21.314 6.81359 21.6843 5.68234 22.053 4.55317C22.1239 4.33755 22.2405 4.17192 22.403 4.0563Z" fill="white"/>
<path d="M20.1655 8.27505L21.9515 10.011C20.7983 10.3308 19.5728 10.8464 18.2749 11.5579C17.9405 11.7402 17.5588 11.7209 17.1296 11.5C16.1744 11.0084 15.2181 10.5214 14.2608 10.0391C14.2427 10.03 14.222 10.0269 14.2019 10.0303C14.1817 10.0337 14.163 10.0433 14.1483 10.0579L12.4483 11.7594L10.9233 10.1844C11.6629 9.44067 12.402 8.69484 13.1405 7.94692C13.5416 7.54067 13.9921 7.46047 14.4921 7.7063C15.5629 8.23234 16.6192 8.76776 17.6608 9.31255C17.6842 9.32503 17.7105 9.33142 17.7372 9.33115C17.764 9.33088 17.7903 9.32395 17.814 9.31099C18.5671 8.89849 19.3509 8.55317 20.1655 8.27505Z" fill="white"/>
<path d="M40.2874 15.9594L38.653 14.411L39.5937 12.5641C39.6009 12.5498 39.6035 12.5336 39.601 12.5176C39.5985 12.5016 39.591 12.4867 39.5796 12.475L37.1546 10.0516C37.1423 10.039 37.1264 10.0307 37.1092 10.0279C37.092 10.025 37.0745 10.0279 37.0593 10.036L34.7718 11.1985L32.6124 8.86411L33.5249 9.30474C33.5477 9.31585 33.5729 9.32149 33.5984 9.32122C33.6238 9.32095 33.649 9.31477 33.6718 9.30317C35.678 8.27401 36.739 7.73442 36.8546 7.68442C37.3285 7.48026 37.7468 7.55734 38.1093 7.91567C39.352 9.14276 40.577 10.3667 41.7843 11.5875C41.8102 11.6135 41.8328 11.6424 41.8515 11.6735C42.2562 12.3219 41.964 12.7016 41.5952 13.4454C41.1858 14.2735 40.7499 15.1115 40.2874 15.9594Z" fill="white"/>
<path d="M10.9233 10.1844L12.4483 11.7594L11.7577 12.475C11.7414 12.4919 11.7309 12.5133 11.7275 12.5364C11.7241 12.5594 11.7281 12.5828 11.739 12.6032C12.264 13.6125 12.7765 14.6198 13.2765 15.625C13.4296 15.9334 13.4072 16.2631 13.2093 16.6141C12.7405 17.4464 12.3447 18.3136 12.0218 19.2157L10.2796 17.6204L10.9968 16.1157C11.008 16.0919 11.0135 16.0658 11.013 16.0395C11.0125 16.0132 11.0058 15.9874 10.9937 15.9641C10.4603 14.9214 9.92855 13.8777 9.39834 12.8329C9.16188 12.3672 9.22803 11.9391 9.59678 11.5485C10.0301 11.0881 10.4723 10.6334 10.9233 10.1844Z" fill="white"/>
<path d="M61.4687 17.8454L61.4358 18.7719C61.4354 18.7827 61.4326 18.7932 61.4276 18.8028C61.4227 18.8124 61.4156 18.8208 61.407 18.8275C61.3984 18.8342 61.3885 18.8389 61.3778 18.8415C61.3671 18.844 61.356 18.8443 61.3452 18.8422C60.9187 18.7594 60.4452 18.1704 60.1155 17.8391C59.4749 17.1954 59.2562 16.4766 59.278 15.5875L59.2796 13.1485C59.2796 13.0854 59.2902 13.0225 59.3108 12.9625C59.54 12.3084 59.9869 12.049 60.6515 12.1844C61.3202 12.3219 61.4671 12.8985 61.4687 13.5547C61.4718 14.9849 61.4718 16.4152 61.4687 17.8454Z" fill="white"/>
<path d="M74.4952 30.8985C74.2296 31.3094 73.9796 31.1938 73.6687 30.9157C73.0926 30.4021 72.6405 29.8782 72.3124 29.3438L72.2905 27.7079C72.2901 27.6869 72.2816 27.6668 72.2667 27.652C72.2519 27.6371 72.2318 27.6286 72.2108 27.6282L70.7249 27.6188C69.8541 26.9719 69.0489 26.2573 68.3093 25.475L69.4624 25.4172C69.4835 25.416 69.5034 25.4069 69.5179 25.3918C69.5324 25.3767 69.5405 25.3567 69.5405 25.336C69.5426 18.2985 69.5421 14.2938 69.539 13.3219C69.5343 11.9438 71.4062 11.6954 71.7077 12.986C71.7296 13.0808 71.7405 13.3589 71.7405 13.8204C71.7395 17.7808 71.739 21.6297 71.739 25.3672C71.7389 25.3759 71.7407 25.3845 71.7442 25.3925C71.7477 25.4005 71.7528 25.4077 71.7592 25.4137C71.7657 25.4197 71.7733 25.4243 71.7816 25.4273C71.79 25.4304 71.7988 25.4317 71.8077 25.4313C72.253 25.411 72.8186 25.4 73.2358 25.5704C74.0754 25.9152 74.4978 26.5844 74.503 27.5782C74.5082 28.6907 74.5056 29.7974 74.4952 30.8985Z" fill="white"/>
<path d="M35.9655 18.786C36.6676 19.4641 37.2884 20.1964 37.828 20.9829L31.7452 21.0016L29.9937 18.7844L32.903 18.7813C32.9135 18.7812 32.9237 18.7781 32.9325 18.7725C32.9413 18.7669 32.9484 18.7589 32.9529 18.7495C32.9575 18.7401 32.9593 18.7296 32.9582 18.7192C32.9571 18.7088 32.9532 18.6989 32.9468 18.6907C31.1103 16.3823 28.789 15.1454 25.9827 14.9797L23.9655 12.9125C28.7187 12.2188 33.2327 14.5125 35.5187 18.7063C35.5306 18.7277 35.5477 18.7455 35.5682 18.7581C35.5888 18.7708 35.6121 18.7777 35.6358 18.7782L35.9655 18.786Z" fill="white"/>
<path d="M23.9655 12.9125L25.9827 14.9797C24.015 14.9381 22.2228 15.4553 20.6062 16.5313L18.9827 14.9954C20.4806 13.8891 22.1416 13.1948 23.9655 12.9125Z" fill="white"/>
<path d="M38.653 14.411L40.2874 15.9594L41.4343 18.7079C41.443 18.7291 41.4577 18.7474 41.4767 18.7602C41.4956 18.773 41.5178 18.7798 41.5405 18.7797L45.4499 18.786L48.1655 20.9797L37.828 20.9829C37.2884 20.1964 36.6676 19.4641 35.9655 18.786L39.028 18.775C39.0389 18.7748 39.0495 18.772 39.0591 18.7667C39.0686 18.7615 39.0767 18.754 39.0827 18.7449C39.0886 18.7359 39.0924 18.7255 39.0935 18.7147C39.0946 18.7039 39.093 18.6929 39.089 18.6829C38.8129 17.987 38.465 17.2704 38.0452 16.5329C37.7015 15.9313 38.3546 14.95 38.653 14.411Z" fill="white"/>
<path d="M18.9827 14.9954L20.6062 16.5313C18.3218 18.1532 17.0197 20.3615 16.6999 23.1563L14.7827 21.3235C15.4473 18.7245 16.8473 16.6152 18.9827 14.9954Z" fill="white"/>
<path d="M61.4687 17.8454L61.4687 25.3672C61.4687 25.3817 61.4744 25.3957 61.4847 25.4059C61.4949 25.4162 61.5088 25.4219 61.5233 25.4219C61.8874 25.4219 62.4671 25.3954 62.8405 25.5266C63.4051 25.7256 63.8072 26.0672 64.0468 26.5516C64.1739 26.8079 64.2369 27.3766 64.2358 28.2579C64.2348 28.8412 64.2338 29.4245 64.2327 30.0079C63.4275 29.361 62.6963 28.6428 62.039 27.8532L62.0249 27.6266C61.0447 26.9714 60.1306 26.225 59.2827 25.3875L59.278 15.5875C59.2562 16.4766 59.4749 17.1954 60.1155 17.8391C60.4452 18.1704 60.9187 18.7594 61.3452 18.8422C61.356 18.8443 61.3671 18.844 61.3778 18.8415C61.3885 18.8389 61.3984 18.8342 61.407 18.8275C61.4156 18.8208 61.4227 18.8124 61.4276 18.8028C61.4326 18.7932 61.4354 18.7827 61.4358 18.7719L61.4687 17.8454Z" fill="white"/>
<path d="M12.0218 19.2157C11.8843 19.6573 11.7457 20.1006 11.6062 20.5454C11.5134 20.8402 11.2634 21.0516 10.8562 21.1797C9.78011 21.5183 8.72178 21.8594 7.68115 22.2032L7.64834 22.9485C7.64805 22.9538 7.64617 22.9589 7.64294 22.9632C7.6397 22.9674 7.63527 22.9706 7.63022 22.9722C7.62516 22.9739 7.61972 22.9741 7.61459 22.9726C7.60946 22.9712 7.60489 22.9682 7.60147 22.9641C7.14938 22.4277 6.69105 21.8964 6.22646 21.3704C6.07542 21.2006 5.91709 20.9407 5.75147 20.5907L9.62646 19.2594C9.64929 19.2516 9.67001 19.2389 9.68706 19.2221C9.70412 19.2053 9.71706 19.185 9.7249 19.1625L10.2796 17.6204L12.0218 19.2157Z" fill="white"/>
<path d="M29.9937 18.7844L31.7452 21.0016C29.341 20.9131 26.9775 20.9521 24.6546 21.1188C24.1504 20.7282 23.6666 20.1974 23.203 19.5266C23.9541 19.0308 24.8785 18.7818 25.9765 18.7797C27.3265 18.7777 28.6655 18.7792 29.9937 18.7844Z" fill="white"/>
<path d="M54.3546 26.0172C53.5525 25.562 52.8473 24.9813 52.239 24.2751C52.2057 24.2367 52.1869 24.1881 52.1858 24.1376L52.1671 23.0922C52.116 22.2037 51.7572 21.5875 51.0905 21.2438C50.778 21.0823 50.2973 20.9954 49.6483 20.9829C49.1515 20.9735 48.6572 20.9724 48.1655 20.9797L45.4499 18.786C46.8728 18.7745 48.2853 18.7745 49.6874 18.786C50.3395 18.7912 50.8108 18.8287 51.1015 18.8985C52.5187 19.236 53.653 20.3079 54.1358 21.6672C54.2796 22.0745 54.3525 22.7943 54.3546 23.8266C54.3567 24.5568 54.3567 25.287 54.3546 26.0172Z" fill="white"/>
<path d="M23.203 19.5266C23.6666 20.1974 24.1504 20.7282 24.6546 21.1188C23.915 21.6959 23.5457 22.3646 23.5468 23.125C23.5509 25.775 23.5525 28.4318 23.5515 31.0954C22.9129 30.2183 22.1848 29.4204 21.3671 28.7016C21.3629 27.4672 21.3608 26.2313 21.3608 24.9938C21.3608 23.3438 21.4077 22.3365 21.5015 21.9719C21.7515 21.0011 22.3187 20.186 23.203 19.5266Z" fill="white"/>
<path d="M5.75147 20.5907C5.91709 20.9407 6.07542 21.2006 6.22646 21.3704C6.69105 21.8964 7.14938 22.4277 7.60147 22.9641C7.60489 22.9682 7.60946 22.9712 7.61459 22.9726C7.61972 22.9741 7.62516 22.9739 7.63022 22.9722C7.63527 22.9706 7.6397 22.9674 7.64294 22.9632C7.64617 22.9589 7.64805 22.9538 7.64834 22.9485L7.68115 22.2032L7.68428 25.6563C7.68435 25.68 7.69178 25.703 7.70553 25.7221C7.71928 25.7411 7.73863 25.7553 7.76084 25.7625C8.77021 26.0865 9.8098 26.424 10.8796 26.7751C11.4202 26.9532 11.5905 27.2704 11.753 27.8485C12.0947 29.0558 12.5968 30.2339 13.2593 31.3829C13.428 31.6745 13.4207 32.0089 13.2374 32.386C12.9655 32.9464 12.4666 33.9277 11.7405 35.3297C11.7273 35.3546 11.7225 35.3831 11.7267 35.411C11.7309 35.4388 11.744 35.4646 11.764 35.4844L14.1358 37.8563C14.1559 37.8763 14.1817 37.8894 14.2094 37.8939C14.2372 37.8984 14.2656 37.894 14.2905 37.8813C16.0041 37.0063 16.9952 36.5027 17.264 36.3704C17.6213 36.1943 17.9832 36.2105 18.3499 36.4188C19.352 36.9886 20.3239 37.4198 21.2655 37.7126C21.2753 37.7157 21.2856 37.7166 21.2957 37.715C21.3058 37.7135 21.3155 37.7096 21.3238 37.7037C21.3322 37.6978 21.339 37.69 21.3438 37.6809C21.3486 37.6719 21.3512 37.6618 21.3515 37.6516L21.3655 36.675L23.5515 38.9063L23.553 49.0735C22.7749 48.7558 22.0457 48.3198 21.3655 47.7657L21.3687 41.3485C21.3687 41.3019 21.3613 41.2555 21.3468 41.211L20.9499 39.9985C20.9408 39.9696 20.9247 39.9433 20.9032 39.9221C20.8817 39.9008 20.8553 39.8852 20.8265 39.8766C19.7775 39.561 18.7785 39.1454 17.8296 38.6297C17.8036 38.6157 17.7746 38.6081 17.7452 38.6075C17.7159 38.607 17.6869 38.6135 17.6608 38.6266C16.0004 39.4683 14.9806 39.9875 14.6015 40.1844C13.928 40.536 13.4905 40.3313 12.9562 39.7891C12.0864 38.9099 10.9785 37.8006 9.63272 36.461C9.12647 35.9579 9.20459 35.461 9.52803 34.8344C10.3489 33.2438 10.8379 32.2849 10.9952 31.9579C11.0069 31.9332 11.0125 31.9059 11.0117 31.8783C11.0109 31.8506 11.0036 31.8233 10.9905 31.7985C10.4812 30.8683 10.0655 29.8667 9.74365 28.7938C9.73541 28.7666 9.72095 28.7417 9.70143 28.7211C9.6819 28.7005 9.65784 28.6847 9.63115 28.6751C9.51761 28.6355 8.44053 28.2849 6.3999 27.6235C5.57021 27.3532 5.49521 26.9094 5.49365 26.0672C5.49365 25.7808 5.49469 24.2271 5.49678 21.4063C5.49678 21.2271 5.58167 20.9553 5.75147 20.5907Z" fill="white"/>
<path d="M14.7827 21.3235L16.6999 23.1563C16.4249 26.786 18.1577 30.0204 21.278 31.8204C21.2873 31.8259 21.298 31.8289 21.3088 31.829C21.3196 31.8291 21.3303 31.8263 21.3397 31.8209C21.3491 31.8154 21.3569 31.8076 21.3622 31.7982C21.3676 31.7888 21.3704 31.7781 21.3702 31.7672L21.3671 28.7016C22.1848 29.4204 22.9129 30.2183 23.5515 31.0954V38.9063L21.3655 36.675L21.3452 34.3641C21.3452 34.3408 21.3383 34.3179 21.3252 34.2982C21.3122 34.2785 21.2936 34.2628 21.2718 34.2532C16.2093 32.0188 13.5296 26.7391 14.7827 21.3235Z" fill="white"/>
<path d="M33.7968 23.0579L36.9577 25.236L30.0187 25.2344C29.0082 24.6625 28.0671 23.9652 27.1952 23.1422C29.3973 23.0162 31.5978 22.9881 33.7968 23.0579Z" fill="white"/>
<path d="M40.1983 23.0485C41.1338 23.8672 42.1421 24.5964 43.2233 25.236H36.9577L33.7968 23.0579L40.1983 23.0485Z" fill="white"/>
<path d="M49.3437 33.7891L47.7515 32.186C48.064 32.0631 48.2202 31.8553 48.2202 31.5625C48.2223 28.5115 48.2187 26.5724 48.2093 25.7454C48.2072 25.5464 48.0728 25.3881 47.8062 25.2704C47.7659 25.2528 47.7229 25.2438 47.6796 25.2438L43.2233 25.236C42.1421 24.5964 41.1338 23.8672 40.1983 23.0485C42.6483 23.037 45.0952 23.0344 47.539 23.0407C49.1374 23.0454 50.4093 24.2407 50.4062 25.8594C50.4051 26.5917 50.4082 28.3131 50.4155 31.0235C50.4187 32.2376 50.2452 33.0532 49.3437 33.7891Z" fill="white"/>
<path d="M54.3546 26.0172V37.3L54.3202 37.8079C54.3196 37.8174 54.3166 37.8267 54.3115 37.8348C54.3063 37.8429 54.2991 37.8495 54.2907 37.8541C54.2822 37.8586 54.2727 37.8609 54.2631 37.8608C54.2535 37.8606 54.2441 37.858 54.2358 37.8532C53.5306 37.4448 52.8733 36.9714 52.264 36.4329C52.2451 36.4166 52.2298 36.3968 52.2188 36.3748C52.2078 36.3528 52.2014 36.329 52.1999 36.3047L52.1655 35.7469L52.1671 23.0922L52.1858 24.1376C52.1869 24.1881 52.2057 24.2367 52.239 24.2751C52.8473 24.9813 53.5525 25.562 54.3546 26.0172Z" fill="white"/>
<path d="M27.1952 23.1422C28.0671 23.9652 29.0082 24.6625 30.0187 25.2344L28.0312 25.2485C27.9889 25.2485 27.9468 25.2575 27.9077 25.275C27.6421 25.3917 27.5093 25.5501 27.5093 25.75C27.4978 28.5073 27.4968 30.4448 27.5062 31.5625C27.5082 31.8625 27.6546 32.0636 27.9452 32.1657C27.9835 32.1791 28.0242 32.186 28.0655 32.186L33.4374 32.1875L35.4437 34.3797C33.1405 34.3912 30.8442 34.3912 28.5546 34.3797C27.9374 34.3766 27.4483 34.386 26.9452 34.1313C25.8473 33.5792 25.3015 32.6834 25.3077 31.4438C25.3181 29.2875 25.314 27.7386 25.2952 26.7969C25.2775 25.8532 25.3624 25.161 25.5499 24.7204C25.8447 24.0318 26.3931 23.5058 27.1952 23.1422Z" fill="white"/>
<path d="M62.0249 27.6266L58.7921 27.6329C58.771 27.6329 58.7507 27.6411 58.7357 27.6557C58.7208 27.6704 58.7124 27.6903 58.7124 27.711L58.6999 30.8563L56.5155 28.5485C56.4655 27.2704 56.4655 26.1891 57.6327 25.6329C57.8306 25.5381 58.1009 25.4766 58.4437 25.4485C58.7249 25.4256 59.0046 25.4053 59.2827 25.3875C60.1306 26.225 61.0447 26.9714 62.0249 27.6266Z" fill="white"/>
<path d="M68.3093 25.475C69.0489 26.2573 69.8541 26.9719 70.7249 27.6188L69.0702 27.636C69.0491 27.636 69.0288 27.6444 69.0139 27.6593C68.9989 27.6743 68.9905 27.6945 68.9905 27.7157L68.9749 30.5016L68.9483 31.525C68.9479 31.5321 68.9456 31.539 68.9417 31.545C68.9378 31.5509 68.9324 31.5556 68.9261 31.5587C68.9198 31.5617 68.9129 31.563 68.9061 31.5623C68.8993 31.5616 68.8928 31.559 68.8874 31.5547L66.7796 29.9907C66.7775 29.1875 66.7765 28.3813 66.7765 27.5719C66.7765 26.4886 67.2874 25.7896 68.3093 25.475Z" fill="white"/>
<path d="M64.2327 30.0079L64.2311 36.3766L62.039 35.0032V27.8532C62.6963 28.6428 63.4275 29.361 64.2327 30.0079Z" fill="white"/>
<path d="M58.6999 30.8563L58.6983 40.7766L56.514 38.5485L56.5155 28.5485L58.6999 30.8563Z" fill="white"/>
<path d="M74.4952 30.8985L74.4999 37.1625L72.4249 35.5579C72.4052 35.5426 72.3889 35.5237 72.3771 35.5021C72.3653 35.4806 72.3581 35.457 72.3561 35.4329L72.3155 35.0047L72.3124 29.3438C72.6405 29.8782 73.0926 30.4021 73.6687 30.9157C73.9796 31.1938 74.2296 31.3094 74.4952 30.8985Z" fill="white"/>
<path d="M66.7796 29.9907L68.8874 31.5547C68.8928 31.559 68.8993 31.5616 68.9061 31.5623C68.9129 31.563 68.9198 31.5617 68.9261 31.5587C68.9324 31.5556 68.9378 31.5509 68.9417 31.545C68.9456 31.539 68.9479 31.5321 68.9483 31.525L68.9749 30.5016L68.9733 43.6251L68.9218 44.0829C68.9207 44.0912 68.9173 44.099 68.9121 44.1056C68.907 44.1122 68.9001 44.1173 68.8923 44.1203C68.8844 44.1234 68.876 44.1242 68.8677 44.1229C68.8594 44.1215 68.8516 44.1179 68.8452 44.1125L66.7812 42.3407L66.7796 29.9907Z" fill="white"/>
<path d="M47.7515 32.186L49.3437 33.7891C48.8468 34.1704 48.3494 34.3646 47.8515 34.3719C45.941 34.4 41.8051 34.4027 35.4437 34.3797L33.4374 32.1875L47.7515 32.186Z" fill="white"/>
<path d="M64.2311 36.3766V49.1813L62.039 47.8907V35.0032L64.2311 36.3766Z" fill="white"/>
<path d="M74.4999 37.1625L74.4983 46.4454C73.5629 45.9339 72.8348 45.2042 72.314 44.2563L72.3155 35.0047L72.3561 35.4329C72.3581 35.457 72.3653 35.4806 72.3771 35.5021C72.3889 35.5237 72.4052 35.5426 72.4249 35.5579L74.4999 37.1625Z" fill="white"/>
<path d="M54.3546 37.3V44.0969C54.1108 44.2261 53.8603 44.1766 53.603 43.9485C52.9666 43.386 52.4864 42.9047 52.1624 42.5047L52.1655 35.7469L52.1999 36.3047C52.2014 36.329 52.2078 36.3528 52.2188 36.3748C52.2298 36.3968 52.2451 36.4166 52.264 36.4329C52.8733 36.9714 53.5306 37.4448 54.2358 37.8532C54.2441 37.858 54.2535 37.8606 54.2631 37.8608C54.2727 37.8609 54.2822 37.8586 54.2907 37.8541C54.2991 37.8495 54.3063 37.8429 54.3115 37.8348C54.3166 37.8267 54.3196 37.8174 54.3202 37.8079L54.3546 37.3Z" fill="white"/>
<path d="M50.239 51.6438L48.214 50.0047C48.2838 47.5193 47.6035 45.3297 46.1733 43.436C44.165 40.7777 41.4473 39.3792 38.0202 39.2407L36.039 37.1922C38.0545 36.8967 40.1111 37.0962 42.0312 37.7735C44.5901 38.6752 46.788 40.3824 48.2952 42.6391C50.0613 45.2857 50.7561 48.5044 50.239 51.6438Z" fill="white"/>
<path d="M36.039 37.1922L38.0202 39.2407C35.8129 39.2375 33.8098 39.8433 32.0108 41.0579L30.389 39.525C32.0517 38.2931 33.9926 37.4917 36.039 37.1922Z" fill="white"/>
<path d="M58.6983 40.7766V49.9938C58.3483 49.1016 57.6546 48.5172 57.0343 47.8485C56.9353 47.7412 56.7619 47.4527 56.514 46.9829V38.5485L58.6983 40.7766Z" fill="white"/>
<path d="M30.389 39.525L32.0108 41.0579C29.6327 42.7402 28.1754 45.0157 27.639 47.8844L25.689 46.561C26.3942 43.7423 28.0553 41.2556 30.389 39.525Z" fill="white"/>
<path d="M41.2499 51.8766L39.3218 50.611L41.6796 48.7376C41.6861 48.7322 41.691 48.7252 41.6939 48.7173C41.6967 48.7094 41.6974 48.7009 41.6958 48.6928C41.6941 48.6847 41.6903 48.6773 41.6847 48.6714C41.6791 48.6655 41.6719 48.6613 41.664 48.6594C39.8067 48.1928 38.7874 47.9329 38.6062 47.8797C37.6983 47.6157 37.4249 46.586 38.1437 45.9532C39.2322 44.998 40.1629 44.1792 40.9358 43.4969C40.944 43.4895 40.9503 43.4803 40.9541 43.47C40.958 43.4597 40.9593 43.4486 40.9579 43.4378C40.9565 43.427 40.9525 43.4168 40.9462 43.408C40.9399 43.3992 40.9315 43.3922 40.9218 43.3876L38.9983 42.4626C38.9748 42.4511 38.9481 42.4479 38.9226 42.4536C38.897 42.4593 38.8742 42.4734 38.8577 42.4938L35.8327 46.1329L34.3233 44.5188C35.4546 43.1521 36.59 41.7876 37.7296 40.425C38.2124 39.8485 38.7202 39.8829 39.3796 40.2047C40.7983 40.8974 41.9483 41.4495 42.8296 41.861C43.4681 42.1589 43.8343 42.4032 43.928 42.5938C44.1249 42.9907 44.1051 43.3922 43.8687 43.7985C43.8345 43.8564 43.7912 43.9087 43.7405 43.9532L41.1562 46.2219C41.152 46.2257 41.149 46.2305 41.1474 46.2358C41.1457 46.2411 41.1455 46.2467 41.1468 46.2522C41.1481 46.2576 41.1508 46.2626 41.1546 46.2666C41.1585 46.2706 41.1633 46.2735 41.1687 46.2751C42.1697 46.524 43.2223 46.7922 44.3265 47.0797C45.064 47.2719 45.4499 47.9751 45.1202 48.6594C45.0567 48.7907 44.8681 48.9829 44.5546 49.236C43.4546 50.1214 42.353 51.0016 41.2499 51.8766Z" fill="white"/>
<path d="M68.9733 43.6251L68.9749 50.6047C68.9749 50.618 68.9802 50.6307 68.9895 50.6401C68.9989 50.6495 69.0116 50.6547 69.0249 50.6547H72.2468C72.2646 50.6547 72.2817 50.6477 72.2943 50.6351C72.3069 50.6225 72.314 50.6054 72.314 50.5875V44.2563C72.8348 45.2042 73.5629 45.9339 74.4983 46.4454C74.5056 47.4672 74.5077 48.511 74.5046 49.5766C74.5015 50.6766 74.4697 51.3162 74.4093 51.4954C74.114 52.3579 73.339 52.8516 72.403 52.8563C72.1884 52.8573 72.003 52.8547 71.8468 52.8485C71.8343 52.8479 71.8218 52.8498 71.8101 52.8541C71.7983 52.8585 71.7876 52.8652 71.7785 52.8738C71.7695 52.8824 71.7623 52.8928 71.7573 52.9043C71.7524 52.9158 71.7499 52.9282 71.7499 52.9407L71.7405 54.2922C71.3343 53.9881 70.8931 53.6021 70.4171 53.1344C69.0338 51.773 67.8228 50.5235 66.7843 49.386L66.7812 42.3407L68.8452 44.1125C68.8516 44.1179 68.8594 44.1215 68.8677 44.1229C68.876 44.1242 68.8844 44.1234 68.8923 44.1203C68.9001 44.1173 68.907 44.1122 68.9121 44.1056C68.9173 44.099 68.9207 44.0912 68.9218 44.0829L68.9733 43.6251Z" fill="white"/>
<path d="M54.3546 44.0969L54.353 51.5657L52.1687 49.9563L52.1624 42.5047C52.4864 42.9047 52.9666 43.386 53.603 43.9485C53.8603 44.1766 54.1108 44.2261 54.3546 44.0969Z" fill="white"/>
<path d="M34.3233 44.5188L35.8327 46.1329L34.4046 47.85C34.3987 47.8573 34.3946 47.8659 34.3927 47.875C34.3909 47.8842 34.3913 47.8936 34.3939 47.9025C34.3966 47.9113 34.4014 47.9193 34.4079 47.9257C34.4144 47.9321 34.4224 47.9367 34.4312 47.9391C35.3187 48.1818 36.1223 48.3969 36.8421 48.5844C37.3765 48.724 37.7035 48.887 37.8233 49.0735C38.1405 49.5657 38.103 49.9485 37.8093 50.4954C37.5749 50.9329 37.1848 51.6667 36.639 52.6969C36.6371 52.6992 36.6362 52.7021 36.6365 52.7051C36.6368 52.708 36.6382 52.7107 36.6405 52.7125C36.6428 52.7144 36.6457 52.7153 36.6487 52.715C36.6516 52.7147 36.6543 52.7133 36.6562 52.711L39.3218 50.611L41.2499 51.8766L35.6733 56.3282L33.503 53.9235L35.3171 50.5188C35.3212 50.5114 35.3235 50.5031 35.3239 50.4946C35.3244 50.4861 35.3229 50.4777 35.3196 50.4699C35.3163 50.462 35.3112 50.4551 35.3048 50.4495C35.2985 50.4439 35.2909 50.4398 35.2827 50.4375C34.3983 50.2011 33.3285 49.9125 32.0733 49.5719C31.828 49.5047 31.5437 49.2579 31.4296 49.0079C31.1015 48.2766 31.4999 47.9188 32.0312 47.2735C32.7905 46.3526 33.5546 45.4344 34.3233 44.5188Z" fill="white"/>
<path d="M27.639 47.8844C26.4937 55.1969 32.8124 61.125 39.9999 59.7469C40.3676 60.424 40.8296 61.0568 41.3858 61.6454C40.9239 61.7806 40.454 61.8892 39.9796 61.9704C37.0188 62.4775 33.9746 61.9059 31.3999 60.3594C28.9611 58.8947 27.0927 56.6445 26.1015 53.9782C25.2181 51.6047 25.0743 49.0189 25.689 46.561L27.639 47.8844Z" fill="white"/>
<path d="M58.6983 49.9938L58.7093 50.5672C58.7093 50.5889 58.718 50.6098 58.7334 50.6252C58.7489 50.6407 58.77 50.6496 58.7921 50.65L59.9827 50.6547L61.9327 52.861C61.7931 52.8422 61.6671 52.8448 61.5546 52.8688C61.5329 52.8737 61.5135 52.886 61.4996 52.9036C61.4857 52.9212 61.4781 52.9431 61.478 52.9657L61.4702 59.3375C60.8525 59.0303 60.2989 58.6006 59.8093 58.0485C59.7239 57.9516 59.5884 57.8948 59.403 57.8782C59.3831 57.8764 59.3632 57.8823 59.3473 57.8947C59.3313 57.9072 59.3206 57.9253 59.3171 57.9454L59.2702 58.2094L59.2687 52.9422C59.2687 52.9311 59.2664 52.9201 59.2621 52.9098C59.2577 52.8995 59.2513 52.8903 59.2433 52.8825C59.2353 52.8748 59.2258 52.8688 59.2154 52.8648C59.205 52.8608 59.1938 52.859 59.1827 52.8594C58.1358 52.8813 57.2499 52.7407 56.7515 51.8469C56.5963 51.5698 56.516 51.0266 56.5108 50.2172C56.5056 49.1402 56.5067 48.062 56.514 46.9829C56.7619 47.4527 56.9353 47.7412 57.0343 47.8485C57.6546 48.5172 58.3483 49.1016 58.6983 49.9938Z" fill="white"/>
<path d="M64.2311 49.1813C64.2353 49.6417 64.2358 50.1099 64.2327 50.586C64.2244 52.1027 63.4577 52.861 61.9327 52.861L59.9827 50.6547L61.9515 50.6407C61.9727 50.6403 61.993 50.6317 62.0079 50.6168C62.0228 50.6019 62.0311 50.5819 62.0312 50.561L62.039 47.8907L64.2311 49.1813Z" fill="white"/>
<path d="M23.553 49.0735C23.5541 53.336 23.5546 57.6032 23.5546 61.875C23.5546 63.0657 24.5687 63.9563 25.7421 63.95C28.8317 63.9334 31.9119 63.9266 34.9827 63.9297L37.5468 66.125L33.9046 66.1344C33.8935 66.1344 33.8825 66.1366 33.8723 66.1408C33.8621 66.1451 33.8528 66.1513 33.8449 66.1591C33.8371 66.167 33.8309 66.1763 33.8266 66.1865C33.8224 66.1967 33.8202 66.2077 33.8202 66.2188C33.8202 69.2459 33.8197 71.0131 33.8187 71.5204C33.8166 72.6402 34.2551 73.3995 35.1343 73.7985C35.4374 73.937 35.9848 74.0053 36.7765 74.0032C39.516 74 42.2551 73.999 44.9937 74.0001C45.1572 74.3907 45.29 74.6459 45.3921 74.7657C45.8098 75.2563 46.2192 75.7339 46.6202 76.1985C43.1463 76.1974 39.6504 76.198 36.1327 76.2C34.1608 76.2016 32.4593 74.9891 31.8421 73.1329C31.664 72.5954 31.59 71.6464 31.6202 70.286C31.6473 69.037 31.6494 67.6792 31.6265 66.2125C31.626 66.1877 31.6159 66.164 31.5984 66.1467C31.5808 66.1294 31.5572 66.12 31.5327 66.1204C30.8483 66.1224 28.7629 66.1224 25.2765 66.1204C25.0869 66.1204 24.7947 66.061 24.3999 65.9422C22.4702 65.3657 21.3655 63.6594 21.3655 61.6797C21.3634 57.0527 21.3634 52.4146 21.3655 47.7657C22.0457 48.3198 22.7749 48.7558 23.553 49.0735Z" fill="white"/>
<path d="M71.7405 54.2922V59.6094C70.9499 59.0073 70.2171 58.3287 69.5421 57.5735L69.539 52.9375C69.539 52.9164 69.5306 52.8961 69.5156 52.8812C69.5007 52.8663 69.4804 52.8579 69.4593 52.8579C69.1155 52.861 68.8931 52.8605 68.7921 52.8563C67.7796 52.8084 67.1244 52.3 66.8265 51.3313C66.8161 51.2971 66.8108 51.2618 66.8108 51.2266L66.7843 49.386C67.8228 50.5235 69.0338 51.773 70.4171 53.1344C70.8931 53.6021 71.3343 53.9881 71.7405 54.2922Z" fill="white"/>
<path d="M50.239 51.6438C49.9982 53.1032 49.502 54.508 48.7733 55.7938L47.0593 54.3735C47.7582 53.0047 48.1431 51.5485 48.214 50.0047L50.239 51.6438Z" fill="white"/>
<path d="M54.353 51.5657C54.3572 54.8782 54.3582 58.2625 54.3562 61.7188C54.3562 62.5188 54.1848 63.2428 53.8421 63.8907L52.0233 62.6188C52.115 62.3584 52.1614 62.1105 52.1624 61.875C52.1676 60.1532 52.1697 56.1803 52.1687 49.9563L54.353 51.5657Z" fill="white"/>
<path d="M33.503 53.9235L35.6733 56.3282C35.0848 56.7959 34.4952 57.2641 33.9046 57.7329C33.289 58.2214 32.74 58.1849 32.2577 57.6235C31.9588 57.2745 31.9327 56.8667 32.1796 56.4C32.6181 55.5719 33.0593 54.7464 33.503 53.9235Z" fill="white"/>
<path d="M47.0593 54.3735L48.7733 55.7938C47.4422 58.1406 45.3902 59.9958 42.9218 61.0844C42.4224 61.3039 41.9091 61.4914 41.3858 61.6454C40.8296 61.0568 40.3676 60.424 39.9999 59.7469C43.153 59.0053 45.5061 57.2141 47.0593 54.3735Z" fill="white"/>
<path d="M71.7405 59.6094V69.9922L70.0108 68.2032C69.9916 68.1831 69.9676 68.1681 69.9412 68.1596C69.9147 68.151 69.8865 68.1491 69.8592 68.1541C69.8318 68.159 69.8061 68.1706 69.7843 68.1879C69.7625 68.2052 69.7453 68.2276 69.7343 68.2532C69.6457 68.4553 69.5822 68.5167 69.5436 68.4375L69.5421 57.5735C70.2171 58.3287 70.9499 59.0073 71.7405 59.6094Z" fill="white"/>
<path d="M61.4702 59.3375C61.4765 63.6219 61.4765 66.4079 61.4702 67.6954C61.466 68.462 61.1869 69.1464 60.6327 69.7485C60.0806 69.1339 59.5285 68.6917 58.9765 68.4219L59.214 67.9094C59.2459 67.8415 59.2624 67.7673 59.2624 67.6922L59.2702 58.2094L59.3171 57.9454C59.3206 57.9253 59.3313 57.9072 59.3473 57.8947C59.3632 57.8823 59.3831 57.8764 59.403 57.8782C59.5884 57.8948 59.7239 57.9516 59.8093 58.0485C60.2989 58.6006 60.8525 59.0303 61.4702 59.3375Z" fill="white"/>
<path d="M53.8421 63.8907C53.2702 64.8928 52.4817 65.5589 51.4765 65.8891C51.0348 66.0339 50.2645 66.1089 49.1655 66.1141C48.2676 66.1193 47.3285 66.1318 46.3483 66.1516L42.9124 63.925C45.2947 63.9271 47.69 63.9271 50.0983 63.925C50.9931 63.924 51.6348 63.4886 52.0233 62.6188L53.8421 63.8907Z" fill="white"/>
<path d="M42.9124 63.925L46.3483 66.1516L44.153 66.1219C44.1364 66.1219 44.1206 66.1285 44.1088 66.1402C44.0971 66.1519 44.0905 66.1678 44.0905 66.1844C44.0916 66.8594 44.091 67.2152 44.089 67.2516C44.053 67.9719 44.2327 68.475 44.9999 68.4719C46.0655 68.4688 47.115 68.4652 48.1483 68.461C49.064 69.2829 50.0405 70.0167 51.078 70.6625C49.428 70.6719 47.7884 70.673 46.1593 70.6657C45.0801 70.6615 44.4671 70.6443 44.3202 70.6141C42.9062 70.325 41.9062 69.1016 41.9015 67.6579C41.8994 66.8287 41.8968 66.3474 41.8937 66.2141C41.8932 66.1908 41.8835 66.1685 41.8666 66.1521C41.8496 66.1358 41.8268 66.1266 41.803 66.1266L37.5468 66.125L34.9827 63.9297L42.9124 63.925Z" fill="white"/>
<path d="M71.7405 69.9922C71.7499 71.1047 71.7463 71.8105 71.7296 72.1094C71.614 74.1313 70.0452 75.7282 68.1405 76.1157C67.528 76.2407 66.714 76.2001 66.0249 76.1954C65.3749 76.1277 64.8926 75.936 64.578 75.6204C64.0572 75.0995 63.528 74.5875 62.9905 74.0844C62.9857 74.0801 62.9823 74.0745 62.9807 74.0682C62.9792 74.062 62.9797 74.0553 62.982 74.0492C62.9843 74.043 62.9884 74.0376 62.9939 74.0336C62.9993 74.0296 63.0057 74.0271 63.0124 74.0266L63.4327 74.0001C64.4119 73.998 65.3921 73.9985 66.3733 74.0016C67.3765 74.0058 68.0129 73.936 68.2827 73.7922C68.7681 73.5339 69.1296 73.1511 69.3671 72.6438C69.4848 72.3938 69.5431 71.8735 69.5421 71.0829C69.541 70.1839 69.5416 69.3021 69.5436 68.4375C69.5822 68.5167 69.6457 68.4553 69.7343 68.2532C69.7453 68.2276 69.7625 68.2052 69.7843 68.1879C69.8061 68.1706 69.8318 68.159 69.8592 68.1541C69.8865 68.1491 69.9147 68.151 69.9412 68.1596C69.9676 68.1681 69.9916 68.1831 70.0108 68.2032L71.7405 69.9922Z" fill="white"/>
<path d="M60.6327 69.7485C59.6358 70.7391 58.7312 70.6688 57.153 70.6704C55.1176 70.6714 53.0926 70.6688 51.078 70.6625C50.0405 70.0167 49.064 69.2829 48.1483 68.461L58.9765 68.4219C59.5285 68.6917 60.0806 69.1339 60.6327 69.7485Z" fill="white"/>
<path d="M55.0999 73.9907C55.6843 74.5678 56.24 75.2678 56.7671 76.0907C56.7788 76.1087 56.7946 76.124 56.8133 76.1353C56.8319 76.1467 56.8529 76.1538 56.8749 76.1563L57.3124 76.1969L46.6202 76.1985C46.2192 75.7339 45.8098 75.2563 45.3921 74.7657C45.29 74.6459 45.1572 74.3907 44.9937 74.0001L55.0999 73.9907Z" fill="white"/>
<path d="M63.4327 74.0001L63.0124 74.0266C63.0057 74.0271 62.9993 74.0296 62.9939 74.0336C62.9884 74.0376 62.9843 74.043 62.982 74.0492C62.9797 74.0553 62.9792 74.062 62.9807 74.0682C62.9823 74.0745 62.9857 74.0801 62.9905 74.0844C63.528 74.5875 64.0572 75.0995 64.578 75.6204C64.8926 75.936 65.3749 76.1277 66.0249 76.1954L57.3124 76.1969L56.8749 76.1563C56.8529 76.1538 56.8319 76.1467 56.8133 76.1353C56.7946 76.124 56.7788 76.1087 56.7671 76.0907C56.24 75.2678 55.6843 74.5678 55.0999 73.9907L63.4327 74.0001Z" fill="white"/>
</svg>
