<svg width="81" height="80" viewBox="0 0 81 80" fill="none" xmlns="http://www.w3.org/2000/svg">
<g clip-path="url(#clip0_243_1310)">
<path d="M40.7891 0C41.6818 0.197917 42.2849 0.636979 42.5984 1.31719C42.7734 1.69635 42.8589 2.41771 42.8547 3.48125C42.838 8.38125 42.8349 11.1401 42.8453 11.7578C42.8641 12.9688 42.025 14.0484 40.7906 14.1891C39.3109 14.3578 38.15 13.2375 38.1547 11.7562C38.1568 10.7177 38.1573 7.63229 38.1562 2.5C38.1547 1.1875 38.9234 0.254687 40.1937 0H40.7891Z" fill="white"/>
<path d="M27.1229 7.51776L26.9472 7.59163C25.8072 8.07083 25.2715 9.38343 25.7507 10.5234L27.6266 14.9858C28.1058 16.1258 29.4184 16.6614 30.5583 16.1822L30.7341 16.1084C31.874 15.6292 32.4097 14.3166 31.9305 13.1766L30.0547 8.7142C29.5755 7.57422 28.2629 7.03856 27.1229 7.51776Z" fill="white"/>
<path d="M54.0603 7.59494L53.8847 7.52076C52.7447 7.03924 51.4303 7.57298 50.9487 8.71291L49.0664 13.1691C48.5848 14.3091 49.1186 15.6235 50.2585 16.1051L50.4341 16.1792C51.574 16.6608 52.8885 16.127 53.37 14.9871L55.2524 10.5309C55.7339 9.39092 55.2002 8.07647 54.0603 7.59494Z" fill="white"/>
<path d="M19.1172 15.3094C17.1057 15.4313 15.1146 15.6469 13.1437 15.9563C12.7 15.5281 12.0969 14.9984 11.8672 14.4844C11.3781 13.3875 11.7406 12.0844 12.7766 11.4844C13.5911 11.0115 14.4333 11.0302 15.3031 11.5406C15.3768 11.5842 15.444 11.6367 15.5031 11.6969L19.1172 15.3094Z" fill="white"/>
<path d="M67.7891 16.0219L61.7969 15.3937C62.8729 14.3083 63.95 13.2307 65.0281 12.1609C65.4844 11.7099 65.8333 11.4344 66.075 11.3344C68.2625 10.4359 70.2297 12.8328 68.9469 14.8141C68.7969 15.0453 68.4109 15.4479 67.7891 16.0219Z" fill="white"/>
<path d="M19.1172 15.3094C19.8984 16.0771 20.6797 16.8557 21.4609 17.6453C22.1286 18.3193 22.4818 18.6854 22.5203 18.7437C24.1375 21.1359 20.9734 23.7719 18.925 21.7313C16.9969 19.8115 15.0698 17.8865 13.1437 15.9563C15.1146 15.6469 17.1057 15.4313 19.1172 15.3094Z" fill="white"/>
<path d="M61.7969 15.3937L67.7891 16.0219C66.0505 17.7698 64.313 19.5083 62.5766 21.2375C61.9724 21.8396 61.5089 22.2 61.1859 22.3187C60.3839 22.6125 59.5964 22.4531 58.8234 21.8406C57.9609 21.1578 57.8063 19.7063 58.4656 18.7734C58.5323 18.6786 58.8599 18.3344 59.4484 17.7406C60.2297 16.951 61.0125 16.1687 61.7969 15.3937Z" fill="white"/>
<path d="M57.2281 27.1625C54.9802 27.2844 52.7365 27.2286 50.4969 26.9953C44.3922 22.35 36.1375 22.4937 30.1625 27.2656L23.7234 27.2234C25.4673 24.9336 27.6614 23.025 30.1707 21.6152C32.6801 20.2055 35.4514 19.3245 38.3141 19.0266C41.9653 18.6457 45.6531 19.2252 49.0125 20.7078C52.249 22.1359 55.0743 24.3556 57.2281 27.1625Z" fill="white"/>
<path d="M15.4878 27.1333L11.0377 25.2444C9.8986 24.7608 8.58322 25.2923 8.0997 26.4314L8.02522 26.6068C7.5417 27.7459 8.07315 29.0613 9.21224 29.5448L13.6623 31.4338C14.8014 31.9173 16.1168 31.3858 16.6003 30.2467L16.6748 30.0713C17.1583 28.9322 16.6268 27.6168 15.4878 27.1333Z" fill="white"/>
<path d="M69.9691 25.2476L65.5129 27.13C64.373 27.6115 63.8392 28.926 64.3208 30.0659L64.3949 30.2415C64.8765 31.3814 66.1909 31.9152 67.3308 31.4337L71.7871 29.5513C72.927 29.0697 73.4608 27.7553 72.9792 26.6154L72.9051 26.4398C72.4235 25.2998 71.1091 24.7661 69.9691 25.2476Z" fill="white"/>
<path d="M57.2281 27.1625C58.853 29.2797 60.0613 31.6864 60.7891 34.2547L55.9297 34.3828C54.8005 31.4099 52.9896 28.9474 50.4969 26.9953C52.7365 27.2286 54.9802 27.2844 57.2281 27.1625Z" fill="white"/>
<path d="M23.7234 27.2234L30.1625 27.2656C27.5302 29.4375 25.7229 32.1573 24.7406 35.425L19.9125 35.4391C20.5723 32.457 21.8727 29.6538 23.7234 27.2234Z" fill="white"/>
<path d="M40.1219 36.6219C38.4146 36.4552 36.699 36.3958 34.975 36.4438C36.0677 34.2396 37.1656 32.0448 38.2687 29.8594C38.6297 29.1438 39.1125 28.5219 39.8734 28.375C41.2005 28.1198 42.1292 28.5802 42.6594 29.7563C43.0438 30.6078 42.7797 31.3 42.3375 32.1891C41.601 33.6682 40.8625 35.1458 40.1219 36.6219Z" fill="white"/>
<path d="M60.7891 34.2547C61.9891 38.4928 61.8311 43.0008 60.3375 47.1453C60.0545 47.9329 59.724 48.7035 59.3484 49.4516L54.1578 49.0938C57.0828 44.5031 57.6734 39.5995 55.9297 34.3828L60.7891 34.2547Z" fill="white"/>
<path d="M24.7406 35.425C23.2969 40.4859 24.3109 45.8078 27.4984 49.9953C25.7391 50.2203 23.963 50.3635 22.1703 50.425C19.7825 46.2257 18.9083 41.3339 19.6937 36.5672C19.7562 36.1895 19.8293 35.8125 19.9125 35.4391L24.7406 35.425Z" fill="white"/>
<path d="M40.1219 36.6219L39.6672 37.575C39.6632 37.583 39.6614 37.5919 39.6618 37.6009C39.6622 37.6098 39.6649 37.6185 39.6696 37.6262C39.6742 37.6338 39.6808 37.6402 39.6885 37.6446C39.6963 37.649 39.7051 37.6514 39.7141 37.6516C41.4297 37.663 42.9417 37.6615 44.25 37.6469C45.2281 37.6365 45.8677 37.7073 46.1688 37.8594C47.3078 38.4344 47.8781 39.775 47.3031 40.9844C47.0875 41.4375 45.6802 44.2646 43.0812 49.4656C42.6073 50.4146 42.2406 50.9922 41.9813 51.1984C40.0078 52.7609 37.3094 50.5719 38.4125 48.3313C39.7802 45.5552 40.7656 43.5828 41.3688 42.4141C41.3722 42.4069 41.3739 42.3989 41.3736 42.3909C41.3732 42.3829 41.3709 42.3752 41.3668 42.3685C41.3628 42.3617 41.3571 42.3562 41.3503 42.3524C41.3435 42.3486 41.3359 42.3467 41.3281 42.3469C40.2 42.3406 38.4135 42.3406 35.9688 42.3469C34.5375 42.35 33.3438 41.2875 33.4734 39.8094C33.4974 39.5365 33.6229 39.1656 33.85 38.6969C34.2188 37.9365 34.5937 37.1854 34.975 36.4438C36.699 36.3958 38.4146 36.4552 40.1219 36.6219Z" fill="white"/>
<path d="M0.5 40.2922V39.7125C0.7 38.8135 1.14219 38.2083 1.82656 37.8969C2.20677 37.724 2.94635 37.6396 4.04531 37.6437C8.9849 37.6625 11.7224 37.6651 12.2578 37.6516C14.2312 37.6047 15.3969 39.7422 14.2594 41.3625C13.7969 42.0198 13.1156 42.3474 12.2156 42.3453C11.3708 42.3432 8.29896 42.3432 3 42.3453C1.68594 42.3453 0.74375 41.5687 0.5 40.2922Z" fill="white"/>
<path d="M80.5 39.7094V40.2812C80.301 41.1833 79.8583 41.7906 79.1719 42.1031C78.7948 42.274 78.0552 42.3578 76.9531 42.3547C71.8458 42.3391 69.1089 42.3354 68.7422 42.3438C66.575 42.3984 65.4313 39.8047 67.0344 38.2969C67.4969 37.8615 68.0797 37.6464 68.7828 37.6516C69.5901 37.6578 72.6625 37.6589 78 37.6547C79.3141 37.6531 80.2547 38.4328 80.5 39.7094Z" fill="white"/>
<path d="M13.6691 48.5664L9.21291 50.4487C8.07298 50.9303 7.53924 52.2447 8.02076 53.3847L8.09494 53.5603C8.57647 54.7002 9.89092 55.2339 11.0309 54.7524L15.4871 52.87C16.627 52.3885 17.1608 51.074 16.6792 49.9341L16.6051 49.7585C16.1235 48.6186 14.8091 48.0848 13.6691 48.5664Z" fill="white"/>
<path d="M71.7855 50.4487L67.3293 48.5664C66.1894 48.0848 64.8749 48.6186 64.3934 49.7585L64.3192 49.9341C63.8377 51.074 64.3714 52.3885 65.5114 52.87L69.9676 54.7524C71.1075 55.2339 72.422 54.7002 72.9035 53.5602L72.9777 53.3846C73.4592 52.2447 72.9255 50.9303 71.7855 50.4487Z" fill="white"/>
<path d="M54.1578 49.0938L59.3484 49.4516C57.7397 52.6589 55.3395 55.4027 52.375 57.4234C49.4671 59.4054 46.1099 60.628 42.6094 60.9797C38.3802 61.4051 34.1216 60.5424 30.3922 58.5047C26.954 56.6273 24.107 53.8295 22.1703 50.425C23.963 50.3635 25.7391 50.2203 27.4984 49.9953C34.4656 58.9094 47.7828 58.425 54.1578 49.0938Z" fill="white"/>
<path d="M18.1547 65.6547L11.8516 65.3844C13.9495 63.2385 16.0417 61.125 18.1281 59.0438C18.9469 58.2281 19.5135 57.7682 19.8281 57.6641C20.6458 57.3932 21.4448 57.5635 22.225 58.175C22.2738 58.2134 22.3179 58.258 22.3563 58.3078C22.9542 59.0859 23.1036 59.8901 22.8047 60.7203C22.6974 61.0161 22.3932 61.4167 21.8922 61.9219C20.6432 63.1792 19.3974 64.4234 18.1547 65.6547Z" fill="white"/>
<path d="M65.525 61.7094C63.3396 61.8052 61.1531 61.8271 58.9656 61.775C58.3812 61.2812 58.0755 60.6766 58.0484 59.9609C57.9969 58.6266 59.1219 57.4953 60.4594 57.5578C61.125 57.588 61.6896 57.8385 62.1531 58.3094C63.2719 59.4448 64.3958 60.5781 65.525 61.7094Z" fill="white"/>
<path d="M65.525 61.7094C66.3875 62.5698 67.2505 63.4318 68.1141 64.2953C68.7234 64.9057 69.0807 65.3458 69.1859 65.6156C70.1344 68.0641 67.1141 69.9547 65.2781 68.1125C63.1771 66.0031 61.0729 63.8906 58.9656 61.775C61.1531 61.8271 63.3396 61.8052 65.525 61.7094Z" fill="white"/>
<path d="M30.7409 63.8948L30.5653 63.8206C29.4254 63.3391 28.1109 63.8729 27.6294 65.0128L25.7482 69.4661C25.2667 70.6061 25.8004 71.9205 26.9404 72.4021L27.116 72.4762C28.2559 72.9578 29.5703 72.424 30.0519 71.2841L31.933 66.8307C32.4146 65.6908 31.8808 64.3764 30.7409 63.8948Z" fill="white"/>
<path d="M50.4347 63.8206L50.2591 63.8948C49.1192 64.3763 48.5854 65.6908 49.067 66.8307L50.9481 71.2841C51.4297 72.424 52.7441 72.9578 53.884 72.4762L54.0596 72.4021C55.1996 71.9205 55.7333 70.6061 55.2518 69.4661L53.3706 65.0128C52.8891 63.8729 51.5746 63.3391 50.4347 63.8206Z" fill="white"/>
<path d="M18.1547 65.6547C17.4891 66.3276 16.826 66.9927 16.1656 67.65C15.576 68.2375 15.1479 68.5828 14.8813 68.6859C13.5547 69.1969 11.9797 68.4625 11.7 67.0062C11.6073 66.526 11.6578 65.9854 11.8516 65.3844L18.1547 65.6547Z" fill="white"/>
<path d="M40.7906 80H40.2188C39.3167 79.8021 38.7094 79.3599 38.3969 78.6734C38.2281 78.3005 38.1448 77.5599 38.1469 76.4516C38.1573 71.2099 38.1615 68.4859 38.1594 68.2797C38.1406 66.6625 39.5172 65.4609 41.0609 65.8609C42.1562 66.1453 42.8453 67.0781 42.8438 68.2031C42.8438 69.0542 42.8432 72.1786 42.8422 77.5766C42.8422 78.8391 42.0172 79.7672 40.7906 80Z" fill="white"/>
</g>
<defs>
<clipPath id="clip0_243_1310">
<rect width="80" height="80" fill="white" transform="translate(0.5)"/>
</clipPath>
</defs>
</svg>
