<svg width="80" height="80" viewBox="0 0 80 80" fill="none" xmlns="http://www.w3.org/2000/svg">
<path d="M73.8999 31.1875C72.9666 30.7927 72.376 30.0807 72.1281 29.0516C72.3703 25.8656 71.0578 23.1766 69.139 20.7047C68.839 20.3172 67.6505 18.8516 65.5734 16.3078C64.6546 15.1818 63.9614 13.937 63.4937 12.5735C63.4906 12.5644 63.485 12.5565 63.4774 12.5507C63.4698 12.5449 63.4608 12.5414 63.4512 12.5408C63.4417 12.5401 63.4322 12.5423 63.4239 12.547C63.4157 12.5517 63.4089 12.5587 63.4046 12.5672C62.3515 14.6516 63.1578 16.5891 64.6187 18.2328C66.0593 19.8547 66.6312 21.7375 66.2328 23.936C65.5182 23.3745 64.8604 22.7651 64.2593 22.1078C64.114 21.0656 63.714 20.3375 62.9765 19.5C61.2718 17.5594 60.3437 15.1688 61.1296 12.6641C61.5968 11.1766 62.6796 9.79533 63.8562 8.78283C64.3812 8.33127 65.2468 8.64689 65.4531 9.29689C65.5052 9.46148 65.4937 9.74377 65.4187 10.1438C65.0718 11.9735 66.1734 13.7235 67.2687 15.0781C69.3166 17.6084 70.3411 18.874 70.3421 18.875C72.0171 20.9531 73.4484 23.2516 73.9796 25.8188C74.3432 27.5729 74.3166 29.3625 73.8999 31.1875Z" fill="white"/>
<path d="M26.8406 27.0344L23.4265 23.8266C22.8921 22.8849 22.4645 22.1834 22.1437 21.7219C19.7249 18.2422 17.9781 15.9735 16.4046 12.7938C16.4021 12.7885 16.3981 12.784 16.3931 12.7809C16.3881 12.7778 16.3824 12.7761 16.3765 12.7761C16.3706 12.7761 16.3649 12.7778 16.3599 12.7809C16.3549 12.784 16.3509 12.7885 16.3484 12.7938C15.5744 14.3792 14.6749 15.9016 13.6499 17.361L12.1765 15.8563C13.5109 13.836 14.6359 11.8453 15.3999 9.49533C15.6359 8.77033 16.4578 8.53596 17.0546 9.00314C17.1765 9.09794 17.2994 9.32919 17.4234 9.69689C18.1338 11.7844 19.1744 13.8136 20.5453 15.7844C21.8911 17.7198 23.0343 19.375 23.9749 20.75C25.2937 22.6766 26.4359 24.786 26.8406 27.0344Z" fill="white"/>
<path d="M31.8968 14.0344L33.7203 16.1031C32.2432 16.1063 30.7687 16.1104 29.2968 16.1156C28.8421 16.1172 28.7281 16.4031 28.7249 16.8219C28.7208 17.1802 28.7249 17.8854 28.7374 18.9375C28.7416 19.3125 28.9281 19.5 29.2968 19.5C32.0177 19.5021 34.7359 19.5021 37.4515 19.5L39.5109 21.5688L33.3234 21.5719C33.31 21.572 33.2971 21.5767 33.2869 21.5853C33.2766 21.5938 33.2697 21.6057 33.2671 21.6188L32.5453 25.486C32.5397 25.5135 32.5427 25.5421 32.5539 25.568C32.565 25.594 32.5838 25.616 32.6078 25.6313L38.9484 29.7828C38.9688 29.7963 38.9927 29.8034 39.0171 29.8034C39.0416 29.8034 39.0655 29.7963 39.0859 29.7828L42.1265 27.7985L43.614 29.3047L40.9874 31.0406C40.9826 31.0438 40.9786 31.048 40.9759 31.0531C40.9731 31.0581 40.9717 31.0638 40.9717 31.0696C40.9717 31.0753 40.9731 31.081 40.9759 31.086C40.9786 31.0911 40.9826 31.0953 40.9874 31.0985L47.3031 35.2469L49.9015 37.7797L51.4921 46.2875L48.9468 43.9406L48.0843 39.3391C48.0822 39.3286 48.0776 39.3187 48.0708 39.3104C48.064 39.3021 48.0553 39.2957 48.0455 39.2916C48.0357 39.2876 48.0251 39.2861 48.0147 39.2873C48.0043 39.2885 47.9944 39.2923 47.9859 39.2985L46.3968 40.436L44.6015 39.1656L46.9031 37.5344C46.9085 37.5305 46.9128 37.5254 46.9158 37.5195C46.9188 37.5136 46.9202 37.507 46.9201 37.5004C46.9199 37.4938 46.9182 37.4873 46.9149 37.4815C46.9117 37.4757 46.9071 37.4708 46.9015 37.4672L39.0953 32.3563C39.0753 32.3433 39.0519 32.3364 39.0281 32.3364C39.0042 32.3364 38.9809 32.3433 38.9609 32.3563L38.1749 32.861C37.5937 32.436 37.0796 31.9448 36.6328 31.3875L37.0031 31.1235C37.0109 31.1176 37.0172 31.1099 37.0215 31.1012C37.0258 31.0924 37.028 31.0828 37.0279 31.0732C37.0277 31.0635 37.0252 31.0541 37.0206 31.0457C37.0161 31.0373 37.0095 31.0302 37.0015 31.025L34.3312 29.2313L30.4171 25.575L31.1421 21.6656C31.1442 21.6548 31.1439 21.6437 31.1411 21.633C31.1384 21.6223 31.1333 21.6124 31.1263 21.6039C31.1193 21.5954 31.1105 21.5885 31.1006 21.5838C31.0906 21.5791 31.0797 21.5766 31.0687 21.5766C30.2156 21.5656 29.0953 21.6844 28.4078 21.4344C27.5046 21.1063 26.9333 20.4537 26.6937 19.4766C26.6729 19.3925 26.6624 19.3065 26.6624 19.2203C26.6614 18.9391 26.6546 18.3354 26.6421 17.4094C26.6307 16.5615 26.6932 15.9802 26.8296 15.6656C27.1265 14.9844 27.6031 14.5011 28.2593 14.2156C28.5552 14.0875 29.1515 14.0261 30.0484 14.0313C30.6692 14.0354 31.2854 14.0365 31.8968 14.0344Z" fill="white"/>
<path d="M40.6546 14.0328L42.9453 16.1016L33.7203 16.1031L31.8968 14.0344L40.6546 14.0328Z" fill="white"/>
<path d="M50.3937 21.0203L49.0328 19.4906C49.2171 19.2938 49.3093 19.1511 49.3093 19.0625C49.3166 18.3073 49.3281 17.5526 49.3437 16.7985C49.3531 16.3349 49.1421 16.1031 48.7109 16.1031C46.7786 16.1073 44.8567 16.1068 42.9453 16.1016L40.6546 14.0328C43.0671 14.0349 45.4781 14.0339 47.8874 14.0297C48.8833 14.0276 49.5265 14.0938 49.8171 14.2281C50.4234 14.5063 50.8786 14.9636 51.1828 15.6C51.3234 15.8927 51.3932 16.3886 51.3921 17.0875C51.3921 17.4969 51.3895 18.1151 51.3843 18.9422C51.3791 19.7922 51.0489 20.4849 50.3937 21.0203Z" fill="white"/>
<path d="M12.1765 15.8563L13.6499 17.361L10.7984 21.4563L9.29369 19.9985L12.1765 15.8563Z" fill="white"/>
<path d="M64.2593 22.1078C64.8604 22.7651 65.5182 23.3745 66.2328 23.936C65.89 25.4807 65.0119 26.5682 63.5984 27.1985C61.7046 28.0432 59.9593 27.8516 58.3624 26.6235C56.876 25.4818 56.2395 23.9526 56.4531 22.036C56.4535 22.0309 56.4524 22.0258 56.4499 22.0214C56.4474 22.0169 56.4436 22.0134 56.439 22.0112C56.4344 22.009 56.4293 22.0082 56.4243 22.009C56.4192 22.0098 56.4146 22.0121 56.4109 22.0156C55.6567 22.75 55.0062 23.5761 54.4593 24.4938L52.9109 23.036C53.5619 22.0495 54.2067 21.2464 54.8453 20.6266C56.0203 19.486 56.8708 18.5563 57.3968 17.8375C57.6333 17.5136 57.8369 17.3266 58.0078 17.2766C58.5968 17.1031 59.1781 17.3938 59.3546 17.9813C59.4098 18.1656 59.3911 18.4438 59.2984 18.8156C59.0687 19.7391 58.6015 21.3453 58.4906 22.7406C58.4374 23.4042 58.6697 24.0156 59.1874 24.575C60.1177 25.5813 61.1911 25.8719 62.4078 25.4469C63.9531 24.9078 64.3968 23.65 64.2593 22.1078Z" fill="white"/>
<path d="M49.0328 19.4906L50.3937 21.0203C49.9499 21.3651 49.4406 21.5438 48.8656 21.5563C48.2187 21.5698 47.5796 21.5761 46.9484 21.575C46.9395 21.5751 46.9307 21.5771 46.9227 21.5809C46.9147 21.5848 46.9076 21.5903 46.902 21.5971C46.8963 21.604 46.8922 21.612 46.89 21.6206C46.8877 21.6292 46.8874 21.6382 46.889 21.6469L49.9015 37.7797L47.3031 35.2469L45.939 27.8781C45.9372 27.8695 45.9334 27.8613 45.9278 27.8544C45.9223 27.8475 45.9152 27.8421 45.9072 27.8385C45.8992 27.835 45.8905 27.8335 45.8819 27.8341C45.8733 27.8348 45.865 27.8375 45.8578 27.8422L43.614 29.3047L42.1265 27.7985L45.4749 25.6094C45.4866 25.6019 45.4957 25.5912 45.5013 25.5784C45.5068 25.5656 45.5085 25.5514 45.5062 25.5375L44.7749 21.6281C44.772 21.612 44.7636 21.5974 44.751 21.5868C44.7384 21.5763 44.7226 21.5704 44.7062 21.5703L39.5109 21.5688L37.4515 19.5L49.0328 19.4906Z" fill="white"/>
<path d="M9.29369 19.9985L10.7984 21.4563C9.51869 23.3406 8.35619 25.2953 7.93276 27.536C7.7338 28.5901 7.81036 29.763 8.16244 31.0547C9.78119 37 16.6796 39.686 21.6671 35.6578L23.1406 37.136C21.7656 38.3016 20.2369 39.0625 18.5546 39.4188C10.0406 41.2219 3.23744 32.3156 6.68276 24.4969C7.34005 23.0063 8.21036 21.5068 9.29369 19.9985Z" fill="white"/>
<path d="M52.9109 23.036L54.4593 24.4938C53.1874 26.9219 52.7671 29.8828 53.8249 32.4766C54.752 34.7474 56.4749 36.3755 58.9937 37.361C59.0107 37.3676 59.0293 37.3696 59.0474 37.3668C59.0655 37.3639 59.0825 37.3563 59.0966 37.3446C59.1108 37.333 59.1216 37.3178 59.1279 37.3007C59.1343 37.2835 59.136 37.2649 59.1328 37.2469C58.7973 35.349 59.1999 33.5927 60.3406 31.9781L61.9343 33.3313C60.8437 34.986 60.9546 36.7047 61.5874 38.5172C61.6162 38.6004 61.6253 38.6897 61.614 38.7781C61.5067 39.5823 61.0536 39.9146 60.2546 39.775C55.9937 39.0328 52.7093 36.2391 51.5359 32.1235C50.6874 29.15 51.3078 25.6969 52.9109 23.036Z" fill="white"/>
<path d="M26.8406 27.0344C26.9333 27.499 26.9807 27.9797 26.9828 28.4766C26.9973 31.962 25.7166 34.8485 23.1406 37.136L21.6671 35.6578C24.0765 33.6266 25.2968 30.5172 24.8109 27.3813C24.6473 26.3271 24.1859 25.1422 23.4265 23.8266L26.8406 27.0344Z" fill="white"/>
<path d="M34.3312 29.2313L32.1687 27.8C32.1628 27.796 32.156 27.7935 32.1489 27.7928C32.1418 27.7921 32.1347 27.7932 32.1281 27.796C32.1216 27.7988 32.1158 27.8032 32.1114 27.8088C32.1071 27.8145 32.1042 27.8211 32.1031 27.8281L31.1937 32.7313L29.3359 31.3641L30.4171 25.575L34.3312 29.2313Z" fill="white"/>
<path d="M13.5265 31.7C14.2244 32.4531 15.1072 32.8948 16.1749 33.025C16.6364 33.0813 16.9307 33.1672 17.0578 33.2828C17.5906 33.7625 17.5203 34.6297 16.8515 34.9938C16.6692 35.0927 16.3937 35.1245 16.0249 35.0891C14.4828 34.9438 13.0624 34.2469 12.0078 33.1094C10.9515 31.9719 10.3624 30.5031 10.3312 28.9547C10.3239 28.5839 10.3765 28.3115 10.489 28.1375C10.9031 27.4985 11.7718 27.4922 12.2109 28.0594C12.3171 28.1948 12.3812 28.4948 12.4031 28.9594C12.4531 30.0334 12.8275 30.9469 13.5265 31.7Z" fill="white"/>
<path d="M72.1281 29.0516C72.376 30.0807 72.9666 30.7927 73.8999 31.1875C73.1374 35.0375 70.8499 38.3156 67.0515 39.6688C66.3781 39.9078 65.5671 40.0922 65.2203 39.2375C65.1661 39.1063 65.1447 38.8563 65.1562 38.4875C65.1812 37.5854 65.163 36.9328 65.1015 36.5297C64.8432 34.8474 64.0973 33.3943 62.864 32.1703C62.8569 32.1632 62.8483 32.1576 62.8388 32.1541C62.8293 32.1506 62.8192 32.1491 62.8091 32.1499C62.799 32.1506 62.7892 32.1535 62.7803 32.1584C62.7715 32.1633 62.7638 32.17 62.7578 32.1781L61.9343 33.3313L60.3406 31.9781C60.8468 31.2063 61.414 30.4776 62.0421 29.7922C62.0733 29.759 62.1084 29.7301 62.1468 29.7063C62.5916 29.4323 63.001 29.4542 63.3749 29.7719C65.6562 31.7125 67.1406 34.2328 67.2343 37.2531C67.2345 37.2642 67.2376 37.275 67.2432 37.2846C67.2489 37.2941 67.2569 37.302 67.2665 37.3075C67.2761 37.313 67.2869 37.3159 67.298 37.316C67.3091 37.316 67.32 37.3132 67.3296 37.3078C70.4156 35.6281 71.864 32.4125 72.1281 29.0516Z" fill="white"/>
<path d="M31.1937 32.7313L30.7468 35.1438C30.7449 35.1542 30.7461 35.165 30.7501 35.1748C30.7542 35.1846 30.7611 35.1929 30.7699 35.1989C30.7787 35.2049 30.789 35.2082 30.7996 35.2084C30.8102 35.2085 30.8206 35.2057 30.8296 35.2L34.114 33.0422L35.5562 34.5766L31.1546 37.4578C31.1478 37.4623 31.1421 37.4683 31.1381 37.4755C31.1342 37.4826 31.132 37.4907 31.1319 37.4988C31.1317 37.507 31.1336 37.5151 31.1373 37.5224C31.141 37.5297 31.1464 37.5359 31.1531 37.5406L38.9703 43.0891C38.9854 43.0996 39.0034 43.1052 39.0218 43.1052C39.0402 43.1052 39.0582 43.0996 39.0734 43.0891L41.0156 41.711C41.2562 42.3641 41.8062 42.8594 42.2687 43.3656L40.9031 44.3516C40.8959 44.3568 40.8901 44.3637 40.8862 44.3716C40.8822 44.3796 40.8803 44.3884 40.8804 44.3974C40.8806 44.4064 40.8828 44.4153 40.887 44.4234C40.8913 44.4314 40.8973 44.4384 40.9046 44.4438L49.4609 50.5313C50.6077 52.0938 51.9734 53.4125 53.5578 54.4875H44.0328L41.3249 52.4188L48.4374 52.4156C48.4435 52.4154 48.4494 52.4134 48.4543 52.4097C48.4592 52.406 48.4628 52.4009 48.4647 52.3951C48.4666 52.3893 48.4666 52.3831 48.4648 52.3772C48.463 52.3714 48.4595 52.3663 48.4546 52.3625L39.0953 45.7203C39.0766 45.7066 39.054 45.6992 39.0307 45.6992C39.0074 45.6992 38.9846 45.7066 38.9656 45.7203L33.6828 49.461L32.2656 47.925L37.1687 44.4453C37.1761 44.4401 37.1822 44.4333 37.1863 44.4252C37.1905 44.4172 37.1927 44.4083 37.1927 44.3992C37.1927 44.3902 37.1905 44.3813 37.1863 44.3733C37.1822 44.3652 37.1761 44.3583 37.1687 44.3531L30.0562 39.3047C30.0483 39.2994 30.0393 39.2961 30.0299 39.295C30.0204 39.294 30.0109 39.2954 30.0021 39.2989C29.9933 39.3025 29.9855 39.3081 29.9794 39.3154C29.9733 39.3227 29.9691 39.3314 29.9671 39.3406L29.3093 42.7875L27.5249 41.05L29.3359 31.3641L31.1937 32.7313Z" fill="white"/>
<path d="M36.6328 31.3875C37.0796 31.9448 37.5937 32.436 38.1749 32.861L35.5562 34.5766L34.114 33.0422L36.6328 31.3875Z" fill="white"/>
<path d="M44.6015 39.1656L46.3968 40.436L42.2687 43.3656C41.8062 42.8594 41.2562 42.3641 41.0156 41.711L44.6015 39.1656Z" fill="white"/>
<path d="M29.3093 42.7875L27.764 51.0438C27.7628 51.051 27.7637 51.0584 27.7666 51.0651C27.7696 51.0719 27.7744 51.0776 27.7806 51.0816C27.7867 51.0856 27.7939 51.0877 27.8012 51.0876C27.8086 51.0875 27.8157 51.0854 27.8218 51.0813L32.2656 47.925L33.6828 49.461L29.5906 52.3625C29.5851 52.366 29.5809 52.3713 29.5786 52.3774C29.5764 52.3835 29.5763 52.3902 29.5782 52.3964C29.5802 52.4027 29.5841 52.4081 29.5895 52.4118C29.5948 52.4156 29.6012 52.4175 29.6078 52.4172L41.3249 52.4188L44.0328 54.4875H26.4921C25.5515 54.0396 24.8541 53.3505 24.3999 52.4203L25.3187 52.3938C25.3411 52.3934 25.3627 52.3853 25.3798 52.3707C25.3969 52.3562 25.4085 52.3362 25.4124 52.3141L27.5249 41.05L29.3093 42.7875Z" fill="white"/>
<path d="M51.4921 46.2875L52.6249 52.3219C52.6293 52.344 52.6412 52.3638 52.6586 52.3781C52.676 52.3923 52.6978 52.4001 52.7203 52.4L56.8984 52.4172L59.7749 54.4875H53.5578C51.9734 53.4125 50.6077 52.0938 49.4609 50.5313L50.2031 51.0641C50.2102 51.0688 50.2187 51.0715 50.2273 51.0716C50.2359 51.0718 50.2444 51.0694 50.2516 51.0649C50.2588 51.0604 50.2644 51.0539 50.2677 51.0462C50.271 51.0386 50.2719 51.0301 50.2703 51.0219L48.9468 43.9406L51.4921 46.2875Z" fill="white"/>
<path d="M24.3999 52.4203C24.8541 53.3505 25.5515 54.0396 26.4921 54.4875L16.0703 54.4875C15.9994 54.4875 15.9314 54.5157 15.8813 54.5658C15.8312 54.6159 15.8031 54.6838 15.8031 54.7547V56.3688C15.8031 56.4367 15.8301 56.5019 15.8781 56.55C15.9262 56.598 15.9914 56.625 16.0593 56.625L31.9843 56.6266C32.726 57.163 33.3765 57.7901 33.9359 58.5078C33.9942 58.5828 34.1302 58.6464 34.3437 58.6985L33.3328 58.7078C33.3109 58.7082 33.2901 58.7171 33.2746 58.7325C33.2592 58.748 33.2503 58.7688 33.2499 58.7906C33.239 59.8125 33.3687 60.8313 33.0781 61.6266C32.5953 62.9516 31.4187 63.8078 29.9421 63.7703C29.813 63.7672 29.6723 63.7672 29.5203 63.7703C29.494 63.7707 29.469 63.7815 29.4506 63.8002C29.4321 63.8189 29.4218 63.8441 29.4218 63.8703C29.4166 66.1266 29.4182 67.3818 29.4265 67.636C29.4588 68.6453 29.3854 69.3516 29.2062 69.7547C28.8416 70.5735 28.1953 71.112 27.2671 71.3703C27.113 71.413 26.6953 71.4334 26.014 71.4313C24.7843 71.4266 23.7796 70.8578 23.2968 69.7438C23.1302 69.3604 23.0604 68.7667 23.0874 67.9625C23.0947 67.7573 23.0958 66.374 23.0906 63.8125C23.0906 63.8057 23.0892 63.7989 23.0865 63.7926C23.0838 63.7864 23.0798 63.7807 23.0748 63.776C23.0699 63.7713 23.064 63.7677 23.0575 63.7654C23.0511 63.7631 23.0443 63.7621 23.0374 63.7625C21.3859 63.861 19.9421 63.2188 19.4031 61.561C19.1406 60.7531 19.3046 59.5016 19.2609 58.786C19.2597 58.7619 19.2493 58.7393 19.2318 58.7227C19.2144 58.7061 19.1912 58.6969 19.1671 58.6969H15.8874C15.8282 58.6969 15.7696 58.6906 15.7124 58.6781C14.7489 58.4677 14.1244 57.9281 13.839 57.0594C13.6359 56.4391 13.7593 55.5219 13.7296 54.8266C13.6656 53.3406 14.9031 52.3938 16.3281 52.3985C19.0687 52.4078 21.7593 52.4151 24.3999 52.4203ZM26.2546 69.3547C26.914 69.3547 27.3531 69.3031 27.3468 68.5078C27.3406 67.6005 27.3406 65.6776 27.3468 62.7391C27.3479 62.3735 27.4989 62.0865 27.7999 61.8781C28.6046 61.3219 30.9281 62.3297 31.1484 60.7969C31.1796 60.5792 31.1859 59.9151 31.1671 58.8047C31.1667 58.7783 31.1562 58.7531 31.1379 58.7344C31.1195 58.7158 31.0947 58.7051 31.0687 58.7047C30.8166 58.6995 29.2119 58.6969 26.2546 58.6969C23.2963 58.6969 21.6916 58.6995 21.4406 58.7047C21.4143 58.7047 21.3891 58.7152 21.3704 58.7339C21.3517 58.7526 21.341 58.778 21.3406 58.8047C21.3218 59.9151 21.3281 60.5792 21.3593 60.7969C21.5812 62.3297 23.9046 61.3219 24.7093 61.8781C25.0104 62.0865 25.1614 62.3735 25.1624 62.7391C25.1687 65.6776 25.1687 67.6005 25.1624 68.5078C25.1562 69.3047 25.5953 69.3547 26.2546 69.3547Z" fill="white"/>
<path d="M61.5296 58.6922L59.9828 56.6266L61.9687 56.625C62.0404 56.625 62.1091 56.5967 62.1598 56.5463C62.2105 56.4959 62.239 56.4275 62.239 56.3563V54.7547C62.239 54.6843 62.211 54.6167 62.1612 54.5669C62.1114 54.5171 62.0438 54.4891 61.9734 54.4891L59.7749 54.4875L56.8984 52.4172C58.5255 52.4151 60.1453 52.4156 61.7578 52.4188C62.914 52.4198 63.702 52.8948 64.1218 53.8438C64.4406 54.5688 64.2859 55.7985 64.3109 56.3672C64.3249 56.7203 64.1906 57.2031 63.9906 57.5297C63.4614 58.3974 62.6411 58.7849 61.5296 58.6922Z" fill="white"/>
<path d="M44.989 56.6266L46.8484 58.7047C46.864 59.263 46.8708 59.799 46.8687 60.3125C46.8624 61.3875 47.2906 61.7219 48.4187 61.6938C48.8947 61.6813 49.3041 61.6839 49.6468 61.7016C50.5265 61.7438 50.7046 62.3391 50.7015 63.1375C50.6921 65.2146 50.6906 67.0464 50.6968 68.6328C50.6984 69.1906 51.0765 69.3563 51.6015 69.3578C52.4531 69.3578 52.8796 69.3797 52.8765 68.3688C52.8734 67.2459 52.8739 66.1203 52.8781 64.9922C53.6874 65.3985 54.3453 66.1328 54.9499 66.7953C54.9515 67.6969 55.0671 68.9406 54.7624 69.686C54.3218 70.7641 53.4614 71.3474 52.1812 71.436C51.952 71.4516 51.6052 71.4427 51.1406 71.4094C49.6031 71.3016 48.6249 70.0438 48.6218 68.5188C48.6177 65.5271 48.6187 63.9781 48.6249 63.8719C48.626 63.8483 48.6182 63.8252 48.6032 63.8071C48.5882 63.7889 48.567 63.7769 48.5437 63.7735C48.5239 63.7714 48.3088 63.7688 47.8984 63.7656C46.4765 63.7531 45.3328 62.8016 44.9249 61.5156C44.6812 60.7453 44.814 59.6906 44.789 58.7938C44.7882 58.7686 44.7776 58.7448 44.7596 58.7273C44.7415 58.7098 44.7173 58.7 44.6921 58.7L34.3437 58.6985C34.1302 58.6464 33.9942 58.5828 33.9359 58.5078C33.3765 57.7901 32.726 57.163 31.9843 56.6266H44.989Z" fill="white"/>
<path d="M59.9828 56.6266L61.5296 58.6922L58.8453 58.6953C58.8298 58.6953 58.8149 58.7014 58.8038 58.7122C58.7927 58.723 58.7863 58.7377 58.7859 58.7531C58.7723 59.3136 58.7729 59.8099 58.7874 60.2422C58.8468 62.0375 57.8765 63.4 56.0609 63.7438C55.8328 63.7875 55.2999 63.7688 55.0468 63.7735C55.0221 63.7743 54.9986 63.7847 54.9814 63.8025C54.9642 63.8202 54.9546 63.844 54.9546 63.8688L54.9499 66.7953C54.3453 66.1328 53.6874 65.3985 52.8781 64.9922C52.876 64.3953 52.8749 63.7959 52.8749 63.1938C52.876 62.6584 52.9307 62.313 53.039 62.1578C53.2505 61.8568 53.5656 61.7021 53.9843 61.6938C54.5812 61.6823 54.9864 61.6818 55.1999 61.6922C56.0624 61.7344 56.6953 61.4547 56.7046 60.5453C56.7078 60.2516 56.7078 59.6537 56.7046 58.7516C56.7046 58.7379 56.6994 58.7248 56.69 58.7151C56.6806 58.7055 56.6679 58.7 56.6546 58.7L46.8484 58.7047L44.989 56.6266H59.9828Z" fill="white"/>
</svg>
