<svg width="70" height="64" viewBox="0 0 70 64" fill="none" xmlns="http://www.w3.org/2000/svg">
<path d="M68.8999 23.1875C67.9666 22.7927 67.376 22.0807 67.1281 21.0516C67.3703 17.8656 66.0578 15.1766 64.139 12.7047C63.839 12.3172 62.6505 10.8516 60.5734 8.30783C59.6546 7.18179 58.9614 5.937 58.4937 4.57346C58.4906 4.56444 58.485 4.55652 58.4774 4.55071C58.4698 4.54489 58.4608 4.54143 58.4512 4.54077C58.4417 4.5401 58.4322 4.54225 58.4239 4.54695C58.4157 4.55166 58.4089 4.5587 58.4046 4.56721C57.3515 6.65158 58.1578 8.58908 59.6187 10.2328C61.0593 11.8547 61.6312 13.7375 61.2328 15.936C60.5182 15.3745 59.8604 14.7651 59.2593 14.1078C59.114 13.0656 58.714 12.3375 57.9765 11.5C56.2718 9.55939 55.3437 7.16877 56.1296 4.66408C56.5968 3.17658 57.6796 1.79533 58.8562 0.782832C59.3812 0.331269 60.2468 0.646894 60.4531 1.29689C60.5052 1.46148 60.4937 1.74377 60.4187 2.14377C60.0718 3.97346 61.1734 5.72346 62.2687 7.07814C64.3166 9.60835 65.3411 10.874 65.3421 10.875C67.0171 12.9531 68.4484 15.2516 68.9796 17.8188C69.3432 19.5729 69.3166 21.3625 68.8999 23.1875Z" fill="#2054A6"/>
<path d="M21.8406 19.0344L18.4265 15.8266C17.8921 14.8849 17.4645 14.1834 17.1437 13.7219C14.7249 10.2422 12.9781 7.97346 11.4046 4.79377C11.4021 4.78849 11.3981 4.78403 11.3931 4.78091C11.3881 4.77779 11.3824 4.77614 11.3765 4.77614C11.3706 4.77614 11.3649 4.77779 11.3599 4.78091C11.3549 4.78403 11.3509 4.78849 11.3484 4.79377C10.5744 6.37919 9.67494 7.90158 8.64994 9.36096L7.17651 7.85627C8.51088 5.83596 9.63588 3.84533 10.3999 1.49533C10.6359 0.770332 11.4578 0.535957 12.0546 1.00314C12.1765 1.09794 12.2994 1.32919 12.4234 1.69689C13.1338 3.78439 14.1744 5.81356 15.5453 7.78439C16.8911 9.71981 18.0343 11.375 18.9749 12.75C20.2937 14.6766 21.4359 16.786 21.8406 19.0344Z" fill="#2054A6"/>
<path d="M26.8968 6.03439L28.7203 8.10314C27.2432 8.10627 25.7687 8.11044 24.2968 8.11564C23.8421 8.11721 23.7281 8.40314 23.7249 8.82189C23.7208 9.18023 23.7249 9.88544 23.7374 10.9375C23.7416 11.3125 23.9281 11.5 24.2968 11.5C27.0177 11.5021 29.7359 11.5021 32.4515 11.5L34.5109 13.5688L28.3234 13.5719C28.31 13.572 28.2971 13.5767 28.2869 13.5853C28.2766 13.5938 28.2697 13.6057 28.2671 13.6188L27.5453 17.486C27.5397 17.5135 27.5427 17.5421 27.5539 17.568C27.565 17.594 27.5838 17.616 27.6078 17.6313L33.9484 21.7828C33.9688 21.7963 33.9927 21.8034 34.0171 21.8034C34.0416 21.8034 34.0655 21.7963 34.0859 21.7828L37.1265 19.7985L38.614 21.3047L35.9874 23.0406C35.9826 23.0438 35.9786 23.048 35.9759 23.0531C35.9731 23.0581 35.9717 23.0638 35.9717 23.0696C35.9717 23.0753 35.9731 23.081 35.9759 23.086C35.9786 23.0911 35.9826 23.0953 35.9874 23.0985L42.3031 27.2469L44.9015 29.7797L46.4921 38.2875L43.9468 35.9406L43.0843 31.3391C43.0822 31.3286 43.0776 31.3187 43.0708 31.3104C43.064 31.3021 43.0553 31.2957 43.0455 31.2916C43.0357 31.2876 43.0251 31.2861 43.0147 31.2873C43.0043 31.2885 42.9944 31.2923 42.9859 31.2985L41.3968 32.436L39.6015 31.1656L41.9031 29.5344C41.9085 29.5305 41.9128 29.5254 41.9158 29.5195C41.9188 29.5136 41.9202 29.507 41.9201 29.5004C41.9199 29.4938 41.9182 29.4873 41.9149 29.4815C41.9117 29.4757 41.9071 29.4708 41.9015 29.4672L34.0953 24.3563C34.0753 24.3433 34.0519 24.3364 34.0281 24.3364C34.0042 24.3364 33.9809 24.3433 33.9609 24.3563L33.1749 24.861C32.5937 24.436 32.0796 23.9448 31.6328 23.3875L32.0031 23.1235C32.0109 23.1176 32.0172 23.1099 32.0215 23.1012C32.0258 23.0924 32.028 23.0828 32.0279 23.0732C32.0277 23.0635 32.0252 23.0541 32.0206 23.0457C32.0161 23.0373 32.0095 23.0302 32.0015 23.025L29.3312 21.2313L25.4171 17.575L26.1421 13.6656C26.1442 13.6548 26.1439 13.6437 26.1411 13.633C26.1384 13.6223 26.1333 13.6124 26.1263 13.6039C26.1193 13.5954 26.1105 13.5885 26.1006 13.5838C26.0906 13.5791 26.0797 13.5766 26.0687 13.5766C25.2156 13.5656 24.0953 13.6844 23.4078 13.4344C22.5046 13.1063 21.9333 12.4537 21.6937 11.4766C21.6729 11.3925 21.6624 11.3065 21.6624 11.2203C21.6614 10.9391 21.6546 10.3354 21.6421 9.40939C21.6307 8.56148 21.6932 7.98023 21.8296 7.66564C22.1265 6.98439 22.6031 6.50106 23.2593 6.21564C23.5552 6.08752 24.1515 6.02606 25.0484 6.03127C25.6692 6.03544 26.2854 6.03648 26.8968 6.03439Z" fill="#2054A6"/>
<path d="M35.6546 6.03283L37.9453 8.10158L28.7203 8.10314L26.8968 6.03439L35.6546 6.03283Z" fill="#2054A6"/>
<path d="M45.3937 13.0203L44.0328 11.4906C44.2171 11.2938 44.3093 11.1511 44.3093 11.0625C44.3166 10.3073 44.3281 9.55262 44.3437 8.79846C44.3531 8.33492 44.1421 8.10314 43.7109 8.10314C41.7786 8.10731 39.8567 8.10679 37.9453 8.10158L35.6546 6.03283C38.0671 6.03491 40.4781 6.03387 42.8874 6.02971C43.8833 6.02762 44.5265 6.09377 44.8171 6.22814C45.4234 6.50627 45.8786 6.96356 46.1828 7.60002C46.3234 7.89273 46.3932 8.38856 46.3921 9.08752C46.3921 9.49689 46.3895 10.1151 46.3843 10.9422C46.3791 11.7922 46.0489 12.4849 45.3937 13.0203Z" fill="#2054A6"/>
<path d="M7.17651 7.85627L8.64994 9.36096L5.79838 13.4563L4.29369 11.9985L7.17651 7.85627Z" fill="#2054A6"/>
<path d="M59.2593 14.1078C59.8604 14.7651 60.5182 15.3745 61.2328 15.936C60.89 17.4807 60.0119 18.5682 58.5984 19.1985C56.7046 20.0432 54.9593 19.8516 53.3624 18.6235C51.876 17.4818 51.2395 15.9526 51.4531 14.036C51.4535 14.0309 51.4524 14.0258 51.4499 14.0214C51.4474 14.0169 51.4436 14.0134 51.439 14.0112C51.4344 14.009 51.4293 14.0082 51.4243 14.009C51.4192 14.0098 51.4146 14.0121 51.4109 14.0156C50.6567 14.75 50.0062 15.5761 49.4593 16.4938L47.9109 15.036C48.5619 14.0495 49.2067 13.2464 49.8453 12.6266C51.0203 11.486 51.8708 10.5563 52.3968 9.83752C52.6333 9.51356 52.8369 9.32658 53.0078 9.27658C53.5968 9.10314 54.1781 9.39377 54.3546 9.98127C54.4098 10.1656 54.3911 10.4438 54.2984 10.8156C54.0687 11.7391 53.6015 13.3453 53.4906 14.7406C53.4374 15.4042 53.6697 16.0156 54.1874 16.575C55.1177 17.5813 56.1911 17.8719 57.4078 17.4469C58.9531 16.9078 59.3968 15.65 59.2593 14.1078Z" fill="#2054A6"/>
<path d="M44.0328 11.4906L45.3937 13.0203C44.9499 13.3651 44.4406 13.5438 43.8656 13.5563C43.2187 13.5698 42.5796 13.5761 41.9484 13.575C41.9395 13.5751 41.9307 13.5771 41.9227 13.5809C41.9147 13.5848 41.9076 13.5903 41.902 13.5971C41.8963 13.604 41.8922 13.612 41.89 13.6206C41.8877 13.6292 41.8874 13.6382 41.889 13.6469L44.9015 29.7797L42.3031 27.2469L40.939 19.8781C40.9372 19.8695 40.9334 19.8613 40.9278 19.8544C40.9223 19.8475 40.9152 19.8421 40.9072 19.8385C40.8992 19.835 40.8905 19.8335 40.8819 19.8341C40.8733 19.8348 40.865 19.8375 40.8578 19.8422L38.614 21.3047L37.1265 19.7985L40.4749 17.6094C40.4866 17.6019 40.4957 17.5912 40.5013 17.5784C40.5068 17.5656 40.5085 17.5514 40.5062 17.5375L39.7749 13.6281C39.772 13.612 39.7636 13.5974 39.751 13.5868C39.7384 13.5763 39.7226 13.5704 39.7062 13.5703L34.5109 13.5688L32.4515 11.5L44.0328 11.4906Z" fill="#2054A6"/>
<path d="M4.29369 11.9985L5.79838 13.4563C4.51869 15.3406 3.35619 17.2953 2.93276 19.536C2.7338 20.5901 2.81036 21.763 3.16244 23.0547C4.78119 29 11.6796 31.686 16.6671 27.6578L18.1406 29.136C16.7656 30.3016 15.2369 31.0625 13.5546 31.4188C5.04057 33.2219 -1.76256 24.3156 1.68276 16.4969C2.34005 15.0063 3.21036 13.5068 4.29369 11.9985Z" fill="#2054A6"/>
<path d="M47.9109 15.036L49.4593 16.4938C48.1874 18.9219 47.7671 21.8828 48.8249 24.4766C49.752 26.7474 51.4749 28.3755 53.9937 29.361C54.0107 29.3676 54.0293 29.3696 54.0474 29.3668C54.0655 29.3639 54.0825 29.3563 54.0966 29.3446C54.1108 29.333 54.1216 29.3178 54.1279 29.3007C54.1343 29.2835 54.136 29.2649 54.1328 29.2469C53.7973 27.349 54.1999 25.5927 55.3406 23.9781L56.9343 25.3313C55.8437 26.986 55.9546 28.7047 56.5874 30.5172C56.6162 30.6004 56.6253 30.6897 56.614 30.7781C56.5067 31.5823 56.0536 31.9146 55.2546 31.775C50.9937 31.0328 47.7093 28.2391 46.5359 24.1235C45.6874 21.15 46.3078 17.6969 47.9109 15.036Z" fill="#2054A6"/>
<path d="M21.8406 19.0344C21.9333 19.499 21.9807 19.9797 21.9828 20.4766C21.9973 23.962 20.7166 26.8485 18.1406 29.136L16.6671 27.6578C19.0765 25.6266 20.2968 22.5172 19.8109 19.3813C19.6473 18.3271 19.1859 17.1422 18.4265 15.8266L21.8406 19.0344Z" fill="#2054A6"/>
<path d="M29.3312 21.2313L27.1687 19.8C27.1628 19.796 27.156 19.7935 27.1489 19.7928C27.1418 19.7921 27.1347 19.7932 27.1281 19.796C27.1216 19.7988 27.1158 19.8032 27.1114 19.8088C27.1071 19.8145 27.1042 19.8211 27.1031 19.8281L26.1937 24.7313L24.3359 23.3641L25.4171 17.575L29.3312 21.2313Z" fill="#2054A6"/>
<path d="M8.52651 23.7C9.22442 24.4531 10.1072 24.8948 11.1749 25.025C11.6364 25.0813 11.9307 25.1672 12.0578 25.2828C12.5906 25.7625 12.5203 26.6297 11.8515 26.9938C11.6692 27.0927 11.3937 27.1245 11.0249 27.0891C9.48276 26.9438 8.06244 26.2469 7.00776 25.1094C5.95151 23.9719 5.36245 22.5031 5.3312 20.9547C5.3239 20.5839 5.37651 20.3115 5.48901 20.1375C5.90307 19.4985 6.77182 19.4922 7.21088 20.0594C7.31713 20.1948 7.38119 20.4948 7.40307 20.9594C7.45307 22.0334 7.82755 22.9469 8.52651 23.7Z" fill="#2054A6"/>
<path d="M67.1281 21.0516C67.376 22.0807 67.9666 22.7927 68.8999 23.1875C68.1374 27.0375 65.8499 30.3156 62.0515 31.6688C61.3781 31.9078 60.5671 32.0922 60.2203 31.2375C60.1661 31.1063 60.1447 30.8563 60.1562 30.4875C60.1812 29.5854 60.163 28.9328 60.1015 28.5297C59.8432 26.8474 59.0973 25.3943 57.864 24.1703C57.8569 24.1632 57.8483 24.1576 57.8388 24.1541C57.8293 24.1506 57.8192 24.1491 57.8091 24.1499C57.799 24.1506 57.7892 24.1535 57.7803 24.1584C57.7715 24.1633 57.7638 24.17 57.7578 24.1781L56.9343 25.3313L55.3406 23.9781C55.8468 23.2063 56.414 22.4776 57.0421 21.7922C57.0733 21.759 57.1084 21.7301 57.1468 21.7063C57.5916 21.4323 58.001 21.4542 58.3749 21.7719C60.6562 23.7125 62.1406 26.2328 62.2343 29.2531C62.2345 29.2642 62.2376 29.275 62.2432 29.2846C62.2489 29.2941 62.2569 29.302 62.2665 29.3075C62.2761 29.313 62.2869 29.3159 62.298 29.316C62.3091 29.316 62.32 29.3132 62.3296 29.3078C65.4156 27.6281 66.864 24.4125 67.1281 21.0516Z" fill="#2054A6"/>
<path d="M26.1937 24.7313L25.7468 27.1438C25.7449 27.1542 25.7461 27.165 25.7501 27.1748C25.7542 27.1846 25.7611 27.1929 25.7699 27.1989C25.7787 27.2049 25.789 27.2082 25.7996 27.2084C25.8102 27.2085 25.8206 27.2057 25.8296 27.2L29.114 25.0422L30.5562 26.5766L26.1546 29.4578C26.1478 29.4623 26.1421 29.4683 26.1381 29.4755C26.1342 29.4826 26.132 29.4907 26.1319 29.4988C26.1317 29.507 26.1336 29.5151 26.1373 29.5224C26.141 29.5297 26.1464 29.5359 26.1531 29.5406L33.9703 35.0891C33.9854 35.0996 34.0034 35.1052 34.0218 35.1052C34.0402 35.1052 34.0582 35.0996 34.0734 35.0891L36.0156 33.711C36.2562 34.3641 36.8062 34.8594 37.2687 35.3656L35.9031 36.3516C35.8959 36.3568 35.8901 36.3637 35.8862 36.3716C35.8822 36.3796 35.8803 36.3884 35.8804 36.3974C35.8806 36.4064 35.8828 36.4153 35.887 36.4234C35.8913 36.4314 35.8973 36.4384 35.9046 36.4438L44.4609 42.5313C45.6077 44.0938 46.9734 45.4125 48.5578 46.4875H39.0328L36.3249 44.4188L43.4374 44.4156C43.4435 44.4154 43.4494 44.4134 43.4543 44.4097C43.4592 44.406 43.4628 44.4009 43.4647 44.3951C43.4666 44.3893 43.4666 44.3831 43.4648 44.3772C43.463 44.3714 43.4595 44.3663 43.4546 44.3625L34.0953 37.7203C34.0766 37.7066 34.054 37.6992 34.0307 37.6992C34.0074 37.6992 33.9846 37.7066 33.9656 37.7203L28.6828 41.461L27.2656 39.925L32.1687 36.4453C32.1761 36.4401 32.1822 36.4333 32.1863 36.4252C32.1905 36.4172 32.1927 36.4083 32.1927 36.3992C32.1927 36.3902 32.1905 36.3813 32.1863 36.3733C32.1822 36.3652 32.1761 36.3583 32.1687 36.3531L25.0562 31.3047C25.0483 31.2994 25.0393 31.2961 25.0299 31.295C25.0204 31.294 25.0109 31.2954 25.0021 31.2989C24.9933 31.3025 24.9855 31.3081 24.9794 31.3154C24.9733 31.3227 24.9691 31.3314 24.9671 31.3406L24.3093 34.7875L22.5249 33.05L24.3359 23.3641L26.1937 24.7313Z" fill="#2054A6"/>
<path d="M31.6328 23.3875C32.0796 23.9448 32.5937 24.436 33.1749 24.861L30.5562 26.5766L29.114 25.0422L31.6328 23.3875Z" fill="#2054A6"/>
<path d="M39.6015 31.1656L41.3968 32.436L37.2687 35.3656C36.8062 34.8594 36.2562 34.3641 36.0156 33.711L39.6015 31.1656Z" fill="#2054A6"/>
<path d="M24.3093 34.7875L22.764 43.0438C22.7628 43.051 22.7637 43.0584 22.7666 43.0651C22.7696 43.0719 22.7744 43.0776 22.7806 43.0816C22.7867 43.0856 22.7939 43.0877 22.8012 43.0876C22.8086 43.0875 22.8157 43.0854 22.8218 43.0813L27.2656 39.925L28.6828 41.461L24.5906 44.3625C24.5851 44.366 24.5809 44.3713 24.5786 44.3774C24.5764 44.3835 24.5763 44.3902 24.5782 44.3964C24.5802 44.4027 24.5841 44.4081 24.5895 44.4118C24.5948 44.4156 24.6012 44.4175 24.6078 44.4172L36.3249 44.4188L39.0328 46.4875H21.4921C20.5515 46.0396 19.8541 45.3505 19.3999 44.4203L20.3187 44.3938C20.3411 44.3934 20.3627 44.3853 20.3798 44.3707C20.3969 44.3562 20.4085 44.3362 20.4124 44.3141L22.5249 33.05L24.3093 34.7875Z" fill="#2054A6"/>
<path d="M46.4921 38.2875L47.6249 44.3219C47.6293 44.344 47.6412 44.3638 47.6586 44.3781C47.676 44.3923 47.6978 44.4001 47.7203 44.4L51.8984 44.4172L54.7749 46.4875H48.5578C46.9734 45.4125 45.6077 44.0938 44.4609 42.5313L45.2031 43.0641C45.2102 43.0688 45.2187 43.0715 45.2273 43.0716C45.2359 43.0718 45.2444 43.0694 45.2516 43.0649C45.2588 43.0604 45.2644 43.0539 45.2677 43.0462C45.271 43.0386 45.2719 43.0301 45.2703 43.0219L43.9468 35.9406L46.4921 38.2875Z" fill="#2054A6"/>
<path d="M19.3999 44.4203C19.8541 45.3505 20.5515 46.0396 21.4921 46.4875L11.0703 46.4875C10.9994 46.4875 10.9314 46.5157 10.8813 46.5658C10.8312 46.6159 10.8031 46.6838 10.8031 46.7547V48.3688C10.8031 48.4367 10.8301 48.5019 10.8781 48.55C10.9262 48.598 10.9914 48.625 11.0593 48.625L26.9843 48.6266C27.726 49.163 28.3765 49.7901 28.9359 50.5078C28.9942 50.5828 29.1302 50.6464 29.3437 50.6985L28.3328 50.7078C28.3109 50.7082 28.2901 50.7171 28.2746 50.7325C28.2592 50.748 28.2503 50.7688 28.2499 50.7906C28.239 51.8125 28.3687 52.8313 28.0781 53.6266C27.5953 54.9516 26.4187 55.8078 24.9421 55.7703C24.813 55.7672 24.6723 55.7672 24.5203 55.7703C24.494 55.7707 24.469 55.7815 24.4506 55.8002C24.4321 55.8189 24.4218 55.8441 24.4218 55.8703C24.4166 58.1266 24.4182 59.3818 24.4265 59.636C24.4588 60.6453 24.3854 61.3516 24.2062 61.7547C23.8416 62.5735 23.1953 63.112 22.2671 63.3703C22.113 63.413 21.6953 63.4334 21.014 63.4313C19.7843 63.4266 18.7796 62.8578 18.2968 61.7438C18.1302 61.3604 18.0604 60.7667 18.0874 59.9625C18.0947 59.7573 18.0958 58.374 18.0906 55.8125C18.0906 55.8057 18.0892 55.7989 18.0865 55.7926C18.0838 55.7864 18.0798 55.7807 18.0748 55.776C18.0699 55.7713 18.064 55.7677 18.0575 55.7654C18.0511 55.7631 18.0443 55.7621 18.0374 55.7625C16.3859 55.861 14.9421 55.2188 14.4031 53.561C14.1406 52.7531 14.3046 51.5016 14.2609 50.786C14.2597 50.7619 14.2493 50.7393 14.2318 50.7227C14.2144 50.7061 14.1912 50.6969 14.1671 50.6969H10.8874C10.8282 50.6969 10.7696 50.6906 10.7124 50.6781C9.7489 50.4677 9.12442 49.9281 8.83901 49.0594C8.63588 48.4391 8.75932 47.5219 8.72963 46.8266C8.66557 45.3406 9.90307 44.3938 11.3281 44.3985C14.0687 44.4078 16.7593 44.4151 19.3999 44.4203ZM21.2546 61.3547C21.914 61.3547 22.3531 61.3031 22.3468 60.5078C22.3406 59.6005 22.3406 57.6776 22.3468 54.7391C22.3479 54.3735 22.4989 54.0865 22.7999 53.8781C23.6046 53.3219 25.9281 54.3297 26.1484 52.7969C26.1796 52.5792 26.1859 51.9151 26.1671 50.8047C26.1667 50.7783 26.1562 50.7531 26.1379 50.7344C26.1195 50.7158 26.0947 50.7051 26.0687 50.7047C25.8166 50.6995 24.2119 50.6969 21.2546 50.6969C18.2963 50.6969 16.6916 50.6995 16.4406 50.7047C16.4143 50.7047 16.3891 50.7152 16.3704 50.7339C16.3517 50.7526 16.341 50.778 16.3406 50.8047C16.3218 51.9151 16.3281 52.5792 16.3593 52.7969C16.5812 54.3297 18.9046 53.3219 19.7093 53.8781C20.0104 54.0865 20.1614 54.3735 20.1624 54.7391C20.1687 57.6776 20.1687 59.6005 20.1624 60.5078C20.1562 61.3047 20.5953 61.3547 21.2546 61.3547Z" fill="#2054A6"/>
<path d="M56.5296 50.6922L54.9828 48.6266L56.9687 48.625C57.0404 48.625 57.1091 48.5967 57.1598 48.5463C57.2105 48.4959 57.239 48.4275 57.239 48.3563V46.7547C57.239 46.6843 57.211 46.6167 57.1612 46.5669C57.1114 46.5171 57.0438 46.4891 56.9734 46.4891L54.7749 46.4875L51.8984 44.4172C53.5255 44.4151 55.1453 44.4156 56.7578 44.4188C57.914 44.4198 58.702 44.8948 59.1218 45.8438C59.4406 46.5688 59.2859 47.7985 59.3109 48.3672C59.3249 48.7203 59.1906 49.2031 58.9906 49.5297C58.4614 50.3974 57.6411 50.7849 56.5296 50.6922Z" fill="#2054A6"/>
<path d="M39.989 48.6266L41.8484 50.7047C41.864 51.263 41.8708 51.799 41.8687 52.3125C41.8624 53.3875 42.2906 53.7219 43.4187 53.6938C43.8947 53.6813 44.3041 53.6839 44.6468 53.7016C45.5265 53.7438 45.7046 54.3391 45.7015 55.1375C45.6921 57.2146 45.6906 59.0464 45.6968 60.6328C45.6984 61.1906 46.0765 61.3563 46.6015 61.3578C47.4531 61.3578 47.8796 61.3797 47.8765 60.3688C47.8734 59.2459 47.8739 58.1203 47.8781 56.9922C48.6874 57.3985 49.3453 58.1328 49.9499 58.7953C49.9515 59.6969 50.0671 60.9406 49.7624 61.686C49.3218 62.7641 48.4614 63.3474 47.1812 63.436C46.952 63.4516 46.6052 63.4427 46.1406 63.4094C44.6031 63.3016 43.6249 62.0438 43.6218 60.5188C43.6177 57.5271 43.6187 55.9781 43.6249 55.8719C43.626 55.8483 43.6182 55.8252 43.6032 55.8071C43.5882 55.7889 43.567 55.7769 43.5437 55.7735C43.5239 55.7714 43.3088 55.7688 42.8984 55.7656C41.4765 55.7531 40.3328 54.8016 39.9249 53.5156C39.6812 52.7453 39.814 51.6906 39.789 50.7938C39.7882 50.7686 39.7776 50.7448 39.7596 50.7273C39.7415 50.7098 39.7173 50.7 39.6921 50.7L29.3437 50.6985C29.1302 50.6464 28.9942 50.5828 28.9359 50.5078C28.3765 49.7901 27.726 49.163 26.9843 48.6266H39.989Z" fill="#2054A6"/>
<path d="M54.9828 48.6266L56.5296 50.6922L53.8453 50.6953C53.8298 50.6953 53.8149 50.7014 53.8038 50.7122C53.7927 50.723 53.7863 50.7377 53.7859 50.7531C53.7723 51.3136 53.7729 51.8099 53.7874 52.2422C53.8468 54.0375 52.8765 55.4 51.0609 55.7438C50.8328 55.7875 50.2999 55.7688 50.0468 55.7735C50.0221 55.7743 49.9986 55.7847 49.9814 55.8025C49.9642 55.8202 49.9546 55.844 49.9546 55.8688L49.9499 58.7953C49.3453 58.1328 48.6874 57.3985 47.8781 56.9922C47.876 56.3953 47.8749 55.7959 47.8749 55.1938C47.876 54.6584 47.9307 54.313 48.039 54.1578C48.2505 53.8568 48.5656 53.7021 48.9843 53.6938C49.5812 53.6823 49.9864 53.6818 50.1999 53.6922C51.0624 53.7344 51.6953 53.4547 51.7046 52.5453C51.7078 52.2516 51.7078 51.6537 51.7046 50.7516C51.7046 50.7379 51.6994 50.7248 51.69 50.7151C51.6806 50.7055 51.6679 50.7 51.6546 50.7L41.8484 50.7047L39.989 48.6266H54.9828Z" fill="#2054A6"/>
</svg>
