<svg width="78" height="78" viewBox="0 0 78 78" fill="none" xmlns="http://www.w3.org/2000/svg">
<path d="M67.7437 10.2001C66.9187 10.274 66.0926 10.2657 65.2655 10.1751L65.2468 7.82819C65.2468 7.80747 65.2386 7.7876 65.2239 7.77294C65.2093 7.75829 65.1894 7.75006 65.1687 7.75006H50.2671C50.2514 7.75006 50.2363 7.75632 50.2251 7.76745C50.214 7.77859 50.2077 7.79369 50.2077 7.80944V10.2188C50.2077 10.2271 50.2109 10.235 50.2164 10.2409C50.222 10.2468 50.2295 10.2501 50.2374 10.2501L65.1718 10.2532C59.8687 10.3719 53.3202 10.461 47.653 10.1391C47.9562 8.19329 47.5192 6.4985 46.3421 5.05475C43.7437 1.86881 38.8468 2.02819 36.439 5.3485C35.4296 6.74121 35.0697 8.34069 35.3593 10.1469C35.3641 10.1758 35.379 10.202 35.4013 10.2209C35.4236 10.2397 35.4519 10.2501 35.4812 10.2501H37.8655C37.8777 10.25 37.8896 10.2472 37.9005 10.2418C37.9113 10.2364 37.9208 10.2286 37.928 10.2191C37.9353 10.2095 37.9402 10.1985 37.9424 10.1868C37.9446 10.1751 37.9439 10.163 37.9405 10.1516C37.6364 9.09954 37.7145 8.14069 38.1749 7.27506C39.3624 5.04381 42.3812 4.5235 44.1874 6.39069C45.1968 7.43287 45.5046 8.89225 44.9952 10.3298C40.4734 10.3787 35.953 10.3824 31.4343 10.3407C29.6593 10.323 27.8827 10.2521 26.1046 10.1282L27.1671 9.05163C27.175 9.04367 27.1812 9.03422 27.1854 9.02384C27.1896 9.01346 27.1917 9.00234 27.1915 8.99114C27.1914 8.97994 27.189 8.96888 27.1846 8.95861C27.1801 8.94834 27.1736 8.93906 27.1655 8.93131L25.3171 7.08287C25.3001 7.06589 25.2771 7.05635 25.253 7.05635C25.229 7.05635 25.206 7.06589 25.189 7.08287L22.3296 9.93287C21.2004 9.98183 20.0869 9.91985 18.989 9.74694L25.1937 3.54694C25.2093 3.531 25.2308 3.52206 25.2534 3.52206C25.2759 3.52206 25.2977 3.531 25.314 3.54694L30.7359 8.96881C30.7438 8.97698 30.7482 8.9879 30.7482 8.99928C30.7482 9.01066 30.7438 9.02159 30.7359 9.02975L29.5859 10.1798C29.5799 10.1853 29.5757 10.1926 29.5739 10.2006C29.5722 10.2086 29.5728 10.2169 29.5759 10.2245C29.5789 10.2321 29.5842 10.2386 29.591 10.2432C29.5978 10.2477 29.6058 10.2501 29.614 10.2501H32.7374C32.7482 10.2501 32.7588 10.2479 32.7686 10.2436C32.7785 10.2393 32.7873 10.2329 32.7945 10.2249C32.8017 10.217 32.8072 10.2076 32.8106 10.1974C32.8139 10.1872 32.8151 10.1764 32.814 10.1657C32.5213 6.97923 33.5218 4.37923 35.8155 2.36569C38.139 0.325062 41.503 -0.289 44.4484 0.770375C46.5963 1.54433 48.2359 3.01412 49.3671 5.17975C49.3784 5.20057 49.3951 5.21796 49.4154 5.23006C49.4358 5.24217 49.4591 5.24854 49.4827 5.2485C50.4515 5.25163 55.3301 5.25163 64.1187 5.2485C65.0218 5.2485 65.5379 5.25996 65.6671 5.28288C66.8671 5.50162 67.7327 6.5235 67.7452 7.75006C67.7525 8.5709 67.752 9.38756 67.7437 10.2001ZM42.7437 9.00006C42.7437 8.6702 42.6126 8.35385 42.3794 8.1206C42.1461 7.88735 41.8298 7.75631 41.4999 7.75631C41.1701 7.75631 40.8537 7.88735 40.6205 8.1206C40.3872 8.35385 40.2562 8.6702 40.2562 9.00006C40.2562 9.32993 40.3872 9.64628 40.6205 9.87953C40.8537 10.1128 41.1701 10.2438 41.4999 10.2438C41.8298 10.2438 42.1461 10.1128 42.3794 9.87953C42.6126 9.64628 42.7437 9.32993 42.7437 9.00006Z" fill="#2054A6"/>
<path d="M18.989 9.74694C20.0869 9.91985 21.2004 9.98183 22.3296 9.93287L16.7905 15.4735C15.7155 15.2902 14.6119 15.2188 13.4796 15.2594L18.989 9.74694Z" fill="#2054A6"/>
<path d="M26.1046 10.1282C27.8827 10.2521 29.6593 10.323 31.4343 10.3407C35.953 10.3824 40.4734 10.3787 44.9952 10.3298C44.5765 11.3631 43.8609 12.0777 42.8484 12.4735C42.8189 12.4851 42.7936 12.5053 42.7757 12.5315C42.7579 12.5577 42.7484 12.5887 42.7484 12.6204V14.986C42.7483 15.0067 42.7531 15.0272 42.7626 15.0457C42.772 15.0642 42.7857 15.0802 42.8027 15.0924C42.8196 15.1046 42.8392 15.1126 42.8599 15.1158C42.8806 15.1191 42.9018 15.1174 42.9218 15.111C45.5083 14.2735 47.0853 12.6162 47.653 10.1391C53.3202 10.461 59.8687 10.3719 65.1718 10.2532C65.252 10.249 65.2833 10.223 65.2655 10.1751C66.0926 10.2657 66.9187 10.274 67.7437 10.2001C67.7718 11.5969 66.6984 12.6485 65.3359 12.7563C65.3144 12.7579 65.2944 12.7674 65.2796 12.783C65.2649 12.7986 65.2565 12.8192 65.2562 12.8407L65.2468 15.4188L62.7499 15.9813L62.7405 12.8376C62.7405 12.8144 62.7313 12.7921 62.7149 12.7757C62.6985 12.7593 62.6763 12.7501 62.653 12.7501H60.2999C60.2862 12.7501 60.2731 12.7553 60.2635 12.7647C60.2538 12.7741 60.2484 12.7868 60.2484 12.8001V15.9969C59.4161 15.8917 58.5843 15.9157 57.753 16.0688V12.8016C57.753 12.7879 57.7476 12.7748 57.7379 12.7652C57.7283 12.7555 57.7152 12.7501 57.7015 12.7501H49.4859C49.4605 12.75 49.4357 12.7568 49.4142 12.7698C49.3926 12.7828 49.3753 12.8014 49.364 12.8235C47.9775 15.487 45.8025 17.0949 42.839 17.6469C42.8155 17.6508 42.7941 17.6627 42.7782 17.6806C42.7623 17.6985 42.7529 17.7213 42.7515 17.7454L42.7468 17.8282L40.2515 17.861V12.8032C40.2515 12.7891 40.2461 12.7756 40.2364 12.7656C40.2267 12.7557 40.2136 12.7501 40.1999 12.7501H27.8562C27.8326 12.7501 27.8096 12.7581 27.7909 12.7728C27.7723 12.7875 27.7589 12.8081 27.753 12.8313C27.7395 12.8876 27.7385 12.9506 27.7499 13.0204C26.2593 13.0766 24.7718 13.0521 23.2874 12.9469L26.1046 10.1282Z" fill="#2054A6"/>
<path d="M23.2874 12.9469C24.7718 13.0521 26.2593 13.0766 27.7499 13.0204L27.7484 20.5391C26.9744 20.8412 26.1416 20.962 25.2499 20.9016L25.2405 20.3344C25.2401 20.3119 25.2309 20.2905 25.2148 20.2747C25.1988 20.2589 25.1771 20.2501 25.1546 20.2501H19.603C19.5519 20.25 19.5026 20.2702 19.4655 20.3063L18.8499 20.911L15.3952 20.8407L23.2874 12.9469ZM25.2499 14.636C25.2499 14.6263 25.2469 14.6168 25.2415 14.6086C25.2361 14.6005 25.2285 14.5942 25.2195 14.5904C25.2106 14.5866 25.2007 14.5854 25.1911 14.5872C25.1815 14.5889 25.1726 14.5934 25.1655 14.6001L22.0999 17.6657C22.0932 17.6728 22.0887 17.6816 22.087 17.6912C22.0853 17.7008 22.0864 17.7107 22.0902 17.7197C22.094 17.7286 22.1004 17.7363 22.1085 17.7417C22.1166 17.7471 22.1261 17.75 22.1359 17.7501H25.1999C25.2132 17.7501 25.2259 17.7448 25.2353 17.7354C25.2447 17.726 25.2499 17.7133 25.2499 17.7001V14.636Z" fill="#2054A6"/>
<path d="M13.4796 15.2594C14.6119 15.2188 15.7155 15.2902 16.7905 15.4735L11.5484 20.7173L8.21398 20.5266L13.4796 15.2594Z" fill="#2054A6"/>
<path d="M37.7499 20.1313C35.252 20.3292 32.7525 20.3896 30.2515 20.3126C30.2494 19.6542 30.2489 18.9912 30.2499 18.3235C30.251 17.5631 30.3197 17.037 30.4562 16.7454C31.0499 15.4704 32.1546 15.1735 33.5859 15.2469C34.3718 15.286 35.4077 15.1251 36.0905 15.3969C36.9114 15.7251 37.4379 16.3001 37.6702 17.1219C37.7307 17.3386 37.7577 17.8386 37.7515 18.6219C37.7473 19.1261 37.7468 19.6292 37.7499 20.1313ZM35.2499 17.8157C35.2499 17.7983 35.243 17.7816 35.2307 17.7693C35.2184 17.757 35.2017 17.7501 35.1843 17.7501H32.8155C32.7981 17.7501 32.7814 17.757 32.7691 17.7693C32.7568 17.7816 32.7499 17.7983 32.7499 17.8157V20.1844C32.7499 20.2018 32.7568 20.2185 32.7691 20.2308C32.7814 20.2431 32.7981 20.2501 32.8155 20.2501H35.1843C35.2017 20.2501 35.2184 20.2431 35.2307 20.2308C35.243 20.2185 35.2499 20.2018 35.2499 20.1844V17.8157Z" fill="#2054A6"/>
<path d="M65.2468 15.4188L65.2593 17.6532C65.2592 17.674 65.267 17.6942 65.2811 17.7098C65.2953 17.7254 65.3148 17.7353 65.3359 17.7376C66.6734 17.8938 67.7281 18.8079 67.7359 20.2063C67.7379 20.3896 67.7567 20.5584 67.7921 20.7126L65.2515 20.9001L65.2374 20.3329C65.237 20.3108 65.2279 20.2897 65.2122 20.2742C65.1964 20.2587 65.1752 20.2501 65.153 20.2501H57.8562C57.8331 20.25 57.8109 20.2588 57.7943 20.2746C57.7777 20.2903 57.7679 20.3118 57.7671 20.3344L57.7499 20.8813L55.2234 20.7563C55.1838 18.9886 56.0004 17.9782 57.6734 17.7251C57.6946 17.7217 57.714 17.7109 57.728 17.6946C57.7421 17.6783 57.7498 17.6575 57.7499 17.636L57.753 16.0688C58.5843 15.9157 59.4161 15.8917 60.2484 15.9969L60.2499 17.686C60.2499 17.703 60.2567 17.7193 60.2687 17.7313C60.2807 17.7433 60.297 17.7501 60.314 17.7501H62.6687C62.6906 17.7501 62.7117 17.7413 62.7272 17.7258C62.7428 17.7103 62.7515 17.6892 62.7515 17.6672L62.7499 15.9813L65.2468 15.4188Z" fill="#2054A6"/>
<path d="M42.7468 17.8282L42.7452 22.5157C41.9265 22.7542 41.0952 22.8725 40.2515 22.8704V17.861L42.7468 17.8282Z" fill="#2054A6"/>
<path d="M37.7499 20.1313L37.7468 27.9891L35.2515 28.1829L35.2405 27.8391C35.2397 27.8148 35.2297 27.7918 35.2125 27.7749C35.1953 27.758 35.1723 27.7485 35.1484 27.7485H32.8562C32.8318 27.7485 32.8085 27.7577 32.791 27.7744C32.7735 27.791 32.7632 27.8136 32.7624 27.8376L32.7499 28.1454L30.253 28.2251L30.2515 20.3126C32.7525 20.3896 35.252 20.3292 37.7499 20.1313ZM35.2499 22.8219C35.2499 22.8029 35.2423 22.7846 35.2289 22.7711C35.2154 22.7576 35.1971 22.7501 35.178 22.7501H32.8218C32.8027 22.7501 32.7845 22.7576 32.771 22.7711C32.7575 22.7846 32.7499 22.8029 32.7499 22.8219V25.1782C32.7499 25.1972 32.7575 25.2155 32.771 25.229C32.7845 25.2425 32.8027 25.2501 32.8218 25.2501H35.178C35.1971 25.2501 35.2154 25.2425 35.2289 25.229C35.2423 25.2155 35.2499 25.1972 35.2499 25.1782V22.8219Z" fill="#2054A6"/>
<path d="M11.5484 20.7173L10.8046 21.4594C10.7942 21.4704 10.7884 21.4848 10.7884 21.4997C10.7884 21.5146 10.7942 21.5288 10.8046 21.5391L12.7093 23.4438C12.7201 23.4545 12.7347 23.4605 12.7499 23.4605C12.7651 23.4605 12.7797 23.4545 12.7905 23.4438L15.3952 20.8407L18.8499 20.911L17.7999 21.9688C17.7836 21.9846 17.7706 22.0037 17.7617 22.0249C17.7529 22.0462 17.7483 22.069 17.7484 22.0922V22.6626C17.7484 22.6858 17.7576 22.708 17.774 22.7244C17.7904 22.7408 17.8127 22.7501 17.8359 22.7501H25.153C25.1754 22.7501 25.1969 22.7412 25.2127 22.7253C25.2285 22.7095 25.2374 22.6881 25.2374 22.6657L25.2499 20.9016C26.1416 20.962 26.9744 20.8412 27.7484 20.5391V26.2626C26.9452 25.9876 26.1135 25.823 25.253 25.7688L25.2312 25.3344C25.23 25.3116 25.2199 25.2901 25.203 25.2744C25.1862 25.2587 25.1638 25.25 25.1405 25.2501H15.3327C15.3099 25.2501 15.2881 25.2408 15.272 25.2244C15.2559 25.208 15.2468 25.1858 15.2468 25.1626V24.6172C15.2466 24.609 15.2439 24.6009 15.2393 24.594C15.2346 24.5872 15.2281 24.5818 15.2206 24.5786C15.2131 24.5755 15.2049 24.5746 15.1971 24.5762C15.1892 24.5778 15.1821 24.5817 15.1765 24.5876L12.8109 26.9548C12.8029 26.9628 12.7934 26.9692 12.7829 26.9735C12.7725 26.9779 12.7612 26.9801 12.7499 26.9801C12.7386 26.9801 12.7274 26.9779 12.7169 26.9735C12.7065 26.9692 12.697 26.9628 12.689 26.9548L10.9421 25.2063C10.9267 25.1906 10.9057 25.1817 10.8835 25.1814C10.8613 25.1811 10.8397 25.1895 10.8234 25.2048L10.4187 25.5876C9.34055 25.7501 8.28065 25.7042 7.23898 25.4501C7.68586 24.7016 8.36086 24.1219 9.04523 23.4298C9.06117 23.4135 9.07012 23.3917 9.07012 23.3691C9.07012 23.3466 9.06117 23.3251 9.04523 23.3094L7.30149 21.5657C7.28584 21.5499 7.27706 21.5285 7.27706 21.5063C7.27706 21.4841 7.28584 21.4627 7.30149 21.4469L8.21398 20.5266L11.5484 20.7173Z" fill="#2054A6"/>
<path d="M67.7921 20.7126C70.2994 21.6949 71.8926 23.4959 72.5718 26.1157L70.0031 26.2188C69.5895 25.0178 68.8348 24.0912 67.739 23.4391C67.7299 23.4338 67.7197 23.4305 67.7093 23.4295C67.6988 23.4285 67.6883 23.4297 67.6785 23.4331C67.6686 23.4366 67.6597 23.4421 67.6524 23.4493C67.645 23.4566 67.6394 23.4654 67.6359 23.4751C67.1932 24.6605 66.3333 25.2527 65.0562 25.2516C63.8791 25.2495 63.1416 25.2495 62.8437 25.2516C62.821 25.252 62.7994 25.2612 62.7833 25.2772C62.7673 25.2933 62.7581 25.3149 62.7577 25.3376L62.7468 26.7329L60.2562 25.7688L60.2437 25.3376C60.2429 25.3149 60.2333 25.2934 60.217 25.2777C60.2006 25.262 60.1788 25.2532 60.1562 25.2532C59.5322 25.2449 59.0067 25.2449 58.5796 25.2532C57.8171 25.2678 57.2947 25.2277 57.0124 25.1329C56.2197 24.8673 55.6723 24.3183 55.3702 23.486C55.3666 23.4757 55.3606 23.4663 55.3528 23.4586C55.3451 23.4508 55.3356 23.4449 55.3252 23.4411C55.3148 23.4374 55.3036 23.436 55.2925 23.437C55.2814 23.438 55.2706 23.4414 55.2609 23.4469C54.1202 24.1146 53.352 25.0834 52.9562 26.3532L50.4249 26.1516C50.978 23.8766 52.2989 22.1824 54.3874 21.0688C54.6687 20.9188 54.9473 20.8146 55.2234 20.7563L57.7499 20.8813L57.7484 22.6923C57.7484 22.7076 57.7544 22.7223 57.7653 22.7331C57.7761 22.744 57.7908 22.7501 57.8062 22.7501H65.1937C65.2094 22.7501 65.2245 22.7438 65.2357 22.7327C65.2468 22.7215 65.253 22.7064 65.253 22.6907L65.2515 20.9001L67.7921 20.7126Z" fill="#2054A6"/>
<path d="M42.7452 22.5157L42.7468 28.1454L40.2499 28.4157L40.2515 22.8704C41.0952 22.8725 41.9265 22.7542 42.7452 22.5157Z" fill="#2054A6"/>
<path d="M10.4187 25.5876C9.5343 26.4969 9.01867 26.8969 9.00461 28.2766C8.99836 28.91 8.99576 29.5459 8.9968 30.1844C8.18638 30.3865 7.35721 30.4714 6.5093 30.4391C6.47596 29.1266 6.48325 28.1521 6.53117 27.5157C6.58325 26.8115 6.81919 26.123 7.23898 25.4501C8.28065 25.7042 9.34055 25.7501 10.4187 25.5876Z" fill="#2054A6"/>
<path d="M27.7484 26.2626V30.3298C26.9359 30.5527 26.1036 30.6969 25.2515 30.7626L25.253 25.7688C26.1135 25.823 26.9452 25.9876 27.7484 26.2626Z" fill="#2054A6"/>
<path d="M62.7468 26.7329L62.7452 32.6907C62.7452 32.7064 62.739 32.7215 62.7278 32.7327C62.7167 32.7438 62.7016 32.7501 62.6859 32.7501H60.3484C60.3243 32.7501 60.3013 32.7405 60.2843 32.7235C60.2673 32.7065 60.2577 32.6835 60.2577 32.6594L60.2562 25.7688L62.7468 26.7329Z" fill="#2054A6"/>
<path d="M72.5718 26.1157C72.7333 26.8949 72.7895 27.5433 72.7405 28.061C72.4905 30.6969 70.5124 32.6704 67.8405 32.7422C67.8288 32.7427 67.8171 32.7407 67.8061 32.7364C67.7951 32.7321 67.7851 32.7256 67.7767 32.7173C67.7682 32.709 67.7615 32.699 67.7569 32.688C67.7523 32.677 67.7499 32.6652 67.7499 32.6532V30.3251C67.7499 30.3043 67.7578 30.2843 67.772 30.2692C67.7863 30.2541 67.8058 30.245 67.8265 30.2438C68.1671 30.2188 68.3994 30.1818 68.5234 30.1329C70.2906 29.4219 70.4968 27.8938 70.0031 26.2188L72.5718 26.1157Z" fill="#2054A6"/>
<path d="M50.4249 26.1516L52.9562 26.3532C52.7562 27.0657 52.6859 27.5969 52.7452 27.9469C52.9765 29.324 53.7807 30.0943 55.1577 30.2579C55.1832 30.2613 55.2065 30.2739 55.2235 30.2934C55.2404 30.313 55.2498 30.3381 55.2499 30.3641V32.6548C55.2499 32.6662 55.2476 32.6776 55.2431 32.6882C55.2386 32.6987 55.2319 32.7082 55.2236 32.7161C55.2152 32.724 55.2054 32.7301 55.1946 32.7341C55.1838 32.7381 55.1723 32.7398 55.1609 32.7391C52.9218 32.6516 51.1359 31.2766 50.4796 29.2719C50.1765 28.3469 50.1583 27.3068 50.4249 26.1516Z" fill="#2054A6"/>
<path d="M37.7468 27.9891L37.7484 33.6141L35.2499 33.4985L35.239 32.836C35.2386 32.8127 35.229 32.7904 35.2124 32.774C35.1957 32.7577 35.1733 32.7485 35.1499 32.7485H32.8468C32.823 32.7485 32.8002 32.758 32.7833 32.775C32.7663 32.7919 32.7566 32.815 32.7562 32.8391L32.7499 33.4969L30.253 33.4579V28.2251L32.7499 28.1454V30.161C32.7499 30.185 32.7595 30.2081 32.7765 30.2251C32.7935 30.2421 32.8165 30.2516 32.8405 30.2516H35.1609C35.1849 30.2516 35.2079 30.2421 35.2249 30.2251C35.2419 30.2081 35.2515 30.185 35.2515 30.161V28.1829L37.7468 27.9891Z" fill="#2054A6"/>
<path d="M42.7468 28.1454L42.7484 33.9188C41.9286 33.674 41.0963 33.5459 40.2515 33.5344L40.2499 28.4157L42.7468 28.1454Z" fill="#2054A6"/>
<path d="M8.9968 30.1844C8.99211 30.8719 8.92336 31.8251 9.16399 32.3954C9.43482 33.0391 9.88013 33.5047 10.4999 33.7923C10.827 33.9433 11.3291 34.0157 12.0062 34.0094C13.2296 33.9969 14.2124 33.9126 15.1109 34.1344C16.6744 34.523 17.8067 35.4245 18.5077 36.8391C18.9734 37.7787 19.1103 38.824 18.9187 39.9751L16.3515 39.8626C16.7702 38.5704 16.1952 37.1844 14.9343 36.6829C14.5916 36.5464 14.1161 36.4829 13.5077 36.4922C12.7494 36.5047 12.1067 36.5074 11.5796 36.5001C8.93586 36.4657 6.82492 34.636 6.52648 32.0079C6.48898 31.6745 6.48325 31.1516 6.5093 30.4391C7.35721 30.4714 8.18638 30.3865 8.9968 30.1844Z" fill="#2054A6"/>
<path d="M27.7484 30.3298V38.836L25.2499 38.4579L25.2515 30.7626C26.1036 30.6969 26.9359 30.5527 27.7484 30.3298Z" fill="#2054A6"/>
<path d="M42.7484 33.9188L42.7468 38.4985L40.2499 37.8344L40.2515 33.5344C41.0963 33.5459 41.9286 33.674 42.7484 33.9188Z" fill="#2054A6"/>
<path d="M32.7499 33.4969L32.7484 35.1594C32.7484 35.1839 32.7581 35.2073 32.7754 35.2246C32.7927 35.2419 32.8161 35.2516 32.8405 35.2516H35.1593C35.1837 35.2516 35.2072 35.2419 35.2245 35.2246C35.2418 35.2073 35.2515 35.1839 35.2515 35.1594L35.2499 33.4985L37.7484 33.6141C37.7562 34.4173 37.8484 35.5407 37.5624 36.2001C37.2208 36.9886 36.6015 37.4922 35.7046 37.711C35.6257 37.7307 35.5444 37.7407 35.4624 37.7407C34.502 37.7469 33.9286 37.7516 33.7421 37.7547C32.8796 37.7693 32.326 37.7376 32.0812 37.6594C31.2801 37.4063 30.7228 36.898 30.4093 36.1344C30.139 35.4766 30.2515 34.2766 30.253 33.4579L32.7499 33.4969Z" fill="#2054A6"/>
<path d="M55.2484 40.3641L52.7499 39.6626L52.7374 37.836C52.7374 37.8128 52.7282 37.7905 52.7118 37.7741C52.6954 37.7577 52.6731 37.7485 52.6499 37.7485H50.3499C50.3251 37.7485 50.3012 37.7584 50.2836 37.776C50.266 37.7935 50.2562 37.8174 50.2562 37.8423L50.2499 40.5594L47.753 40.1673L47.7546 35.3329C47.7546 35.3109 47.7635 35.2898 47.7793 35.2743C47.7951 35.2588 47.8166 35.2501 47.839 35.2501H55.1999C55.2119 35.2501 55.2235 35.255 55.232 35.2638C55.2405 35.2726 55.2452 35.2845 55.2452 35.2969L55.2484 40.3641Z" fill="#2054A6"/>
<path d="M65.2484 40.3641L62.7499 39.6626L62.7374 37.836C62.7374 37.8128 62.7282 37.7905 62.7118 37.7741C62.6954 37.7577 62.6731 37.7485 62.6499 37.7485H60.3515C60.3266 37.7485 60.3028 37.7584 60.2852 37.776C60.2676 37.7935 60.2577 37.8174 60.2577 37.8423L60.2499 39.861L57.7562 39.7048L57.7671 35.3407C57.7671 35.3288 57.7695 35.317 57.774 35.306C57.7786 35.295 57.7852 35.285 57.7937 35.2766C57.8021 35.2682 57.8121 35.2615 57.8231 35.257C57.834 35.2524 57.8458 35.2501 57.8577 35.2501H65.1765C65.1855 35.2501 65.1945 35.2518 65.2028 35.2553C65.2111 35.2588 65.2187 35.2638 65.2251 35.2702C65.2315 35.2766 65.2365 35.2842 65.24 35.2925C65.2435 35.3008 65.2452 35.3098 65.2452 35.3188L65.2484 40.3641Z" fill="#2054A6"/>
<path d="M75.2421 39.9688L75.1984 40.2063C75.1943 40.2268 75.1829 40.2451 75.1663 40.258C75.1497 40.2708 75.1289 40.2775 75.1077 40.2766L72.7499 40.1641L72.739 37.836C72.7386 37.8127 72.7292 37.7904 72.7128 37.774C72.6964 37.7577 72.6744 37.7485 72.6515 37.7485H70.3499C70.3255 37.7485 70.302 37.7584 70.2847 37.776C70.2674 37.7935 70.2577 37.8174 70.2577 37.8423L70.2499 39.9329L67.753 39.7063L67.7577 35.311C67.7577 35.2948 67.7642 35.2793 67.7756 35.2679C67.787 35.2565 67.8025 35.2501 67.8187 35.2501H75.1484C75.1716 35.2501 75.1938 35.2594 75.2102 35.2761C75.2266 35.2929 75.2359 35.3155 75.2359 35.3391L75.2421 39.9688Z" fill="#2054A6"/>
<path d="M42.7468 38.4985L42.7577 40.1657C42.7577 40.1771 42.76 40.1884 42.7644 40.1989C42.7688 40.2095 42.7753 40.219 42.7835 40.227C42.7916 40.235 42.8013 40.2413 42.8119 40.2455C42.8225 40.2498 42.8338 40.2518 42.8452 40.2516C44.7249 40.2251 45.5452 41.2594 46.9499 42.6922C46.9682 42.7111 46.9902 42.726 47.0147 42.7362C47.0391 42.7464 47.0654 42.7517 47.0921 42.7516H47.6421C47.6715 42.7516 47.6997 42.7399 47.7206 42.7191C47.7414 42.6983 47.753 42.6701 47.753 42.6407V40.1673L50.2499 40.5594V42.686C50.2499 42.703 50.2567 42.7193 50.2687 42.7313C50.2807 42.7433 50.297 42.7501 50.314 42.7501H52.6859C52.6943 42.7501 52.7026 42.7484 52.7104 42.7451C52.7181 42.7418 52.7252 42.7369 52.7312 42.7308C52.7371 42.7247 52.7418 42.7175 52.745 42.7095C52.7483 42.7016 52.7499 42.6931 52.7499 42.6844V39.6626L55.2484 40.3641L55.264 42.6563C55.2644 42.6813 55.2746 42.7052 55.2924 42.7227C55.3103 42.7402 55.3343 42.7501 55.3593 42.7501H57.6499C57.6741 42.7501 57.6973 42.7406 57.7146 42.7236C57.7318 42.7067 57.7417 42.6836 57.7421 42.6594L57.7562 39.7048L60.2499 39.861L60.2515 42.686C60.2515 42.703 60.2582 42.7193 60.2702 42.7313C60.2823 42.7433 60.2986 42.7501 60.3156 42.7501H62.6593C62.6838 42.7501 62.7072 42.7405 62.7245 42.7235C62.7418 42.7065 62.7515 42.6835 62.7515 42.6594L62.7499 39.6626L65.2484 40.3641L65.264 42.6563C65.2644 42.6813 65.2746 42.7052 65.2924 42.7227C65.3103 42.7402 65.3343 42.7501 65.3593 42.7501H67.6499C67.6741 42.7501 67.6973 42.7406 67.7146 42.7236C67.7318 42.7067 67.7417 42.6836 67.7421 42.6594L67.753 39.7063L70.2499 39.9329V42.686C70.2499 42.703 70.2567 42.7193 70.2687 42.7313C70.2807 42.7433 70.297 42.7501 70.314 42.7501H72.6859C72.7033 42.7501 72.72 42.7431 72.7323 42.7308C72.7446 42.7185 72.7515 42.7018 72.7515 42.6844L72.7499 40.1641L75.1077 40.2766C75.1289 40.2775 75.1497 40.2708 75.1663 40.258C75.1829 40.2451 75.1943 40.2268 75.1984 40.2063L75.2421 39.9688L75.2671 42.886C75.2677 42.9098 75.2749 42.933 75.2879 42.9526C75.3009 42.9723 75.3192 42.9877 75.3405 42.9969C76.501 43.5011 77.2635 44.3542 77.6281 45.5563C76.7531 45.5782 75.8968 45.673 75.0593 45.8407C74.7978 45.448 74.4827 45.2516 74.114 45.2516C66.8432 45.2506 57.4926 45.2501 46.0624 45.2501C46.0367 45.2501 46.0111 45.245 45.9872 45.2351C45.9634 45.2252 45.9417 45.2106 45.9234 45.1922C44.9077 44.1704 44.2124 43.4756 43.8374 43.1079C43.5947 42.8704 43.2713 42.7511 42.8671 42.7501C40.0588 42.7469 34.6161 42.7495 26.539 42.7579C26.0702 42.7579 25.6635 42.986 25.3187 43.4422C24.5145 43.4683 23.6926 43.3631 22.853 43.1266C23.2093 41.8766 23.9728 41.0074 25.1437 40.5188C25.1659 40.5099 25.1851 40.4946 25.1987 40.4749C25.2123 40.4552 25.2198 40.4318 25.2202 40.4079L25.2499 38.4579L27.7484 38.836V40.1922C27.7484 40.1998 27.7499 40.2074 27.7528 40.2144C27.7557 40.2214 27.7599 40.2278 27.7653 40.2331C27.7707 40.2385 27.777 40.2428 27.784 40.2457C27.7911 40.2486 27.7986 40.2501 27.8062 40.2501H40.1937C40.2013 40.2501 40.2088 40.2486 40.2158 40.2457C40.2228 40.2428 40.2292 40.2385 40.2346 40.2331C40.2399 40.2278 40.2442 40.2214 40.2471 40.2144C40.25 40.2074 40.2515 40.1998 40.2515 40.1922L40.2499 37.8344L42.7468 38.4985Z" fill="#2054A6"/>
<path d="M18.9187 39.9751C18.3645 41.9959 17.2077 43.2579 15.4484 43.761C14.8067 43.9454 13.7567 44.0303 12.2984 44.0157C10.1067 43.9959 7.91503 43.9896 5.72336 43.9969C5.09836 43.999 4.61711 44.0704 4.27961 44.211C3.31503 44.6152 2.79836 45.4136 2.72961 46.6063L0.256172 46.4266C0.293672 44.236 1.68898 42.4251 3.7343 41.7344C4.26242 41.5563 5.25513 41.4756 6.71242 41.4922C7.17284 41.4985 9.54992 41.5001 13.8437 41.4969C15.0385 41.4959 15.8744 40.9511 16.3515 39.8626L18.9187 39.9751Z" fill="#2054A6"/>
<path d="M25.3187 43.4422L25.2515 47.6844C25.2515 47.6931 25.2531 47.7016 25.2564 47.7095C25.2596 47.7175 25.2643 47.7247 25.2702 47.7308C25.2762 47.7369 25.2833 47.7418 25.291 47.7451C25.2988 47.7484 25.3071 47.7501 25.3155 47.7501H75.1343C75.163 47.7501 75.1906 47.7388 75.2111 47.7186C75.2316 47.6984 75.2433 47.671 75.2437 47.6422C75.253 47.2266 75.3484 46.3376 75.0593 45.8407C75.8968 45.673 76.7531 45.5782 77.6281 45.5563C77.7083 45.8917 77.7489 46.2324 77.7499 46.5782C77.751 48.673 77.7504 50.7667 77.7484 52.8594L75.2499 53.1344L75.2374 50.3298C75.2374 50.3086 75.229 50.2883 75.2141 50.2734C75.1991 50.2585 75.1789 50.2501 75.1577 50.2501H25.2984C25.2855 50.2501 25.2732 50.255 25.2641 50.2638C25.255 50.2726 25.2499 50.2845 25.2499 50.2969V60.3344C24.4551 60.0251 23.6223 59.9605 22.7515 60.1407L22.753 55.3001C22.753 55.288 22.7483 55.2765 22.7398 55.268C22.7313 55.2595 22.7198 55.2547 22.7077 55.2547C21.8598 55.2454 21.1791 55.2454 20.6655 55.2547C19.3405 55.2813 18.3312 54.7797 17.8812 53.5454C17.6546 52.9219 17.8202 52.0657 17.7515 51.5813C17.7476 51.5547 17.7337 51.5306 17.7127 51.514C17.6918 51.4974 17.6654 51.4896 17.639 51.4922C17.4702 51.5058 13.4015 51.5068 5.43273 51.4954C3.49419 51.4922 2.01867 50.7074 1.00617 49.1407C0.495755 48.3511 0.245755 47.4464 0.256172 46.4266L2.72961 46.6063C2.88794 47.6876 3.3843 48.4068 4.21867 48.7641C4.6218 48.936 5.29315 49.0188 6.23273 49.0126C8.79107 48.9949 12.5958 48.9922 17.6468 49.0047C17.6735 49.0048 17.6991 48.9944 17.7181 48.976C17.7371 48.9576 17.7479 48.9326 17.7484 48.9063C17.7536 48.6334 17.7546 48.3433 17.7515 48.036C17.7374 46.861 18.189 45.9313 19.2812 45.4469C19.6395 45.2876 20.19 45.2204 20.9327 45.2454C21.2057 45.2547 21.7853 45.2558 22.6718 45.2485C22.686 45.2483 22.7001 45.2452 22.7131 45.2394C22.726 45.2335 22.7377 45.2251 22.7472 45.2145C22.7568 45.2039 22.764 45.1915 22.7685 45.178C22.773 45.1645 22.7747 45.1502 22.7734 45.136C22.7119 44.4339 22.7385 43.7641 22.853 43.1266C23.6926 43.3631 24.5145 43.4683 25.3187 43.4422ZM22.7499 47.8079C22.7499 47.7925 22.7438 47.7778 22.733 47.767C22.7221 47.7561 22.7074 47.7501 22.6921 47.7501H20.3077C20.2924 47.7501 20.2777 47.7561 20.2669 47.767C20.256 47.7778 20.2499 47.7925 20.2499 47.8079V52.6922C20.2499 52.7076 20.256 52.7223 20.2669 52.7331C20.2777 52.744 20.2924 52.7501 20.3077 52.7501H22.6921C22.7074 52.7501 22.7221 52.744 22.733 52.7331C22.7438 52.7223 22.7499 52.7076 22.7499 52.6922V47.8079Z" fill="#2054A6"/>
<path d="M77.7484 52.8594V64.9829L75.2515 64.9438L75.2499 53.1344L77.7484 52.8594Z" fill="#2054A6"/>
<path d="M37.7452 58.9985C37.7452 59.9918 37.3506 60.9445 36.6483 61.6468C35.9459 62.3492 34.9932 62.7438 33.9999 62.7438C33.0066 62.7438 32.054 62.3492 31.3516 61.6468C30.6492 60.9445 30.2546 59.9918 30.2546 58.9985C30.2546 58.5067 30.3515 58.0196 30.5397 57.5652C30.7279 57.1108 31.0038 56.6979 31.3516 56.3502C31.6994 56.0024 32.1123 55.7265 32.5667 55.5383C33.0211 55.3501 33.5081 55.2532 33.9999 55.2532C34.4918 55.2532 34.9788 55.3501 35.4332 55.5383C35.8876 55.7265 36.3005 56.0024 36.6483 56.3502C36.996 56.6979 37.2719 57.1108 37.4601 57.5652C37.6484 58.0196 37.7452 58.5067 37.7452 58.9985ZM35.2452 59.0001C35.2452 58.6698 35.114 58.353 34.8805 58.1195C34.6469 57.8859 34.3302 57.7547 33.9999 57.7547C33.6696 57.7547 33.3529 57.8859 33.1194 58.1195C32.8858 58.353 32.7546 58.6698 32.7546 59.0001C32.7546 59.3303 32.8858 59.6471 33.1194 59.8806C33.3529 60.1142 33.6696 60.2454 33.9999 60.2454C34.3302 60.2454 34.6469 60.1142 34.8805 59.8806C35.114 59.6471 35.2452 59.3303 35.2452 59.0001Z" fill="#2054A6"/>
<path d="M47.7452 58.9985C47.7452 59.9918 47.3506 60.9445 46.6483 61.6468C45.9459 62.3492 44.9932 62.7438 43.9999 62.7438C43.0066 62.7438 42.054 62.3492 41.3516 61.6468C40.6492 60.9445 40.2546 59.9918 40.2546 58.9985C40.2546 58.5067 40.3515 58.0196 40.5397 57.5652C40.7279 57.1108 41.0038 56.6979 41.3516 56.3502C41.6994 56.0024 42.1123 55.7265 42.5667 55.5383C43.0211 55.3501 43.5081 55.2532 43.9999 55.2532C44.4918 55.2532 44.9788 55.3501 45.4332 55.5383C45.8876 55.7265 46.3005 56.0024 46.6483 56.3502C46.996 56.6979 47.2719 57.1108 47.4601 57.5652C47.6484 58.0196 47.7452 58.5067 47.7452 58.9985ZM45.2452 59.0001C45.2452 58.6698 45.114 58.353 44.8805 58.1195C44.647 57.8859 44.3302 57.7547 43.9999 57.7547C43.6696 57.7547 43.3529 57.8859 43.1194 58.1195C42.8858 58.353 42.7546 58.6698 42.7546 59.0001C42.7546 59.3303 42.8858 59.6471 43.1194 59.8806C43.3529 60.1142 43.6696 60.2454 43.9999 60.2454C44.3302 60.2454 44.647 60.1142 44.8805 59.8806C45.114 59.6471 45.2452 59.3303 45.2452 59.0001Z" fill="#2054A6"/>
<path d="M57.7452 58.9985C57.7452 59.9918 57.3506 60.9445 56.6483 61.6468C55.9459 62.3492 54.9932 62.7438 53.9999 62.7438C53.0066 62.7438 52.054 62.3492 51.3516 61.6468C50.6492 60.9445 50.2546 59.9918 50.2546 58.9985C50.2546 58.5067 50.3515 58.0196 50.5397 57.5652C50.7279 57.1108 51.0038 56.6979 51.3516 56.3502C51.6994 56.0024 52.1123 55.7265 52.5667 55.5383C53.0211 55.3501 53.5081 55.2532 53.9999 55.2532C54.4918 55.2532 54.9788 55.3501 55.4332 55.5383C55.8876 55.7265 56.3005 56.0024 56.6483 56.3502C56.996 56.6979 57.2719 57.1108 57.4601 57.5652C57.6484 58.0196 57.7452 58.5067 57.7452 58.9985ZM55.2452 59.0001C55.2452 58.6698 55.114 58.353 54.8805 58.1195C54.647 57.8859 54.3302 57.7547 53.9999 57.7547C53.6696 57.7547 53.3529 57.8859 53.1194 58.1195C52.8858 58.353 52.7546 58.6698 52.7546 59.0001C52.7546 59.3303 52.8858 59.6471 53.1194 59.8806C53.3529 60.1142 53.6696 60.2454 53.9999 60.2454C54.3302 60.2454 54.647 60.1142 54.8805 59.8806C55.114 59.6471 55.2452 59.3303 55.2452 59.0001Z" fill="#2054A6"/>
<path d="M25.2499 60.3344C25.7978 60.4459 26.2057 60.5433 26.4734 60.6266C28.8161 61.3475 30.5754 62.7923 31.7515 64.961C30.7973 64.9193 29.8775 65.0146 28.9921 65.2469C26.4343 61.9141 21.6124 61.9391 19.003 65.236C18.5166 65.0735 17.9411 64.9626 17.2765 64.9032C17.0213 64.8803 16.7468 64.7745 16.453 64.586C17.8874 62.2412 19.9598 60.8339 22.6702 60.3641C22.7463 60.3506 22.7734 60.2761 22.7515 60.1407C23.6223 59.9605 24.4551 60.0251 25.2499 60.3344Z" fill="#2054A6"/>
<path d="M72.1687 65.8735C71.2989 65.9558 70.4822 66.1506 69.7187 66.4579C67.4515 61.7579 61.028 61.4266 58.4749 66.0782L55.7718 66.0313C58.6624 58.4204 69.1202 58.3344 72.1687 65.8735Z" fill="#2054A6"/>
<path d="M19.003 65.236C17.8926 66.836 17.5192 68.4985 17.8827 70.2235C18.1452 71.4735 18.7067 72.5313 19.5671 73.3969C22.5859 76.4329 27.678 75.6016 29.5874 71.7782C30.6405 69.6688 30.414 67.1751 28.9921 65.2469C29.8775 65.0146 30.7973 64.9193 31.7515 64.961C32.6015 66.5891 32.902 68.3251 32.653 70.1688C32.6517 70.179 32.6526 70.1894 32.6556 70.1992C32.6586 70.209 32.6637 70.2181 32.6705 70.2258C32.6773 70.2335 32.6857 70.2397 32.6951 70.2439C32.7045 70.248 32.7146 70.2501 32.7249 70.2501H55.2874C55.2959 70.2502 55.3043 70.2484 55.3121 70.2449C55.3199 70.2413 55.3268 70.2362 55.3324 70.2296C55.3381 70.2231 55.3423 70.2154 55.3447 70.2071C55.3472 70.1988 55.3479 70.19 55.3468 70.1813C55.1468 68.7667 55.2885 67.3834 55.7718 66.0313L58.4749 66.0782C56.2499 70.4032 59.4718 75.4391 64.2765 75.2313C65.9046 75.1615 67.3244 74.5193 68.5359 73.3047C69.4687 73.3797 70.5093 73.3219 71.3952 73.6454C67.6687 79.5126 59.239 78.9422 56.1296 72.8032C56.1215 72.7871 56.1092 72.7737 56.094 72.7643C56.0788 72.7549 56.0614 72.75 56.0437 72.7501H31.9734C31.9498 72.7501 31.9267 72.7566 31.9066 72.7687C31.8865 72.7808 31.8701 72.7981 31.8593 72.8188C30.0062 76.4376 26.2374 78.3579 22.2562 77.5594C16.3905 76.3829 13.4452 69.7516 16.453 64.586C16.7468 64.7745 17.0213 64.8803 17.2765 64.9032C17.9411 64.9626 18.5166 65.0735 19.003 65.236Z" fill="#2054A6"/>
<path d="M77.7484 64.9829C77.7619 67.2516 77.7583 68.7016 77.7374 69.3329C77.727 69.6589 77.6411 70.0068 77.4796 70.3766C76.9567 71.5777 76.089 72.3334 74.8765 72.6438C74.0905 72.8454 72.839 72.7422 71.9781 72.7516C71.9534 72.7516 71.9292 72.7583 71.9078 72.7709C71.8864 72.7835 71.8686 72.8017 71.8562 72.8235L71.3952 73.6454C70.5093 73.3219 69.4687 73.3797 68.5359 73.3047C70.3077 71.2787 70.702 68.9964 69.7187 66.4579C70.4822 66.1506 71.2989 65.9558 72.1687 65.8735C72.6885 67.2485 72.8531 68.673 72.6624 70.1469C72.6611 70.1578 72.6621 70.1688 72.6652 70.1792C72.6683 70.1897 72.6736 70.1994 72.6806 70.2077C72.6876 70.2161 72.6963 70.2229 72.7061 70.2278C72.7159 70.2326 72.7265 70.2354 72.7374 70.236C73.9046 70.2829 75.2249 70.4219 75.2343 68.8829C75.2426 67.5693 75.2484 66.2563 75.2515 64.9438L77.7484 64.9829Z" fill="#2054A6"/>
<path d="M27.6624 68.2173C26.8312 68.0516 25.8624 67.9954 25.1062 68.4204C24.5202 67.4423 23.1843 67.5641 22.7984 68.6391C22.2499 68.0251 21.1796 68.0235 20.403 67.9516C20.6109 67.2376 21.0264 66.6017 21.5968 66.1251C22.3426 65.5026 23.3011 65.1939 24.2702 65.2641C25.0792 65.3227 25.8472 65.6423 26.459 66.1748C27.0707 66.7074 27.493 67.4241 27.6624 68.2173Z" fill="#2054A6"/>
<path d="M67.6624 68.2157C66.8359 68.0579 65.8593 67.9938 65.1062 68.4219C64.5218 67.4438 63.189 67.5641 62.7984 68.6344C62.1077 68.2324 61.3046 68.0219 60.389 68.0032C60.6287 67.1353 61.1727 66.3827 61.9216 65.8831C62.6705 65.3836 63.5741 65.1705 64.4671 65.2829C65.2383 65.3801 65.9601 65.7145 66.5326 66.24C67.1051 66.7655 67.4999 67.4559 67.6624 68.2157Z" fill="#2054A6"/>
<path d="M22.7984 68.6391C22.6473 69.5089 22.9676 70.0391 23.7593 70.2297C24.753 70.4672 25.5468 69.3751 25.1062 68.4204C25.8624 67.9954 26.8312 68.0516 27.6624 68.2173C27.8125 68.9207 27.7569 69.6525 27.5022 70.3252C27.2476 70.998 26.8047 71.5832 26.2265 72.011C25.6168 72.4623 24.8842 72.7176 24.1257 72.743C23.3673 72.7684 22.6189 72.5627 21.9796 72.1532C21.1636 71.6309 20.5817 70.8127 20.3562 69.8704C20.2047 69.2376 20.2208 68.5762 20.403 67.9516C21.1796 68.0235 22.2499 68.0251 22.7984 68.6391Z" fill="#2054A6"/>
<path d="M62.7984 68.6344C62.6463 69.5084 62.9666 70.0402 63.7593 70.2297C64.753 70.4672 65.5468 69.3751 65.1062 68.4219C65.8593 67.9938 66.8359 68.0579 67.6624 68.2157C67.7913 68.8181 67.7696 69.4429 67.5992 70.0349C67.4289 70.6269 67.1152 71.1677 66.6859 71.6094C66.1854 72.1245 65.5474 72.4848 64.8479 72.6474C64.1484 72.81 63.4169 72.7681 62.7405 72.5266C61.9605 72.248 61.2952 71.7194 60.8484 71.0235C60.5637 70.5806 60.3756 70.0826 60.2965 69.5622C60.2173 69.0418 60.2488 68.5105 60.389 68.0032C61.3046 68.0219 62.1077 68.2324 62.7984 68.6344Z" fill="#2054A6"/>
</svg>
