<svg width="80" height="80" viewBox="0 0 80 80" fill="none" xmlns="http://www.w3.org/2000/svg">
<path d="M68.7437 11.2001C67.9187 11.274 67.0926 11.2657 66.2655 11.1751L66.2468 8.82819C66.2468 8.80747 66.2386 8.7876 66.2239 8.77294C66.2093 8.75829 66.1894 8.75006 66.1687 8.75006H51.2671C51.2514 8.75006 51.2363 8.75632 51.2251 8.76745C51.214 8.77859 51.2077 8.79369 51.2077 8.80944V11.2188C51.2077 11.2271 51.2109 11.235 51.2164 11.2409C51.222 11.2468 51.2295 11.2501 51.2374 11.2501L66.1718 11.2532C60.8687 11.3719 54.3202 11.461 48.653 11.1391C48.9562 9.19329 48.5192 7.4985 47.3421 6.05475C44.7437 2.86881 39.8468 3.02819 37.439 6.3485C36.4296 7.74121 36.0697 9.34069 36.3593 11.1469C36.3641 11.1758 36.379 11.202 36.4013 11.2209C36.4236 11.2397 36.4519 11.2501 36.4812 11.2501H38.8655C38.8777 11.25 38.8896 11.2472 38.9005 11.2418C38.9113 11.2364 38.9208 11.2286 38.928 11.2191C38.9353 11.2095 38.9402 11.1985 38.9424 11.1868C38.9446 11.1751 38.9439 11.163 38.9405 11.1516C38.6364 10.0995 38.7145 9.14069 39.1749 8.27506C40.3624 6.04381 43.3812 5.5235 45.1874 7.39069C46.1968 8.43287 46.5046 9.89225 45.9952 11.3298C41.4734 11.3787 36.953 11.3824 32.4343 11.3407C30.6593 11.323 28.8827 11.2521 27.1046 11.1282L28.1671 10.0516C28.175 10.0437 28.1812 10.0342 28.1854 10.0238C28.1896 10.0135 28.1917 10.0023 28.1915 9.99114C28.1914 9.97994 28.189 9.96888 28.1846 9.95861C28.1801 9.94834 28.1736 9.93906 28.1655 9.93131L26.3171 8.08287C26.3001 8.06589 26.2771 8.05635 26.253 8.05635C26.229 8.05635 26.206 8.06589 26.189 8.08287L23.3296 10.9329C22.2004 10.9818 21.0869 10.9199 19.989 10.7469L26.1937 4.54694C26.2093 4.531 26.2308 4.52206 26.2534 4.52206C26.2759 4.52206 26.2977 4.531 26.314 4.54694L31.7359 9.96881C31.7438 9.97698 31.7482 9.9879 31.7482 9.99928C31.7482 10.0107 31.7438 10.0216 31.7359 10.0298L30.5859 11.1798C30.5799 11.1853 30.5757 11.1926 30.5739 11.2006C30.5722 11.2086 30.5728 11.2169 30.5759 11.2245C30.5789 11.2321 30.5842 11.2386 30.591 11.2432C30.5978 11.2477 30.6058 11.2501 30.614 11.2501H33.7374C33.7482 11.2501 33.7588 11.2479 33.7686 11.2436C33.7785 11.2393 33.7873 11.2329 33.7945 11.2249C33.8017 11.217 33.8072 11.2076 33.8106 11.1974C33.8139 11.1872 33.8151 11.1764 33.814 11.1657C33.5213 7.97923 34.5218 5.37923 36.8155 3.36569C39.139 1.32506 42.503 0.711 45.4484 1.77037C47.5963 2.54433 49.2359 4.01412 50.3671 6.17975C50.3784 6.20057 50.3951 6.21796 50.4154 6.23006C50.4358 6.24217 50.4591 6.24854 50.4827 6.2485C51.4515 6.25163 56.3301 6.25163 65.1187 6.2485C66.0218 6.2485 66.5379 6.25996 66.6671 6.28288C67.8671 6.50162 68.7327 7.5235 68.7452 8.75006C68.7525 9.5709 68.752 10.3876 68.7437 11.2001ZM43.7437 10.0001C43.7437 9.6702 43.6126 9.35385 43.3794 9.1206C43.1461 8.88735 42.8298 8.75631 42.4999 8.75631C42.1701 8.75631 41.8537 8.88735 41.6205 9.1206C41.3872 9.35385 41.2562 9.6702 41.2562 10.0001C41.2562 10.3299 41.3872 10.6463 41.6205 10.8795C41.8537 11.1128 42.1701 11.2438 42.4999 11.2438C42.8298 11.2438 43.1461 11.1128 43.3794 10.8795C43.6126 10.6463 43.7437 10.3299 43.7437 10.0001Z" fill="white"/>
<path d="M19.989 10.7469C21.0869 10.9199 22.2004 10.9818 23.3296 10.9329L17.7905 16.4735C16.7155 16.2902 15.6119 16.2188 14.4796 16.2594L19.989 10.7469Z" fill="white"/>
<path d="M27.1046 11.1282C28.8827 11.2521 30.6593 11.323 32.4343 11.3407C36.953 11.3824 41.4734 11.3787 45.9952 11.3298C45.5765 12.3631 44.8609 13.0777 43.8484 13.4735C43.8189 13.4851 43.7936 13.5053 43.7757 13.5315C43.7579 13.5577 43.7484 13.5887 43.7484 13.6204V15.986C43.7483 16.0067 43.7531 16.0272 43.7626 16.0457C43.772 16.0642 43.7857 16.0802 43.8027 16.0924C43.8196 16.1046 43.8392 16.1126 43.8599 16.1158C43.8806 16.1191 43.9018 16.1174 43.9218 16.111C46.5083 15.2735 48.0853 13.6162 48.653 11.1391C54.3202 11.461 60.8687 11.3719 66.1718 11.2532C66.252 11.249 66.2833 11.223 66.2655 11.1751C67.0926 11.2657 67.9187 11.274 68.7437 11.2001C68.7718 12.5969 67.6984 13.6485 66.3359 13.7563C66.3144 13.7579 66.2944 13.7674 66.2796 13.783C66.2649 13.7986 66.2565 13.8192 66.2562 13.8407L66.2468 16.4188L63.7499 16.9813L63.7405 13.8376C63.7405 13.8144 63.7313 13.7921 63.7149 13.7757C63.6985 13.7593 63.6763 13.7501 63.653 13.7501H61.2999C61.2862 13.7501 61.2731 13.7553 61.2635 13.7647C61.2538 13.7741 61.2484 13.7868 61.2484 13.8001V16.9969C60.4161 16.8917 59.5843 16.9157 58.753 17.0688V13.8016C58.753 13.7879 58.7476 13.7748 58.7379 13.7652C58.7283 13.7555 58.7152 13.7501 58.7015 13.7501H50.4859C50.4605 13.75 50.4357 13.7568 50.4142 13.7698C50.3926 13.7828 50.3753 13.8014 50.364 13.8235C48.9775 16.487 46.8025 18.0949 43.839 18.6469C43.8155 18.6508 43.7941 18.6627 43.7782 18.6806C43.7623 18.6985 43.7529 18.7213 43.7515 18.7454L43.7468 18.8282L41.2515 18.861V13.8032C41.2515 13.7891 41.2461 13.7756 41.2364 13.7656C41.2267 13.7557 41.2136 13.7501 41.1999 13.7501H28.8562C28.8326 13.7501 28.8096 13.7581 28.7909 13.7728C28.7723 13.7875 28.7589 13.8081 28.753 13.8313C28.7395 13.8876 28.7385 13.9506 28.7499 14.0204C27.2593 14.0766 25.7718 14.0521 24.2874 13.9469L27.1046 11.1282Z" fill="white"/>
<path d="M24.2874 13.9469C25.7718 14.0521 27.2593 14.0766 28.7499 14.0204L28.7484 21.5391C27.9744 21.8412 27.1416 21.962 26.2499 21.9016L26.2405 21.3344C26.2401 21.3119 26.2309 21.2905 26.2148 21.2747C26.1988 21.2589 26.1771 21.2501 26.1546 21.2501H20.603C20.5519 21.25 20.5026 21.2702 20.4655 21.3063L19.8499 21.911L16.3952 21.8407L24.2874 13.9469ZM26.2499 15.636C26.2499 15.6263 26.2469 15.6168 26.2415 15.6086C26.2361 15.6005 26.2285 15.5942 26.2195 15.5904C26.2106 15.5866 26.2007 15.5854 26.1911 15.5872C26.1815 15.5889 26.1726 15.5934 26.1655 15.6001L23.0999 18.6657C23.0932 18.6728 23.0887 18.6816 23.087 18.6912C23.0853 18.7008 23.0864 18.7107 23.0902 18.7197C23.094 18.7286 23.1004 18.7363 23.1085 18.7417C23.1166 18.7471 23.1261 18.75 23.1359 18.7501H26.1999C26.2132 18.7501 26.2259 18.7448 26.2353 18.7354C26.2447 18.726 26.2499 18.7133 26.2499 18.7001V15.636Z" fill="white"/>
<path d="M14.4796 16.2594C15.6119 16.2188 16.7155 16.2902 17.7905 16.4735L12.5484 21.7173L9.21398 21.5266L14.4796 16.2594Z" fill="white"/>
<path d="M38.7499 21.1313C36.252 21.3292 33.7525 21.3896 31.2515 21.3126C31.2494 20.6542 31.2489 19.9912 31.2499 19.3235C31.251 18.5631 31.3197 18.037 31.4562 17.7454C32.0499 16.4704 33.1546 16.1735 34.5859 16.2469C35.3718 16.286 36.4077 16.1251 37.0905 16.3969C37.9114 16.7251 38.4379 17.3001 38.6702 18.1219C38.7307 18.3386 38.7577 18.8386 38.7515 19.6219C38.7473 20.1261 38.7468 20.6292 38.7499 21.1313ZM36.2499 18.8157C36.2499 18.7983 36.243 18.7816 36.2307 18.7693C36.2184 18.757 36.2017 18.7501 36.1843 18.7501H33.8155C33.7981 18.7501 33.7814 18.757 33.7691 18.7693C33.7568 18.7816 33.7499 18.7983 33.7499 18.8157V21.1844C33.7499 21.2018 33.7568 21.2185 33.7691 21.2308C33.7814 21.2431 33.7981 21.2501 33.8155 21.2501H36.1843C36.2017 21.2501 36.2184 21.2431 36.2307 21.2308C36.243 21.2185 36.2499 21.2018 36.2499 21.1844V18.8157Z" fill="white"/>
<path d="M66.2468 16.4188L66.2593 18.6532C66.2592 18.674 66.267 18.6942 66.2811 18.7098C66.2953 18.7254 66.3148 18.7353 66.3359 18.7376C67.6734 18.8938 68.7281 19.8079 68.7359 21.2063C68.7379 21.3896 68.7567 21.5584 68.7921 21.7126L66.2515 21.9001L66.2374 21.3329C66.237 21.3108 66.2279 21.2897 66.2122 21.2742C66.1964 21.2587 66.1752 21.2501 66.153 21.2501H58.8562C58.8331 21.25 58.8109 21.2588 58.7943 21.2746C58.7777 21.2903 58.7679 21.3118 58.7671 21.3344L58.7499 21.8813L56.2234 21.7563C56.1838 19.9886 57.0004 18.9782 58.6734 18.7251C58.6946 18.7217 58.714 18.7109 58.728 18.6946C58.7421 18.6783 58.7498 18.6575 58.7499 18.636L58.753 17.0688C59.5843 16.9157 60.4161 16.8917 61.2484 16.9969L61.2499 18.686C61.2499 18.703 61.2567 18.7193 61.2687 18.7313C61.2807 18.7433 61.297 18.7501 61.314 18.7501H63.6687C63.6906 18.7501 63.7117 18.7413 63.7272 18.7258C63.7428 18.7103 63.7515 18.6892 63.7515 18.6672L63.7499 16.9813L66.2468 16.4188Z" fill="white"/>
<path d="M43.7468 18.8282L43.7452 23.5157C42.9265 23.7542 42.0952 23.8725 41.2515 23.8704V18.861L43.7468 18.8282Z" fill="white"/>
<path d="M38.7499 21.1313L38.7468 28.9891L36.2515 29.1829L36.2405 28.8391C36.2397 28.8148 36.2297 28.7918 36.2125 28.7749C36.1953 28.758 36.1723 28.7485 36.1484 28.7485H33.8562C33.8318 28.7485 33.8085 28.7577 33.791 28.7744C33.7735 28.791 33.7632 28.8136 33.7624 28.8376L33.7499 29.1454L31.253 29.2251L31.2515 21.3126C33.7525 21.3896 36.252 21.3292 38.7499 21.1313ZM36.2499 23.8219C36.2499 23.8029 36.2423 23.7846 36.2289 23.7711C36.2154 23.7576 36.1971 23.7501 36.178 23.7501H33.8218C33.8027 23.7501 33.7845 23.7576 33.771 23.7711C33.7575 23.7846 33.7499 23.8029 33.7499 23.8219V26.1782C33.7499 26.1972 33.7575 26.2155 33.771 26.229C33.7845 26.2425 33.8027 26.2501 33.8218 26.2501H36.178C36.1971 26.2501 36.2154 26.2425 36.2289 26.229C36.2423 26.2155 36.2499 26.1972 36.2499 26.1782V23.8219Z" fill="white"/>
<path d="M12.5484 21.7173L11.8046 22.4594C11.7942 22.4704 11.7884 22.4848 11.7884 22.4997C11.7884 22.5146 11.7942 22.5288 11.8046 22.5391L13.7093 24.4438C13.7201 24.4545 13.7347 24.4605 13.7499 24.4605C13.7651 24.4605 13.7797 24.4545 13.7905 24.4438L16.3952 21.8407L19.8499 21.911L18.7999 22.9688C18.7836 22.9846 18.7706 23.0037 18.7617 23.0249C18.7529 23.0462 18.7483 23.069 18.7484 23.0922V23.6626C18.7484 23.6858 18.7576 23.708 18.774 23.7244C18.7904 23.7408 18.8127 23.7501 18.8359 23.7501H26.153C26.1754 23.7501 26.1969 23.7412 26.2127 23.7253C26.2285 23.7095 26.2374 23.6881 26.2374 23.6657L26.2499 21.9016C27.1416 21.962 27.9744 21.8412 28.7484 21.5391V27.2626C27.9452 26.9876 27.1135 26.823 26.253 26.7688L26.2312 26.3344C26.23 26.3116 26.2199 26.2901 26.203 26.2744C26.1862 26.2587 26.1638 26.25 26.1405 26.2501H16.3327C16.3099 26.2501 16.2881 26.2408 16.272 26.2244C16.2559 26.208 16.2468 26.1858 16.2468 26.1626V25.6172C16.2466 25.609 16.2439 25.6009 16.2393 25.594C16.2346 25.5872 16.2281 25.5818 16.2206 25.5786C16.2131 25.5755 16.2049 25.5746 16.1971 25.5762C16.1892 25.5778 16.1821 25.5817 16.1765 25.5876L13.8109 27.9548C13.8029 27.9628 13.7934 27.9692 13.7829 27.9735C13.7725 27.9779 13.7612 27.9801 13.7499 27.9801C13.7386 27.9801 13.7274 27.9779 13.7169 27.9735C13.7065 27.9692 13.697 27.9628 13.689 27.9548L11.9421 26.2063C11.9267 26.1906 11.9057 26.1817 11.8835 26.1814C11.8613 26.1811 11.8397 26.1895 11.8234 26.2048L11.4187 26.5876C10.3405 26.7501 9.28065 26.7042 8.23898 26.4501C8.68586 25.7016 9.36086 25.1219 10.0452 24.4298C10.0612 24.4135 10.0701 24.3917 10.0701 24.3691C10.0701 24.3466 10.0612 24.3251 10.0452 24.3094L8.30149 22.5657C8.28584 22.5499 8.27706 22.5285 8.27706 22.5063C8.27706 22.4841 8.28584 22.4627 8.30149 22.4469L9.21398 21.5266L12.5484 21.7173Z" fill="white"/>
<path d="M68.7921 21.7126C71.2994 22.6949 72.8926 24.4959 73.5718 27.1157L71.0031 27.2188C70.5895 26.0178 69.8348 25.0912 68.739 24.4391C68.7299 24.4338 68.7197 24.4305 68.7093 24.4295C68.6988 24.4285 68.6883 24.4297 68.6785 24.4331C68.6686 24.4366 68.6597 24.4421 68.6524 24.4493C68.645 24.4566 68.6394 24.4654 68.6359 24.4751C68.1932 25.6605 67.3333 26.2527 66.0562 26.2516C64.8791 26.2495 64.1416 26.2495 63.8437 26.2516C63.821 26.252 63.7994 26.2612 63.7833 26.2772C63.7673 26.2933 63.7581 26.3149 63.7577 26.3376L63.7468 27.7329L61.2562 26.7688L61.2437 26.3376C61.2429 26.3149 61.2333 26.2934 61.217 26.2777C61.2006 26.262 61.1788 26.2532 61.1562 26.2532C60.5322 26.2449 60.0067 26.2449 59.5796 26.2532C58.8171 26.2678 58.2947 26.2277 58.0124 26.1329C57.2197 25.8673 56.6723 25.3183 56.3702 24.486C56.3666 24.4757 56.3606 24.4663 56.3528 24.4586C56.3451 24.4508 56.3356 24.4449 56.3252 24.4411C56.3148 24.4374 56.3036 24.436 56.2925 24.437C56.2814 24.438 56.2706 24.4414 56.2609 24.4469C55.1202 25.1146 54.352 26.0834 53.9562 27.3532L51.4249 27.1516C51.978 24.8766 53.2989 23.1824 55.3874 22.0688C55.6687 21.9188 55.9473 21.8146 56.2234 21.7563L58.7499 21.8813L58.7484 23.6923C58.7484 23.7076 58.7544 23.7223 58.7653 23.7331C58.7761 23.744 58.7908 23.7501 58.8062 23.7501H66.1937C66.2094 23.7501 66.2245 23.7438 66.2357 23.7327C66.2468 23.7215 66.253 23.7064 66.253 23.6907L66.2515 21.9001L68.7921 21.7126Z" fill="white"/>
<path d="M43.7452 23.5157L43.7468 29.1454L41.2499 29.4157L41.2515 23.8704C42.0952 23.8725 42.9265 23.7542 43.7452 23.5157Z" fill="white"/>
<path d="M11.4187 26.5876C10.5343 27.4969 10.0187 27.8969 10.0046 29.2766C9.99836 29.91 9.99576 30.5459 9.9968 31.1844C9.18638 31.3865 8.35721 31.4714 7.5093 31.4391C7.47596 30.1266 7.48325 29.1521 7.53117 28.5157C7.58325 27.8115 7.81919 27.123 8.23898 26.4501C9.28065 26.7042 10.3405 26.7501 11.4187 26.5876Z" fill="white"/>
<path d="M28.7484 27.2626V31.3298C27.9359 31.5527 27.1036 31.6969 26.2515 31.7626L26.253 26.7688C27.1135 26.823 27.9452 26.9876 28.7484 27.2626Z" fill="white"/>
<path d="M63.7468 27.7329L63.7452 33.6907C63.7452 33.7064 63.739 33.7215 63.7278 33.7327C63.7167 33.7438 63.7016 33.7501 63.6859 33.7501H61.3484C61.3243 33.7501 61.3013 33.7405 61.2843 33.7235C61.2673 33.7065 61.2577 33.6835 61.2577 33.6594L61.2562 26.7688L63.7468 27.7329Z" fill="white"/>
<path d="M73.5718 27.1157C73.7333 27.8949 73.7895 28.5433 73.7405 29.061C73.4905 31.6969 71.5124 33.6704 68.8405 33.7422C68.8288 33.7427 68.8171 33.7407 68.8061 33.7364C68.7951 33.7321 68.7851 33.7256 68.7767 33.7173C68.7682 33.709 68.7615 33.699 68.7569 33.688C68.7523 33.677 68.7499 33.6652 68.7499 33.6532V31.3251C68.7499 31.3043 68.7578 31.2843 68.772 31.2692C68.7863 31.2541 68.8058 31.245 68.8265 31.2438C69.1671 31.2188 69.3994 31.1818 69.5234 31.1329C71.2906 30.4219 71.4968 28.8938 71.0031 27.2188L73.5718 27.1157Z" fill="white"/>
<path d="M51.4249 27.1516L53.9562 27.3532C53.7562 28.0657 53.6859 28.5969 53.7452 28.9469C53.9765 30.324 54.7807 31.0943 56.1577 31.2579C56.1832 31.2613 56.2065 31.2739 56.2235 31.2934C56.2404 31.313 56.2498 31.3381 56.2499 31.3641V33.6548C56.2499 33.6662 56.2476 33.6776 56.2431 33.6882C56.2386 33.6987 56.2319 33.7082 56.2236 33.7161C56.2152 33.724 56.2054 33.7301 56.1946 33.7341C56.1838 33.7381 56.1723 33.7398 56.1609 33.7391C53.9218 33.6516 52.1359 32.2766 51.4796 30.2719C51.1765 29.3469 51.1583 28.3068 51.4249 27.1516Z" fill="white"/>
<path d="M38.7468 28.9891L38.7484 34.6141L36.2499 34.4985L36.239 33.836C36.2386 33.8127 36.229 33.7904 36.2124 33.774C36.1957 33.7577 36.1733 33.7485 36.1499 33.7485H33.8468C33.823 33.7485 33.8002 33.758 33.7833 33.775C33.7663 33.7919 33.7566 33.815 33.7562 33.8391L33.7499 34.4969L31.253 34.4579V29.2251L33.7499 29.1454V31.161C33.7499 31.185 33.7595 31.2081 33.7765 31.2251C33.7935 31.2421 33.8165 31.2516 33.8405 31.2516H36.1609C36.1849 31.2516 36.2079 31.2421 36.2249 31.2251C36.2419 31.2081 36.2515 31.185 36.2515 31.161V29.1829L38.7468 28.9891Z" fill="white"/>
<path d="M43.7468 29.1454L43.7484 34.9188C42.9286 34.674 42.0963 34.5459 41.2515 34.5344L41.2499 29.4157L43.7468 29.1454Z" fill="white"/>
<path d="M9.9968 31.1844C9.99211 31.8719 9.92336 32.8251 10.164 33.3954C10.4348 34.0391 10.8801 34.5047 11.4999 34.7923C11.827 34.9433 12.3291 35.0157 13.0062 35.0094C14.2296 34.9969 15.2124 34.9126 16.1109 35.1344C17.6744 35.523 18.8067 36.4245 19.5077 37.8391C19.9734 38.7787 20.1103 39.824 19.9187 40.9751L17.3515 40.8626C17.7702 39.5704 17.1952 38.1844 15.9343 37.6829C15.5916 37.5464 15.1161 37.4829 14.5077 37.4922C13.7494 37.5047 13.1067 37.5074 12.5796 37.5001C9.93586 37.4657 7.82492 35.636 7.52648 33.0079C7.48898 32.6745 7.48325 32.1516 7.5093 31.4391C8.35721 31.4714 9.18638 31.3865 9.9968 31.1844Z" fill="white"/>
<path d="M28.7484 31.3298V39.836L26.2499 39.4579L26.2515 31.7626C27.1036 31.6969 27.9359 31.5527 28.7484 31.3298Z" fill="white"/>
<path d="M43.7484 34.9188L43.7468 39.4985L41.2499 38.8344L41.2515 34.5344C42.0963 34.5459 42.9286 34.674 43.7484 34.9188Z" fill="white"/>
<path d="M33.7499 34.4969L33.7484 36.1594C33.7484 36.1839 33.7581 36.2073 33.7754 36.2246C33.7927 36.2419 33.8161 36.2516 33.8405 36.2516H36.1593C36.1837 36.2516 36.2072 36.2419 36.2245 36.2246C36.2418 36.2073 36.2515 36.1839 36.2515 36.1594L36.2499 34.4985L38.7484 34.6141C38.7562 35.4173 38.8484 36.5407 38.5624 37.2001C38.2208 37.9886 37.6015 38.4922 36.7046 38.711C36.6257 38.7307 36.5444 38.7407 36.4624 38.7407C35.502 38.7469 34.9286 38.7516 34.7421 38.7547C33.8796 38.7693 33.326 38.7376 33.0812 38.6594C32.2801 38.4063 31.7228 37.898 31.4093 37.1344C31.139 36.4766 31.2515 35.2766 31.253 34.4579L33.7499 34.4969Z" fill="white"/>
<path d="M56.2484 41.3641L53.7499 40.6626L53.7374 38.836C53.7374 38.8128 53.7282 38.7905 53.7118 38.7741C53.6954 38.7577 53.6731 38.7485 53.6499 38.7485H51.3499C51.3251 38.7485 51.3012 38.7584 51.2836 38.776C51.266 38.7935 51.2562 38.8174 51.2562 38.8423L51.2499 41.5594L48.753 41.1673L48.7546 36.3329C48.7546 36.3109 48.7635 36.2898 48.7793 36.2743C48.7951 36.2588 48.8166 36.2501 48.839 36.2501H56.1999C56.2119 36.2501 56.2235 36.255 56.232 36.2638C56.2405 36.2726 56.2452 36.2845 56.2452 36.2969L56.2484 41.3641Z" fill="white"/>
<path d="M66.2484 41.3641L63.7499 40.6626L63.7374 38.836C63.7374 38.8128 63.7282 38.7905 63.7118 38.7741C63.6954 38.7577 63.6731 38.7485 63.6499 38.7485H61.3515C61.3266 38.7485 61.3028 38.7584 61.2852 38.776C61.2676 38.7935 61.2577 38.8174 61.2577 38.8423L61.2499 40.861L58.7562 40.7048L58.7671 36.3407C58.7671 36.3288 58.7695 36.317 58.774 36.306C58.7786 36.295 58.7852 36.285 58.7937 36.2766C58.8021 36.2682 58.8121 36.2615 58.8231 36.257C58.834 36.2524 58.8458 36.2501 58.8577 36.2501H66.1765C66.1855 36.2501 66.1945 36.2518 66.2028 36.2553C66.2111 36.2588 66.2187 36.2638 66.2251 36.2702C66.2315 36.2766 66.2365 36.2842 66.24 36.2925C66.2435 36.3008 66.2452 36.3098 66.2452 36.3188L66.2484 41.3641Z" fill="white"/>
<path d="M76.2421 40.9688L76.1984 41.2063C76.1943 41.2268 76.1829 41.2451 76.1663 41.258C76.1497 41.2708 76.1289 41.2775 76.1077 41.2766L73.7499 41.1641L73.739 38.836C73.7386 38.8127 73.7292 38.7904 73.7128 38.774C73.6964 38.7577 73.6744 38.7485 73.6515 38.7485H71.3499C71.3255 38.7485 71.302 38.7584 71.2847 38.776C71.2674 38.7935 71.2577 38.8174 71.2577 38.8423L71.2499 40.9329L68.753 40.7063L68.7577 36.311C68.7577 36.2948 68.7642 36.2793 68.7756 36.2679C68.787 36.2565 68.8025 36.2501 68.8187 36.2501H76.1484C76.1716 36.2501 76.1938 36.2594 76.2102 36.2761C76.2266 36.2929 76.2359 36.3155 76.2359 36.3391L76.2421 40.9688Z" fill="white"/>
<path d="M43.7468 39.4985L43.7577 41.1657C43.7577 41.1771 43.76 41.1884 43.7644 41.1989C43.7688 41.2095 43.7753 41.219 43.7835 41.227C43.7916 41.235 43.8013 41.2413 43.8119 41.2455C43.8225 41.2498 43.8338 41.2518 43.8452 41.2516C45.7249 41.2251 46.5452 42.2594 47.9499 43.6922C47.9682 43.7111 47.9902 43.726 48.0147 43.7362C48.0391 43.7464 48.0654 43.7517 48.0921 43.7516H48.6421C48.6715 43.7516 48.6997 43.7399 48.7206 43.7191C48.7414 43.6983 48.753 43.6701 48.753 43.6407V41.1673L51.2499 41.5594V43.686C51.2499 43.703 51.2567 43.7193 51.2687 43.7313C51.2807 43.7433 51.297 43.7501 51.314 43.7501H53.6859C53.6943 43.7501 53.7026 43.7484 53.7104 43.7451C53.7181 43.7418 53.7252 43.7369 53.7312 43.7308C53.7371 43.7247 53.7418 43.7175 53.745 43.7095C53.7483 43.7016 53.7499 43.6931 53.7499 43.6844V40.6626L56.2484 41.3641L56.264 43.6563C56.2644 43.6813 56.2746 43.7052 56.2924 43.7227C56.3103 43.7402 56.3343 43.7501 56.3593 43.7501H58.6499C58.6741 43.7501 58.6973 43.7406 58.7146 43.7236C58.7318 43.7067 58.7417 43.6836 58.7421 43.6594L58.7562 40.7048L61.2499 40.861L61.2515 43.686C61.2515 43.703 61.2582 43.7193 61.2702 43.7313C61.2823 43.7433 61.2986 43.7501 61.3156 43.7501H63.6593C63.6838 43.7501 63.7072 43.7405 63.7245 43.7235C63.7418 43.7065 63.7515 43.6835 63.7515 43.6594L63.7499 40.6626L66.2484 41.3641L66.264 43.6563C66.2644 43.6813 66.2746 43.7052 66.2924 43.7227C66.3103 43.7402 66.3343 43.7501 66.3593 43.7501H68.6499C68.6741 43.7501 68.6973 43.7406 68.7146 43.7236C68.7318 43.7067 68.7417 43.6836 68.7421 43.6594L68.753 40.7063L71.2499 40.9329V43.686C71.2499 43.703 71.2567 43.7193 71.2687 43.7313C71.2807 43.7433 71.297 43.7501 71.314 43.7501H73.6859C73.7033 43.7501 73.72 43.7431 73.7323 43.7308C73.7446 43.7185 73.7515 43.7018 73.7515 43.6844L73.7499 41.1641L76.1077 41.2766C76.1289 41.2775 76.1497 41.2708 76.1663 41.258C76.1829 41.2451 76.1943 41.2268 76.1984 41.2063L76.2421 40.9688L76.2671 43.886C76.2677 43.9098 76.2749 43.933 76.2879 43.9526C76.3009 43.9723 76.3192 43.9877 76.3405 43.9969C77.501 44.5011 78.2635 45.3542 78.6281 46.5563C77.7531 46.5782 76.8968 46.673 76.0593 46.8407C75.7978 46.448 75.4827 46.2516 75.114 46.2516C67.8432 46.2506 58.4926 46.2501 47.0624 46.2501C47.0367 46.2501 47.0111 46.245 46.9872 46.2351C46.9634 46.2252 46.9417 46.2106 46.9234 46.1922C45.9077 45.1704 45.2124 44.4756 44.8374 44.1079C44.5947 43.8704 44.2713 43.7511 43.8671 43.7501C41.0588 43.7469 35.6161 43.7495 27.539 43.7579C27.0702 43.7579 26.6635 43.986 26.3187 44.4422C25.5145 44.4683 24.6926 44.3631 23.853 44.1266C24.2093 42.8766 24.9728 42.0074 26.1437 41.5188C26.1659 41.5099 26.1851 41.4946 26.1987 41.4749C26.2123 41.4552 26.2198 41.4318 26.2202 41.4079L26.2499 39.4579L28.7484 39.836V41.1922C28.7484 41.1998 28.7499 41.2074 28.7528 41.2144C28.7557 41.2214 28.7599 41.2278 28.7653 41.2331C28.7707 41.2385 28.777 41.2428 28.784 41.2457C28.7911 41.2486 28.7986 41.2501 28.8062 41.2501H41.1937C41.2013 41.2501 41.2088 41.2486 41.2158 41.2457C41.2228 41.2428 41.2292 41.2385 41.2346 41.2331C41.2399 41.2278 41.2442 41.2214 41.2471 41.2144C41.25 41.2074 41.2515 41.1998 41.2515 41.1922L41.2499 38.8344L43.7468 39.4985Z" fill="white"/>
<path d="M19.9187 40.9751C19.3645 42.9959 18.2077 44.2579 16.4484 44.761C15.8067 44.9454 14.7567 45.0303 13.2984 45.0157C11.1067 44.9959 8.91503 44.9896 6.72336 44.9969C6.09836 44.999 5.61711 45.0704 5.27961 45.211C4.31503 45.6152 3.79836 46.4136 3.72961 47.6063L1.25617 47.4266C1.29367 45.236 2.68898 43.4251 4.7343 42.7344C5.26242 42.5563 6.25513 42.4756 7.71242 42.4922C8.17284 42.4985 10.5499 42.5001 14.8437 42.4969C16.0385 42.4959 16.8744 41.9511 17.3515 40.8626L19.9187 40.9751Z" fill="white"/>
<path d="M26.3187 44.4422L26.2515 48.6844C26.2515 48.6931 26.2531 48.7016 26.2564 48.7095C26.2596 48.7175 26.2643 48.7247 26.2702 48.7308C26.2762 48.7369 26.2833 48.7418 26.291 48.7451C26.2988 48.7484 26.3071 48.7501 26.3155 48.7501H76.1343C76.163 48.7501 76.1906 48.7388 76.2111 48.7186C76.2316 48.6984 76.2433 48.671 76.2437 48.6422C76.253 48.2266 76.3484 47.3376 76.0593 46.8407C76.8968 46.673 77.7531 46.5782 78.6281 46.5563C78.7083 46.8917 78.7489 47.2324 78.7499 47.5782C78.751 49.673 78.7504 51.7667 78.7484 53.8594L76.2499 54.1344L76.2374 51.3298C76.2374 51.3086 76.229 51.2883 76.2141 51.2734C76.1991 51.2585 76.1789 51.2501 76.1577 51.2501H26.2984C26.2855 51.2501 26.2732 51.255 26.2641 51.2638C26.255 51.2726 26.2499 51.2845 26.2499 51.2969V61.3344C25.4551 61.0251 24.6223 60.9605 23.7515 61.1407L23.753 56.3001C23.753 56.288 23.7483 56.2765 23.7398 56.268C23.7313 56.2595 23.7198 56.2547 23.7077 56.2547C22.8598 56.2454 22.1791 56.2454 21.6655 56.2547C20.3405 56.2813 19.3312 55.7797 18.8812 54.5454C18.6546 53.9219 18.8202 53.0657 18.7515 52.5813C18.7476 52.5547 18.7337 52.5306 18.7127 52.514C18.6918 52.4974 18.6654 52.4896 18.639 52.4922C18.4702 52.5058 14.4015 52.5068 6.43273 52.4954C4.49419 52.4922 3.01867 51.7074 2.00617 50.1407C1.49576 49.3511 1.24576 48.4464 1.25617 47.4266L3.72961 47.6063C3.88794 48.6876 4.3843 49.4068 5.21867 49.7641C5.6218 49.936 6.29315 50.0188 7.23273 50.0126C9.79107 49.9949 13.5958 49.9922 18.6468 50.0047C18.6735 50.0048 18.6991 49.9944 18.7181 49.976C18.7371 49.9576 18.7479 49.9326 18.7484 49.9063C18.7536 49.6334 18.7546 49.3433 18.7515 49.036C18.7374 47.861 19.189 46.9313 20.2812 46.4469C20.6395 46.2876 21.19 46.2204 21.9327 46.2454C22.2057 46.2547 22.7853 46.2558 23.6718 46.2485C23.686 46.2483 23.7001 46.2452 23.7131 46.2394C23.726 46.2335 23.7377 46.2251 23.7472 46.2145C23.7568 46.2039 23.764 46.1915 23.7685 46.178C23.773 46.1645 23.7747 46.1502 23.7734 46.136C23.7119 45.4339 23.7385 44.7641 23.853 44.1266C24.6926 44.3631 25.5145 44.4683 26.3187 44.4422ZM23.7499 48.8079C23.7499 48.7925 23.7438 48.7778 23.733 48.767C23.7221 48.7561 23.7074 48.7501 23.6921 48.7501H21.3077C21.2924 48.7501 21.2777 48.7561 21.2669 48.767C21.256 48.7778 21.2499 48.7925 21.2499 48.8079V53.6922C21.2499 53.7076 21.256 53.7223 21.2669 53.7331C21.2777 53.744 21.2924 53.7501 21.3077 53.7501H23.6921C23.7074 53.7501 23.7221 53.744 23.733 53.7331C23.7438 53.7223 23.7499 53.7076 23.7499 53.6922V48.8079Z" fill="white"/>
<path d="M78.7484 53.8594V65.9829L76.2515 65.9438L76.2499 54.1344L78.7484 53.8594Z" fill="white"/>
<path d="M38.7452 59.9985C38.7452 60.9918 38.3506 61.9445 37.6483 62.6468C36.9459 63.3492 35.9932 63.7438 34.9999 63.7438C34.0066 63.7438 33.054 63.3492 32.3516 62.6468C31.6492 61.9445 31.2546 60.9918 31.2546 59.9985C31.2546 59.5067 31.3515 59.0196 31.5397 58.5652C31.7279 58.1108 32.0038 57.6979 32.3516 57.3502C32.6994 57.0024 33.1123 56.7265 33.5667 56.5383C34.0211 56.3501 34.5081 56.2532 34.9999 56.2532C35.4918 56.2532 35.9788 56.3501 36.4332 56.5383C36.8876 56.7265 37.3005 57.0024 37.6483 57.3502C37.996 57.6979 38.2719 58.1108 38.4601 58.5652C38.6484 59.0196 38.7452 59.5067 38.7452 59.9985ZM36.2452 60.0001C36.2452 59.6698 36.114 59.353 35.8805 59.1195C35.6469 58.8859 35.3302 58.7547 34.9999 58.7547C34.6696 58.7547 34.3529 58.8859 34.1194 59.1195C33.8858 59.353 33.7546 59.6698 33.7546 60.0001C33.7546 60.3303 33.8858 60.6471 34.1194 60.8806C34.3529 61.1142 34.6696 61.2454 34.9999 61.2454C35.3302 61.2454 35.6469 61.1142 35.8805 60.8806C36.114 60.6471 36.2452 60.3303 36.2452 60.0001Z" fill="white"/>
<path d="M48.7452 59.9985C48.7452 60.9918 48.3506 61.9445 47.6483 62.6468C46.9459 63.3492 45.9932 63.7438 44.9999 63.7438C44.0066 63.7438 43.054 63.3492 42.3516 62.6468C41.6492 61.9445 41.2546 60.9918 41.2546 59.9985C41.2546 59.5067 41.3515 59.0196 41.5397 58.5652C41.7279 58.1108 42.0038 57.6979 42.3516 57.3502C42.6994 57.0024 43.1123 56.7265 43.5667 56.5383C44.0211 56.3501 44.5081 56.2532 44.9999 56.2532C45.4918 56.2532 45.9788 56.3501 46.4332 56.5383C46.8876 56.7265 47.3005 57.0024 47.6483 57.3502C47.996 57.6979 48.2719 58.1108 48.4601 58.5652C48.6484 59.0196 48.7452 59.5067 48.7452 59.9985ZM46.2452 60.0001C46.2452 59.6698 46.114 59.353 45.8805 59.1195C45.647 58.8859 45.3302 58.7547 44.9999 58.7547C44.6696 58.7547 44.3529 58.8859 44.1194 59.1195C43.8858 59.353 43.7546 59.6698 43.7546 60.0001C43.7546 60.3303 43.8858 60.6471 44.1194 60.8806C44.3529 61.1142 44.6696 61.2454 44.9999 61.2454C45.3302 61.2454 45.647 61.1142 45.8805 60.8806C46.114 60.6471 46.2452 60.3303 46.2452 60.0001Z" fill="white"/>
<path d="M58.7452 59.9985C58.7452 60.9918 58.3506 61.9445 57.6483 62.6468C56.9459 63.3492 55.9932 63.7438 54.9999 63.7438C54.0066 63.7438 53.054 63.3492 52.3516 62.6468C51.6492 61.9445 51.2546 60.9918 51.2546 59.9985C51.2546 59.5067 51.3515 59.0196 51.5397 58.5652C51.7279 58.1108 52.0038 57.6979 52.3516 57.3502C52.6994 57.0024 53.1123 56.7265 53.5667 56.5383C54.0211 56.3501 54.5081 56.2532 54.9999 56.2532C55.4918 56.2532 55.9788 56.3501 56.4332 56.5383C56.8876 56.7265 57.3005 57.0024 57.6483 57.3502C57.996 57.6979 58.2719 58.1108 58.4601 58.5652C58.6484 59.0196 58.7452 59.5067 58.7452 59.9985ZM56.2452 60.0001C56.2452 59.6698 56.114 59.353 55.8805 59.1195C55.647 58.8859 55.3302 58.7547 54.9999 58.7547C54.6696 58.7547 54.3529 58.8859 54.1194 59.1195C53.8858 59.353 53.7546 59.6698 53.7546 60.0001C53.7546 60.3303 53.8858 60.6471 54.1194 60.8806C54.3529 61.1142 54.6696 61.2454 54.9999 61.2454C55.3302 61.2454 55.647 61.1142 55.8805 60.8806C56.114 60.6471 56.2452 60.3303 56.2452 60.0001Z" fill="white"/>
<path d="M26.2499 61.3344C26.7978 61.4459 27.2057 61.5433 27.4734 61.6266C29.8161 62.3475 31.5754 63.7923 32.7515 65.961C31.7973 65.9193 30.8775 66.0146 29.9921 66.2469C27.4343 62.9141 22.6124 62.9391 20.003 66.236C19.5166 66.0735 18.9411 65.9626 18.2765 65.9032C18.0213 65.8803 17.7468 65.7745 17.453 65.586C18.8874 63.2412 20.9598 61.8339 23.6702 61.3641C23.7463 61.3506 23.7734 61.2761 23.7515 61.1407C24.6223 60.9605 25.4551 61.0251 26.2499 61.3344Z" fill="white"/>
<path d="M73.1687 66.8735C72.2989 66.9558 71.4822 67.1506 70.7187 67.4579C68.4515 62.7579 62.028 62.4266 59.4749 67.0782L56.7718 67.0313C59.6624 59.4204 70.1202 59.3344 73.1687 66.8735Z" fill="white"/>
<path d="M20.003 66.236C18.8926 67.836 18.5192 69.4985 18.8827 71.2235C19.1452 72.4735 19.7067 73.5313 20.5671 74.3969C23.5859 77.4329 28.678 76.6016 30.5874 72.7782C31.6405 70.6688 31.414 68.1751 29.9921 66.2469C30.8775 66.0146 31.7973 65.9193 32.7515 65.961C33.6015 67.5891 33.902 69.3251 33.653 71.1688C33.6517 71.179 33.6526 71.1894 33.6556 71.1992C33.6586 71.209 33.6637 71.2181 33.6705 71.2258C33.6773 71.2335 33.6857 71.2397 33.6951 71.2439C33.7045 71.248 33.7146 71.2501 33.7249 71.2501H56.2874C56.2959 71.2502 56.3043 71.2484 56.3121 71.2449C56.3199 71.2413 56.3268 71.2362 56.3324 71.2296C56.3381 71.2231 56.3423 71.2154 56.3447 71.2071C56.3472 71.1988 56.3479 71.19 56.3468 71.1813C56.1468 69.7667 56.2885 68.3834 56.7718 67.0313L59.4749 67.0782C57.2499 71.4032 60.4718 76.4391 65.2765 76.2313C66.9046 76.1615 68.3244 75.5193 69.5359 74.3047C70.4687 74.3797 71.5093 74.3219 72.3952 74.6454C68.6687 80.5126 60.239 79.9422 57.1296 73.8032C57.1215 73.7871 57.1092 73.7737 57.094 73.7643C57.0788 73.7549 57.0614 73.75 57.0437 73.7501H32.9734C32.9498 73.7501 32.9267 73.7566 32.9066 73.7687C32.8865 73.7808 32.8701 73.7981 32.8593 73.8188C31.0062 77.4376 27.2374 79.3579 23.2562 78.5594C17.3905 77.3829 14.4452 70.7516 17.453 65.586C17.7468 65.7745 18.0213 65.8803 18.2765 65.9032C18.9411 65.9626 19.5166 66.0735 20.003 66.236Z" fill="white"/>
<path d="M78.7484 65.9829C78.7619 68.2516 78.7583 69.7016 78.7374 70.3329C78.727 70.6589 78.6411 71.0068 78.4796 71.3766C77.9567 72.5777 77.089 73.3334 75.8765 73.6438C75.0905 73.8454 73.839 73.7422 72.9781 73.7516C72.9534 73.7516 72.9292 73.7583 72.9078 73.7709C72.8864 73.7835 72.8686 73.8017 72.8562 73.8235L72.3952 74.6454C71.5093 74.3219 70.4687 74.3797 69.5359 74.3047C71.3077 72.2787 71.702 69.9964 70.7187 67.4579C71.4822 67.1506 72.2989 66.9558 73.1687 66.8735C73.6885 68.2485 73.8531 69.673 73.6624 71.1469C73.6611 71.1578 73.6621 71.1688 73.6652 71.1792C73.6683 71.1897 73.6736 71.1994 73.6806 71.2077C73.6876 71.2161 73.6963 71.2229 73.7061 71.2278C73.7159 71.2326 73.7265 71.2354 73.7374 71.236C74.9046 71.2829 76.2249 71.4219 76.2343 69.8829C76.2426 68.5693 76.2484 67.2563 76.2515 65.9438L78.7484 65.9829Z" fill="white"/>
<path d="M28.6624 69.2173C27.8312 69.0516 26.8624 68.9954 26.1062 69.4204C25.5202 68.4423 24.1843 68.5641 23.7984 69.6391C23.2499 69.0251 22.1796 69.0235 21.403 68.9516C21.6109 68.2376 22.0264 67.6017 22.5968 67.1251C23.3426 66.5026 24.3011 66.1939 25.2702 66.2641C26.0792 66.3227 26.8472 66.6423 27.459 67.1748C28.0707 67.7074 28.493 68.4241 28.6624 69.2173Z" fill="white"/>
<path d="M68.6624 69.2157C67.8359 69.0579 66.8593 68.9938 66.1062 69.4219C65.5218 68.4438 64.189 68.5641 63.7984 69.6344C63.1077 69.2324 62.3046 69.0219 61.389 69.0032C61.6287 68.1353 62.1727 67.3827 62.9216 66.8831C63.6705 66.3836 64.5741 66.1705 65.4671 66.2829C66.2383 66.3801 66.9601 66.7145 67.5326 67.24C68.1051 67.7655 68.4999 68.4559 68.6624 69.2157Z" fill="white"/>
<path d="M23.7984 69.6391C23.6473 70.5089 23.9676 71.0391 24.7593 71.2297C25.753 71.4672 26.5468 70.3751 26.1062 69.4204C26.8624 68.9954 27.8312 69.0516 28.6624 69.2173C28.8125 69.9207 28.7569 70.6525 28.5022 71.3252C28.2476 71.998 27.8047 72.5832 27.2265 73.011C26.6168 73.4623 25.8842 73.7176 25.1257 73.743C24.3673 73.7684 23.6189 73.5627 22.9796 73.1532C22.1636 72.6309 21.5817 71.8127 21.3562 70.8704C21.2047 70.2376 21.2208 69.5762 21.403 68.9516C22.1796 69.0235 23.2499 69.0251 23.7984 69.6391Z" fill="white"/>
<path d="M63.7984 69.6344C63.6463 70.5084 63.9666 71.0402 64.7593 71.2297C65.753 71.4672 66.5468 70.3751 66.1062 69.4219C66.8593 68.9938 67.8359 69.0579 68.6624 69.2157C68.7913 69.8181 68.7696 70.4429 68.5992 71.0349C68.4289 71.6269 68.1152 72.1677 67.6859 72.6094C67.1854 73.1245 66.5474 73.4848 65.8479 73.6474C65.1484 73.81 64.4169 73.7681 63.7405 73.5266C62.9605 73.248 62.2952 72.7194 61.8484 72.0235C61.5637 71.5806 61.3756 71.0826 61.2965 70.5622C61.2173 70.0418 61.2488 69.5105 61.389 69.0032C62.3046 69.0219 63.1077 69.2324 63.7984 69.6344Z" fill="white"/>
</svg>
